<svg width="58" height="58" viewBox="0 0 58 58" fill="none" xmlns="http://www.w3.org/2000/svg">
<path d="M53.1666 23.5627C52.1758 23.5627 51.3541 22.741 51.3541 21.7502V16.9168C51.3541 10.6818 47.3183 6.646 41.0833 6.646H16.9166C10.6816 6.646 6.64575 10.6818 6.64575 16.9168V21.7502C6.64575 22.741 5.82409 23.5627 4.83325 23.5627C3.84242 23.5627 3.02075 22.741 3.02075 21.7502V16.9168C3.02075 8.6035 8.60325 3.021 16.9166 3.021H41.0833C49.3966 3.021 54.9791 8.6035 54.9791 16.9168V21.7502C54.9791 22.741 54.1574 23.5627 53.1666 23.5627Z" fill="#482121"/>
<path d="M41.0833 54.9792H16.9166C8.60325 54.9792 3.02075 49.3967 3.02075 41.0833V36.25C3.02075 35.2592 3.84242 34.4375 4.83325 34.4375C5.82409 34.4375 6.64575 35.2592 6.64575 36.25V41.0833C6.64575 47.3183 10.6816 51.3542 16.9166 51.3542H41.0833C47.3183 51.3542 51.3541 47.3183 51.3541 41.0833V36.25C51.3541 35.2592 52.1758 34.4375 53.1666 34.4375C54.1574 34.4375 54.9791 35.2592 54.9791 36.25V41.0833C54.9791 49.3967 49.3966 54.9792 41.0833 54.9792Z" fill="#482121"/>
<path d="M39.6332 19.8407L30.5466 14.9348C29.5799 14.4273 28.4441 14.4273 27.4774 14.9348L18.3666 19.8407C17.7141 20.2032 17.3032 20.904 17.3032 21.6773C17.3032 22.4748 17.7141 23.1757 18.3666 23.5382L27.4532 28.444C27.9366 28.7098 28.4682 28.8307 28.9999 28.8307C29.5316 28.8307 30.0632 28.7098 30.5466 28.444L39.6332 23.5382C40.2857 23.1757 40.6966 22.4748 40.6966 21.6773C40.6966 20.904 40.2857 20.2032 39.6332 19.8407Z" fill="#482121"/>
<path d="M25.955 30.136L17.4967 25.9069C16.8442 25.5927 16.095 25.6169 15.4667 26.0035C14.8625 26.3902 14.5 27.0427 14.5 27.7677V35.7669C14.5 37.1444 15.2733 38.401 16.5058 39.0052L24.9642 43.2344C25.2542 43.3794 25.5683 43.4519 25.9067 43.4519C26.2933 43.4519 26.6558 43.3552 26.9942 43.1377C27.6225 42.751 27.985 42.0985 27.985 41.3735V33.3744C27.9608 31.9969 27.2117 30.7644 25.955 30.136Z" fill="#482121"/>
<path d="M42.5091 26.0035C41.8807 25.6169 41.1316 25.5927 40.4791 25.9069L32.0207 30.136C30.7882 30.7644 30.0149 31.9969 30.0149 33.3744V41.3735C30.0149 42.0985 30.3774 42.751 31.0057 43.1377C31.3441 43.3552 31.7066 43.4519 32.0932 43.4519C32.4074 43.4519 32.7216 43.3794 33.0357 43.2344L41.4941 39.0052C42.7266 38.3769 43.4999 37.1444 43.4999 35.7669V27.7677C43.4999 27.0427 43.1374 26.3902 42.5091 26.0035Z" fill="#482121"/>
</svg>
