<svg width="58" height="58" viewBox="0 0 58 58" fill="none" xmlns="http://www.w3.org/2000/svg">
<path d="M53.1667 11.7207V40.4549C53.1667 42.7991 51.2575 44.9499 48.9133 45.2399L48.1642 45.3366C44.2008 45.8682 38.6183 47.5116 34.1233 49.3966C32.5525 50.0491 30.8125 48.8649 30.8125 47.1491V13.5332C30.8125 12.6391 31.32 11.8174 32.1175 11.3824C36.54 8.9899 43.2342 6.86323 47.7775 6.47656H47.9225C50.8225 6.47656 53.1667 8.82073 53.1667 11.7207Z" fill="#482121"/>
<path d="M25.8824 11.3824C21.4599 8.9899 14.7657 6.86323 10.2224 6.47656H10.0532C7.15325 6.47656 4.80908 8.82073 4.80908 11.7207V40.4549C4.80908 42.7991 6.71825 44.9499 9.06242 45.2399L9.81158 45.3366C13.7749 45.8682 19.3574 47.5116 23.8524 49.3966C25.4232 50.0491 27.1632 48.8649 27.1632 47.1491V13.5332C27.1632 12.6149 26.6799 11.8174 25.8824 11.3824ZM12.0832 18.7049H17.5207C18.5116 18.7049 19.3332 19.5266 19.3332 20.5174C19.3332 21.5324 18.5116 22.3299 17.5207 22.3299H12.0832C11.0924 22.3299 10.2707 21.5324 10.2707 20.5174C10.2707 19.5266 11.0924 18.7049 12.0832 18.7049ZM19.3332 29.5799H12.0832C11.0924 29.5799 10.2707 28.7824 10.2707 27.7674C10.2707 26.7766 11.0924 25.9549 12.0832 25.9549H19.3332C20.3241 25.9549 21.1457 26.7766 21.1457 27.7674C21.1457 28.7824 20.3241 29.5799 19.3332 29.5799Z" fill="#482121"/>
</svg>
