<svg width="58" height="58" viewBox="0 0 58 58" fill="none" xmlns="http://www.w3.org/2000/svg">
<path d="M42.5333 12.8324L28.8792 5.48576C27.4292 4.71243 25.7133 4.71243 24.2633 5.48576L10.6333 12.8324C9.64249 13.3883 9.01416 14.4516 9.01416 15.6116C9.01416 16.7958 9.61833 17.8591 10.6333 18.3908L24.2875 25.7374C25.0125 26.1241 25.81 26.3174 26.5833 26.3174C27.3567 26.3174 28.1783 26.1241 28.8792 25.7374L42.5333 18.3908C43.5242 17.8591 44.1525 16.7958 44.1525 15.6116C44.1525 14.4516 43.5242 13.3883 42.5333 12.8324Z" fill="#482121"/>
<path d="M22.0399 28.2993L9.35242 21.9676C8.36158 21.4601 7.24992 21.5326 6.30742 22.0884C5.38908 22.6684 4.83325 23.6593 4.83325 24.7468V36.7334C4.83325 38.8118 5.99325 40.6726 7.85408 41.6151L20.5416 47.9468C20.9766 48.1643 21.4599 48.2851 21.9433 48.2851C22.4991 48.2851 23.0791 48.1159 23.5866 47.8259C24.5049 47.2459 25.0608 46.2551 25.0608 45.1676V33.1809C25.0366 31.1026 23.8766 29.2418 22.0399 28.2993Z" fill="#482121"/>
<path d="M48.3332 24.7468V30.6918C47.1732 30.3534 45.9407 30.2084 44.7082 30.2084C41.4215 30.2084 38.2074 31.3443 35.6699 33.3743C32.1899 36.1051 30.2082 40.2376 30.2082 44.7084C30.2082 45.8926 30.3532 47.0768 30.6674 48.2126C30.3049 48.1643 29.9424 48.0193 29.604 47.8018C28.6857 47.2459 28.1299 46.2551 28.1299 45.1676V33.1809C28.1299 31.1026 29.2899 29.2418 31.1265 28.2993L43.814 21.9676C44.8049 21.4601 45.9165 21.5326 46.859 22.0884C47.7774 22.6684 48.3332 23.6593 48.3332 24.7468Z" fill="#482121"/>
<path d="M52.3934 37.0236C50.2425 34.8727 47.3909 33.7852 44.5634 33.8336C41.8325 33.8577 39.1017 34.9452 37.0234 37.0236C35.5734 38.4494 34.6309 40.2377 34.1717 42.0986C33.9059 43.1136 33.8092 44.1527 33.8817 45.1919V45.3127C33.8817 45.4819 33.9059 45.6269 33.93 45.8202C33.93 45.8202 33.93 45.8202 33.9542 45.8444V45.9169C34.1717 48.2852 35.1867 50.5811 37.0234 52.3936C39.8267 55.1969 43.7659 56.1394 47.3184 55.2452C48.3817 54.9794 49.4209 54.5444 50.3875 53.9644C51.1125 53.5536 51.7892 53.0219 52.3934 52.3936C54.2059 50.5811 55.245 48.2852 55.4625 45.8927C55.4867 45.8927 55.4867 45.8444 55.4867 45.8202C55.535 45.6511 55.535 45.4577 55.535 45.2886C55.535 45.2644 55.5592 45.2161 55.5592 45.1677C55.7042 42.2436 54.6409 39.2469 52.3934 37.0236ZM48.8892 48.8411C48.1884 49.5419 47.0525 49.5419 46.3275 48.8411L44.7325 47.2461L43.0892 48.8894C42.3642 49.6144 41.2284 49.6144 40.5275 48.8894C39.8025 48.1886 39.8025 47.0527 40.5275 46.3277L42.1709 44.6844L40.5759 43.0894C39.875 42.3644 39.875 41.2286 40.5759 40.5277C41.3009 39.8027 42.4367 39.8027 43.1617 40.5277L44.7325 42.1227L46.255 40.5761C46.98 39.8752 48.1159 39.8752 48.8409 40.5761C49.5417 41.3011 49.5417 42.4369 48.8409 43.1619L47.2942 44.6844L48.8892 46.2552C49.6142 46.9802 49.6142 48.1161 48.8892 48.8411Z" fill="#482121"/>
</svg>
