<svg width="40" height="40" viewBox="0 0 40 40" fill="none" xmlns="http://www.w3.org/2000/svg">
<path d="M30.067 22.5833C29.367 23.2666 28.967 24.2499 29.067 25.2999C29.217 27.0999 30.867 28.4166 32.667 28.4166H35.8337V30.3999C35.8337 33.8499 33.017 36.6666 29.567 36.6666H10.4337C6.98366 36.6666 4.16699 33.8499 4.16699 30.3999V19.1833C4.16699 15.7333 6.98366 12.9166 10.4337 12.9166H29.567C33.017 12.9166 35.8337 15.7333 35.8337 19.1833V21.5833H32.467C31.5337 21.5833 30.6837 21.9499 30.067 22.5833Z" stroke="black" stroke-width="1.5" stroke-linecap="round" stroke-linejoin="round"/>
<path d="M4.16699 20.6833V13.0667C4.16699 11.0834 5.38366 9.31665 7.23366 8.61665L20.467 3.61665C22.5337 2.83331 24.7503 4.36669 24.7503 6.58336V12.9167" stroke="black" stroke-width="1.5" stroke-linecap="round" stroke-linejoin="round"/>
<path d="M37.5983 23.2835V26.717C37.5983 27.6336 36.865 28.3836 35.9317 28.4169H32.665C30.865 28.4169 29.215 27.1003 29.065 25.3003C28.965 24.2503 29.365 23.2669 30.065 22.5836C30.6817 21.9502 31.5317 21.5836 32.465 21.5836H35.9317C36.865 21.617 37.5983 22.3669 37.5983 23.2835Z" stroke="black" stroke-width="1.5" stroke-linecap="round" stroke-linejoin="round"/>
<path d="M11.667 20H23.3337" stroke="black" stroke-width="1.5" stroke-linecap="round" stroke-linejoin="round"/>
</svg>
