<svg width="58" height="58" viewBox="0 0 58 58" fill="none" xmlns="http://www.w3.org/2000/svg">
<path d="M12.0834 36.25C9.81175 36.25 7.70925 37.0475 6.04175 38.3767C3.81841 40.1408 2.41675 42.8717 2.41675 45.9167C2.41675 51.2575 6.74258 55.5833 12.0834 55.5833C14.5242 55.5833 16.7476 54.665 18.4634 53.1667C20.4692 51.4025 21.7501 48.8167 21.7501 45.9167C21.7501 40.5758 17.4242 36.25 12.0834 36.25ZM14.5001 46.5208C14.5001 47.1492 14.1617 47.7533 13.6301 48.0675L10.6092 49.88C10.3192 50.0733 9.98092 50.1458 9.66675 50.1458C9.06258 50.1458 8.45841 49.8317 8.12008 49.2758C7.61258 48.4058 7.87841 47.2942 8.74841 46.7867L10.8992 45.5058V42.8958C10.8751 41.905 11.6967 41.0833 12.6876 41.0833C13.6784 41.0833 14.5001 41.905 14.5001 42.8958V46.5208Z" fill="#482121"/>
<path d="M35.8876 9.54577V18.7291H32.2626V9.54577C32.2626 8.89327 31.6826 8.5791 31.2959 8.5791C31.1751 8.5791 31.0542 8.60327 30.9334 8.6516L11.7692 15.8774C10.4884 16.3608 9.66675 17.5691 9.66675 18.9466V20.5658C7.46758 22.2091 6.04175 24.8433 6.04175 27.8158V18.9466C6.04175 16.0708 7.80591 13.5091 10.4884 12.4941L29.6767 5.2441C30.2084 5.05077 30.7642 4.9541 31.2959 4.9541C33.7126 4.9541 35.8876 6.9116 35.8876 9.54577Z" fill="#482121"/>
<path d="M51.9583 35.0418V37.4585C51.9583 38.111 51.4508 38.6427 50.7741 38.6668H47.2458C45.965 38.6668 44.805 37.7243 44.7083 36.4677C44.6358 35.7185 44.9258 35.0177 45.4092 34.5343C45.8442 34.0752 46.4483 33.8335 47.1008 33.8335H50.75C51.4508 33.8577 51.9583 34.3893 51.9583 35.0418Z" fill="#482121"/>
<path d="M47.0767 31.2957H49.5417C50.8709 31.2957 51.9584 30.2082 51.9584 28.879V27.8157C51.9584 22.8132 47.8742 18.729 42.8717 18.729H15.1284C13.0742 18.729 11.1892 19.4057 9.66675 20.5657C7.46758 22.209 6.04175 24.8432 6.04175 27.8157V32.1173C6.04175 33.0357 7.00841 33.6157 7.87841 33.3257C9.23175 32.8665 10.6576 32.6248 12.0834 32.6248C19.4059 32.6248 25.3751 38.594 25.3751 45.9165C25.3751 47.6565 24.9159 49.5657 24.1909 51.2573C23.8042 52.1273 24.4084 53.1665 25.3509 53.1665H42.8717C47.8742 53.1665 51.9584 49.0823 51.9584 44.0798V43.6207C51.9584 42.2915 50.8709 41.204 49.5417 41.204H47.4392C45.1192 41.204 42.8959 39.7782 42.2917 37.5307C41.8084 35.694 42.3884 33.9057 43.5967 32.7457C44.4909 31.8273 45.7234 31.2957 47.0767 31.2957ZM33.8334 30.8123H21.7501C20.7592 30.8123 19.9376 29.9907 19.9376 28.9998C19.9376 28.009 20.7592 27.1873 21.7501 27.1873H33.8334C34.8242 27.1873 35.6459 28.009 35.6459 28.9998C35.6459 29.9907 34.8242 30.8123 33.8334 30.8123Z" fill="#482121"/>
</svg>
