<svg xmlns="http://www.w3.org/2000/svg" xmlns:xlink="http://www.w3.org/1999/xlink" width="2000" zoomAndPan="magnify" viewBox="0 0 1500 1499.999933" height="2000" preserveAspectRatio="xMidYMid meet" version="1.0"><defs><clipPath id="aa2382b733"><path d="M 240 443 L 1262.914062 443 L 1262.914062 1057 L 240 1057 Z M 240 443 " clip-rule="nonzero"/></clipPath></defs><rect x="-150" width="1800" fill="#ffffff" y="-149.999993" height="1799.99992" fill-opacity="1"/><rect x="-150" width="1800" fill="#6d5353" y="-149.999993" height="1799.99992" fill-opacity="1"/><g clip-path="url(#aa2382b733)"><path fill="#ffffff" d="M 751.703125 443.167969 C 639.371094 443.167969 535.289062 489.023438 451.046875 544.863281 C 327.667969 626.652344 247.585938 728.960938 247.585938 728.960938 C 237.902344 741.300781 237.902344 758.6875 247.585938 771.03125 C 247.585938 771.03125 327.667969 873.339844 451.046875 955.125 C 535.285156 1010.96875 639.371094 1056.820312 751.703125 1056.820312 C 864.035156 1056.820312 968.117188 1010.96875 1052.359375 955.125 C 1175.734375 873.339844 1255.816406 771.03125 1255.816406 771.03125 C 1265.5 758.6875 1265.5 741.300781 1255.816406 728.960938 C 1255.816406 728.960938 1175.734375 626.652344 1052.359375 544.863281 C 968.117188 489.023438 864.035156 443.167969 751.703125 443.167969 Z M 751.703125 511.351562 C 850.125 511.351562 940.878906 552.773438 1014.652344 601.660156 C 1095.28125 655.117188 1155.894531 717.984375 1184.292969 749.996094 C 1155.894531 782.007812 1095.28125 844.871094 1014.652344 898.328125 C 940.878906 947.214844 850.125 988.636719 751.703125 988.636719 C 653.277344 988.636719 562.527344 947.214844 488.75 898.328125 C 408.125 844.871094 347.507812 782.007812 319.109375 749.996094 C 347.507812 717.984375 408.125 655.117188 488.75 601.660156 C 562.527344 552.773438 653.277344 511.351562 751.703125 511.351562 Z M 751.703125 545.445312 C 638.824219 545.445312 547.152344 637.117188 547.152344 749.996094 C 547.152344 862.871094 638.824219 954.546875 751.703125 954.546875 C 864.582031 954.546875 956.253906 862.871094 956.253906 749.996094 C 956.253906 637.117188 864.582031 545.445312 751.703125 545.445312 Z M 751.703125 613.628906 C 826.976562 613.628906 888.070312 674.71875 888.070312 749.996094 C 888.070312 825.269531 826.976562 886.363281 751.703125 886.363281 C 676.425781 886.363281 615.335938 825.269531 615.335938 749.996094 C 615.335938 674.71875 676.425781 613.628906 751.703125 613.628906 Z M 751.703125 715.902344 C 770.519531 715.902344 785.792969 731.175781 785.792969 749.996094 C 785.792969 768.8125 801.066406 784.085938 819.886719 784.085938 C 838.703125 784.085938 853.976562 768.8125 853.976562 749.996094 C 853.976562 693.539062 808.15625 647.71875 751.703125 647.71875 C 732.882812 647.71875 717.609375 662.992188 717.609375 681.8125 C 717.609375 700.628906 732.882812 715.902344 751.703125 715.902344 Z M 751.703125 715.902344 " fill-opacity="1" fill-rule="evenodd"/></g></svg>