<svg xmlns="http://www.w3.org/2000/svg" xmlns:xlink="http://www.w3.org/1999/xlink" width="2000" zoomAndPan="magnify" viewBox="0 0 1500 1499.999933" height="2000" preserveAspectRatio="xMidYMid meet" version="1.0"><rect x="-150" width="1800" fill="#ffffff" y="-149.999993" height="1799.99992" fill-opacity="1"/><rect x="-150" width="1800" fill="#6d5353" y="-149.999993" height="1799.99992" fill-opacity="1"/><path fill="#ffffff" d="M 950.414062 504.574219 C 889.238281 475.867188 821.351562 456.492188 749.996094 456.492188 C 642.113281 456.492188 542.152344 500.777344 461.269531 554.6875 C 342.847656 633.636719 265.925781 732.421875 265.925781 732.421875 C 256.730469 744.269531 256.730469 760.832031 265.925781 772.679688 C 265.925781 772.679688 342.847656 871.464844 461.269531 950.414062 C 470.402344 956.503906 479.765625 962.460938 489.355469 968.21875 L 273.621094 1185.167969 C 260.886719 1197.964844 260.953125 1218.71875 273.75 1231.449219 C 286.546875 1244.183594 307.300781 1244.117188 320.03125 1231.320312 L 549.582031 1000.527344 C 610.757812 1029.234375 678.640625 1048.609375 749.996094 1048.609375 C 857.882812 1048.609375 957.84375 1004.324219 1038.726562 950.414062 C 1157.148438 871.464844 1234.066406 772.679688 1234.066406 772.679688 C 1243.265625 760.832031 1243.265625 744.269531 1234.066406 732.421875 C 1234.066406 732.421875 1157.148438 633.636719 1038.726562 554.6875 C 1029.59375 548.597656 1020.230469 542.640625 1010.640625 536.882812 L 1231.449219 314.828125 C 1244.183594 302.03125 1244.117188 281.277344 1231.320312 268.546875 C 1218.519531 255.8125 1197.769531 255.878906 1185.035156 268.675781 Z M 963.015625 584.769531 L 909.957031 638.121094 C 932.902344 670.394531 946.386719 709.902344 946.386719 752.550781 C 946.386719 861.480469 858.339844 949.859375 749.996094 949.859375 C 707.609375 949.859375 668.363281 936.339844 636.253906 913.363281 L 598.90625 950.90625 C 645.878906 970.445312 696.777344 983.144531 749.996094 983.144531 C 844.460938 983.144531 931.59375 943.148438 1002.394531 895.949219 C 1079.96875 844.265625 1138.230469 783.417969 1165.429688 752.550781 C 1138.230469 721.683594 1079.96875 660.867188 1002.394531 609.152344 C 989.757812 600.742188 976.632812 592.558594 963.015625 584.769531 Z M 901.085938 554.195312 C 854.117188 534.65625 803.21875 521.957031 749.996094 521.957031 C 655.535156 521.957031 568.402344 561.953125 497.601562 609.152344 C 420.027344 660.871094 361.765625 721.683594 334.566406 752.550781 C 361.765625 783.417969 420.027344 844.265625 497.601562 895.949219 C 510.238281 904.359375 523.363281 912.542969 536.980469 920.335938 L 590.039062 866.980469 C 567.09375 834.707031 553.605469 795.199219 553.605469 752.550781 C 553.605469 643.621094 641.65625 555.242188 749.996094 555.242188 C 792.386719 555.242188 831.632812 568.761719 863.742188 591.738281 Z M 862.757812 685.582031 L 838.539062 709.933594 C 844.722656 722.832031 848.191406 737.296875 848.191406 752.550781 C 848.191406 770.617188 833.53125 785.28125 815.460938 785.28125 C 801.417969 785.28125 789.441406 776.414062 784.792969 763.972656 L 683.324219 866.03125 C 702.863281 877.683594 725.644531 884.394531 749.996094 884.394531 C 822.300781 884.394531 880.925781 825.28125 880.925781 752.550781 C 880.925781 728.101562 874.3125 705.222656 862.757812 685.582031 Z M 816.671875 639.101562 C 797.132812 627.417969 774.351562 620.707031 749.996094 620.707031 C 677.691406 620.707031 619.070312 679.855469 619.070312 752.550781 C 619.070312 777 625.683594 799.882812 637.238281 819.519531 L 738.738281 717.460938 C 726.203125 712.878906 717.265625 700.835938 717.265625 686.726562 C 717.265625 668.660156 731.929688 653.996094 749.996094 653.996094 C 765.152344 653.996094 779.488281 657.433594 792.289062 663.585938 Z M 816.671875 639.101562 " fill-opacity="1" fill-rule="evenodd"/></svg>