<svg width="58" height="58" viewBox="0 0 58 58" fill="none" xmlns="http://www.w3.org/2000/svg">
<path d="M41.0832 5.87256H16.9166C9.66658 5.87256 4.83325 10.7059 4.83325 17.9559V32.4559C4.83325 39.7059 9.66658 44.5392 16.9166 44.5392V49.6867C16.9166 51.6201 19.0674 52.7801 20.6624 51.6926L31.4166 44.5392H41.0832C48.3332 44.5392 53.1666 39.7059 53.1666 32.4559V17.9559C53.1666 10.7059 48.3332 5.87256 41.0832 5.87256ZM28.9999 35.2834C27.9849 35.2834 27.1874 34.4617 27.1874 33.4709C27.1874 32.4801 27.9849 31.6584 28.9999 31.6584C30.0149 31.6584 30.8124 32.4801 30.8124 33.4709C30.8124 34.4617 30.0149 35.2834 28.9999 35.2834ZM32.0449 25.2542C31.1024 25.8826 30.8124 26.2934 30.8124 26.9701V27.4776C30.8124 28.4684 29.9907 29.2901 28.9999 29.2901C28.0091 29.2901 27.1874 28.4684 27.1874 27.4776V26.9701C27.1874 24.1667 29.2416 22.7892 30.0149 22.2576C30.9091 21.6534 31.1991 21.2426 31.1991 20.6142C31.1991 19.4059 30.2083 18.4151 28.9999 18.4151C27.7916 18.4151 26.8008 19.4059 26.8008 20.6142C26.8008 21.6051 25.9791 22.4267 24.9883 22.4267C23.9974 22.4267 23.1758 21.6051 23.1758 20.6142C23.1758 17.4001 25.7858 14.7901 28.9999 14.7901C32.2141 14.7901 34.8241 17.4001 34.8241 20.6142C34.8241 23.3692 32.7941 24.7467 32.0449 25.2542Z" fill="#482121"/>
</svg>
