<svg width="41" height="41" viewBox="0 0 41 41" fill="none" xmlns="http://www.w3.org/2000/svg">
<path d="M5.14209 19.1675V26.8379C5.14209 34.5083 8.21709 37.5833 15.8875 37.5833H25.0954C32.7658 37.5833 35.8408 34.5083 35.8408 26.8379V19.1675" stroke="black" stroke-width="1.5" stroke-linecap="round" stroke-linejoin="round"/>
<path d="M20.5002 20.5C23.6264 20.5 25.9327 17.9546 25.6252 14.8284L24.4977 3.41669H16.5197L15.3752 14.8284C15.0677 17.9546 17.3739 20.5 20.5002 20.5Z" stroke="black" stroke-width="1.5" stroke-linecap="round" stroke-linejoin="round"/>
<path d="M31.2796 20.5C34.7304 20.5 37.2588 17.6984 36.9171 14.2646L36.4388 9.56669C35.8238 5.12502 34.1154 3.41669 29.6396 3.41669H24.4292L25.625 15.3921C25.9154 18.2109 28.4609 20.5 31.2796 20.5Z" stroke="black" stroke-width="1.5" stroke-linecap="round" stroke-linejoin="round"/>
<path d="M9.63523 20.5C12.454 20.5 14.9994 18.2109 15.2727 15.3921L15.6486 11.6167L16.4686 3.41669H11.2581C6.78231 3.41669 5.07398 5.12502 4.45898 9.56669L3.99773 14.2646C3.65606 17.6984 6.18439 20.5 9.63523 20.5Z" stroke="black" stroke-width="1.5" stroke-linecap="round" stroke-linejoin="round"/>
<path d="M20.4998 29.0417C17.6469 29.0417 16.229 30.4596 16.229 33.3125V37.5834H24.7707V33.3125C24.7707 30.4596 23.3528 29.0417 20.4998 29.0417Z" stroke="black" stroke-width="1.5" stroke-linecap="round" stroke-linejoin="round"/>
</svg>
