<svg width="58" height="58" viewBox="0 0 58 58" fill="none" xmlns="http://www.w3.org/2000/svg">
<path d="M51.9582 37.4585C52.6349 37.4585 53.1666 37.9902 53.1666 38.6668V41.0835C53.1666 45.0952 49.9282 48.3335 45.9166 48.3335C45.9166 44.346 42.6541 41.0835 38.6666 41.0835C34.6791 41.0835 31.4166 44.346 31.4166 48.3335H26.5833C26.5833 44.346 23.3208 41.0835 19.3333 41.0835C15.3458 41.0835 12.0833 44.346 12.0833 48.3335C8.07159 48.3335 4.83325 45.0952 4.83325 41.0835V36.2502C4.83325 34.921 5.92075 33.8335 7.24992 33.8335H30.2083C33.5432 33.8335 36.2499 31.1268 36.2499 27.7918V14.5002C36.2499 13.171 37.3374 12.0835 38.6666 12.0835H40.6966C42.4366 12.0835 44.0316 13.026 44.9016 14.5243L46.4482 17.231C46.6657 17.6177 46.3757 18.1252 45.9166 18.1252C42.5816 18.1252 39.8749 20.8318 39.8749 24.1668V31.4168C39.8749 34.7518 42.5816 37.4585 45.9166 37.4585H51.9582Z" fill="#482121"/>
<path d="M19.3333 53.1667C22.0027 53.1667 24.1667 51.0027 24.1667 48.3333C24.1667 45.664 22.0027 43.5 19.3333 43.5C16.664 43.5 14.5 45.664 14.5 48.3333C14.5 51.0027 16.664 53.1667 19.3333 53.1667Z" fill="#482121"/>
<path d="M38.6666 53.1667C41.336 53.1667 43.4999 51.0027 43.4999 48.3333C43.4999 45.664 41.336 43.5 38.6666 43.5C35.9972 43.5 33.8333 45.664 33.8333 48.3333C33.8333 51.0027 35.9972 53.1667 38.6666 53.1667Z" fill="#482121"/>
<path d="M53.1667 30.2808V33.8333H45.9167C44.5875 33.8333 43.5 32.7458 43.5 31.4167V24.1667C43.5 22.8375 44.5875 21.75 45.9167 21.75H49.0342L52.5383 27.8883C52.9492 28.6133 53.1667 29.435 53.1667 30.2808Z" fill="#482121"/>
<path d="M31.6102 4.8335H13.751C9.42516 4.8335 5.80016 7.92683 5.00266 12.0352H15.5635C16.4818 12.0352 17.2068 12.7843 17.2068 13.7027C17.2068 14.621 16.4818 15.346 15.5635 15.346H4.8335V18.681H11.1168C12.0352 18.681 12.7843 19.4302 12.7843 20.3485C12.7843 21.2668 12.0352 21.9918 11.1168 21.9918H4.8335V25.3268H6.69433C7.61266 25.3268 8.36183 26.076 8.36183 26.9943C8.36183 27.9127 7.61266 28.6377 6.69433 28.6377H4.8335V29.1935C4.8335 30.5227 5.921 31.6102 7.25016 31.6102H29.3627C31.8277 31.6102 33.8335 29.6043 33.8335 27.1393V7.05683C33.8335 5.82433 32.8427 4.8335 31.6102 4.8335Z" fill="#482121"/>
<path d="M5.00258 12.0352H4.64008H2.27175C1.35341 12.0352 0.604248 12.7843 0.604248 13.7027C0.604248 14.621 1.35341 15.346 2.27175 15.346H4.47091H4.83341V13.751C4.83341 13.171 4.90591 12.591 5.00258 12.0352Z" fill="#482121"/>
<path d="M4.47091 18.6812H2.27175C1.35341 18.6812 0.604248 19.4303 0.604248 20.3487C0.604248 21.267 1.35341 21.992 2.27175 21.992H4.47091H4.83341V18.6812H4.47091Z" fill="#482121"/>
<path d="M4.47091 25.3267H2.27175C1.35341 25.3267 0.604248 26.0758 0.604248 26.9942C0.604248 27.9125 1.35341 28.6375 2.27175 28.6375H4.47091H4.83341V25.3267H4.47091Z" fill="#482121"/>
</svg>
