<svg xmlns="http://www.w3.org/2000/svg" xmlns:xlink="http://www.w3.org/1999/xlink" width="2000" zoomAndPan="magnify" viewBox="0 0 1500 1499.999933" height="2000" preserveAspectRatio="xMidYMid meet" version="1.0"><defs><clipPath id="87235611ef"><path d="M 16.875 16.875 L 1483.125 16.875 L 1483.125 1483.125 L 16.875 1483.125 Z M 16.875 16.875 " clip-rule="nonzero"/></clipPath></defs><rect x="-150" width="1800" fill="#ffffff" y="-149.999993" height="1799.99992" fill-opacity="1"/><rect x="-150" width="1800" fill="#ffffff" y="-149.999993" height="1799.99992" fill-opacity="1"/><g clip-path="url(#87235611ef)"><path fill="#6d5353" d="M 750.066406 16.875 C 345.121094 16.875 16.875 345.121094 16.875 750.0625 C 16.875 1155.007812 345.121094 1483.253906 750.066406 1483.253906 C 1155.007812 1483.253906 1483.253906 1155.007812 1483.253906 750.0625 C 1483.253906 345.121094 1154.976562 16.875 750.066406 16.875 Z M 1254.253906 488.972656 L 643.304688 1155.460938 C 628.371094 1171.75 602.859375 1172.230469 587.34375 1156.492188 L 246.90625 811.863281 C 233.910156 798.703125 234.039062 777.480469 247.199219 764.449219 L 349.085938 663.816406 C 364.214844 648.886719 388.597656 649.015625 403.5625 664.140625 L 610.050781 873.175781 L 1096.789062 342.21875 C 1108.402344 329.542969 1128.109375 328.671875 1140.785156 340.3125 L 1252.253906 442.492188 C 1265.636719 454.78125 1266.574219 475.585938 1254.285156 489.003906 Z M 1254.253906 488.972656 " fill-opacity="1" fill-rule="nonzero"/></g></svg>