<?xml version="1.0" encoding="UTF-8"?>
<svg version="1.1" xmlns="http://www.w3.org/2000/svg" width="1563" height="1563">
<path d="M0 0 C51.43638535 -0.01714557 102.8727709 -0.03306256 154.30915833 -0.04234314 C155.07235717 -0.0424812 155.83555602 -0.04261925 156.62188211 -0.04276149 C173.21456141 -0.0457555 189.80724074 -0.04852553 206.39992012 -0.05106533 C214.53883021 -0.05231249 222.6777403 -0.05360907 230.81665039 -0.05493164 C231.62650157 -0.0550624 232.43635276 -0.05519316 233.27074488 -0.05532788 C259.44561033 -0.05957719 285.62047359 -0.06707943 311.79533771 -0.07629722 C338.72899836 -0.08576484 365.6626578 -0.09189352 392.59632008 -0.09391499 C396.41432948 -0.09420308 400.23233888 -0.09452871 404.05034828 -0.09487724 C404.80167064 -0.09494467 405.552993 -0.09501209 406.32708271 -0.09508156 C418.34437925 -0.09625601 430.36167204 -0.10087421 442.37896706 -0.10683203 C454.50697388 -0.11276936 466.63497703 -0.11495562 478.76298525 -0.11350138 C485.31525945 -0.11281514 491.86752505 -0.11377742 498.4197979 -0.11920547 C570.46922446 -0.17587894 570.46922446 -0.17587894 603.6875 2.3125 C605.01178513 2.40862076 605.01178513 2.40862076 606.36282349 2.50668335 C684.72415661 8.23094663 762.0671291 25.34446526 845 66 C846.46373047 66.73935791 846.46373047 66.73935791 847.95703125 67.49365234 C868.79251641 78.11902126 888.88040092 91.19200669 907 106 C907.91910156 106.72960937 908.83820312 107.45921875 909.78515625 108.2109375 C916.24694703 113.3912761 922.36772097 118.89911078 928.42333984 124.54101562 C930.04863147 126.04500181 931.68830037 127.53182727 933.33203125 129.015625 C939.96943027 135.02621748 946.15093669 141.20432508 952 148 C952.91958005 149.03473739 953.84021237 150.06854027 954.76171875 151.1015625 C968.0748256 166.15403701 979.07067267 182.55726627 989 200 C989.40702148 200.70946777 989.81404297 201.41893555 990.23339844 202.14990234 C1012.12963028 240.66561276 1024.97272271 286.6930838 1026 331 C1026.02046387 331.75667969 1026.04092773 332.51335937 1026.06201172 333.29296875 C1027.56490108 395.79329316 1009.04615833 460.90691593 971 511 C970.20385742 512.07119143 969.40828556 513.14280726 968.61328125 514.21484375 C953.7707265 534.05607722 936.61494681 552.81623391 917 568 C915.14269596 569.57965191 913.28872867 571.16323257 911.4375 572.75 C845.02064397 627.8294564 756.29955779 656.94412597 611.875 676.75 C611.12750488 676.80925659 610.38000977 676.86851318 609.60986328 676.92956543 C586.54777021 678.72257278 563.4781143 679.22338632 540.35784912 679.53222656 C536.58227987 679.58341652 532.8067686 679.63858149 529.03125 679.69335938 C521.68754975 679.7993474 514.34379967 679.90111199 507 680 C508.13011757 680.92150848 508.13011757 680.92150848 509.2830658 681.8616333 C510.27238602 682.66945251 511.26170624 683.47727173 512.28100586 684.30957031 C513.26129257 685.1095343 514.24157928 685.90949829 515.25157166 686.73370361 C517.88860125 688.90814293 520.46916637 691.13068007 523.02758789 693.39599609 C547.01407753 714.55538397 575.25720417 732.24480941 604.05371094 746.05712891 C605.97721569 746.98896224 607.88333119 747.95039081 609.7890625 748.91796875 C642.77880904 765.38807494 679.91257409 774.57276406 715.9375 781.625 C716.70784576 781.77697845 717.47819153 781.92895691 718.2718811 782.08554077 C726.04499049 783.61202045 733.78305466 785.03540549 741.65234375 785.98046875 C742.79904541 786.12597168 743.94574707 786.27147461 745.12719727 786.42138672 C747.21825241 786.67319987 749.31433958 786.88751434 751.41381836 787.05517578 C755.3601774 787.53396072 758.0108222 787.90515089 760.74145508 790.92749023 C762.34780008 793.55100271 763.67624076 796.22358916 765 799 C766.10220058 800.98406082 767.21597601 802.96172541 768.33984375 804.93359375 C769.54077791 807.10061273 770.73991631 809.26862762 771.9375 811.4375 C772.59356387 812.6224989 773.24981816 813.80739239 773.90625 814.9921875 C775.26489156 817.44474574 776.62272709 819.89774751 777.97998047 822.35107422 C781.14566972 828.07163011 784.32355643 833.78541124 787.5 839.5 C788.75005534 841.74996925 790.00005521 843.99996933 791.25 846.25 C792.178125 847.920625 792.178125 847.920625 793.125 849.625 C903.75 1048.75 903.75 1048.75 905.62548828 1052.1262207 C906.87347363 1054.37236678 908.12184502 1056.61829842 909.37060547 1058.86401367 C912.52965674 1064.54626752 915.68156017 1070.2322864 918.8203125 1075.92578125 C951.23057956 1134.77817559 951.23057956 1134.77817559 994.1875 1186.1875 C997 1189 997 1189 997 1191 C997.66 1191 998.32 1191 999 1191 C1001.3761167 1193.23210962 1003.60102368 1195.57640599 1005.8359375 1197.94921875 C1012.35683302 1204.70040612 1019.50662378 1210.38397499 1027 1216 C1027.57943359 1216.43489746 1028.15886719 1216.86979492 1028.75585938 1217.31787109 C1037.48495754 1223.82030948 1046.51360553 1229.66485002 1056 1235 C1056.7719873 1235.4345752 1057.54397461 1235.86915039 1058.33935547 1236.31689453 C1071.77975189 1243.79854688 1085.51099512 1249.85016358 1100 1255 C1100.95793457 1255.3412793 1101.91586914 1255.68255859 1102.90283203 1256.03417969 C1139.36889498 1268.80677422 1178.45910166 1276.00773226 1216.82104492 1280.11450195 C1218.88871975 1280.34690009 1220.94679892 1280.66287482 1223 1281 C1223.33 1281.66 1223.66 1282.32 1224 1283 C1083.75 1283 943.5 1283 799 1283 C796.525 1274.09 796.525 1274.09 794 1265 C781.74997382 1221.63034208 764.89228689 1181.1309442 742.4453125 1142.03515625 C738.56844974 1135.27708469 734.81483488 1128.45258954 731.0625 1121.625 C726.07754472 1112.56291556 721.06475541 1103.51784116 716 1094.5 C710.93523448 1085.48214084 705.92384338 1076.43633224 700.9375 1067.375 C696.17518411 1058.72119171 691.37763371 1050.08955319 686.5 1041.5 C680.60117378 1031.11036575 674.82545325 1020.65506497 669.06340027 1010.18930054 C668.55828667 1009.27188583 668.55828667 1009.27188583 668.04296875 1008.3359375 C667.70602493 1007.72392487 667.36908112 1007.11191223 667.02192688 1006.48135376 C661.66642283 996.7581488 656.26351124 987.06120868 650.86767578 977.36035156 C648.97067513 973.94723823 647.0767217 970.53245022 645.18359375 967.1171875 C639.26844535 956.44979466 633.33286218 945.79592432 627.3125 935.1875 C622.62261158 926.92294079 618.04051766 918.60575205 613.51000977 910.25292969 C609.98921998 903.77619501 606.39099408 897.34734048 602.75 890.9375 C597.81227333 882.24245099 592.94748654 873.50929011 588.125 864.75 C587.78909851 864.13998138 587.45319702 863.52996277 587.1071167 862.90145874 C586.42710958 861.66650117 585.74710673 860.43154125 585.06710815 859.19657898 C584.73043121 858.58514542 584.39375427 857.97371185 584.046875 857.34375 C583.71011749 856.73211502 583.37335999 856.12048004 583.02639771 855.49031067 C574.1771939 839.42385105 565.23688127 823.40792937 556.2668457 807.40869141 C550.11147863 796.42492482 544.00058781 785.41656581 537.89111328 774.40722656 C534.76254948 768.77048032 531.63113923 763.1353159 528.5 757.5 C527.24998618 755.25000768 525.99998618 753.00000768 524.75 750.75 C523.821875 749.079375 523.821875 749.079375 522.875 747.375 C494.2421875 695.8359375 494.2421875 695.8359375 492.57714844 692.83105469 C491.5476097 690.98298485 490.509558 689.1396246 489.46191406 687.30175781 C489.00268555 686.49319336 488.54345703 685.68462891 488.0703125 684.8515625 C487.46727295 683.800896 487.46727295 683.800896 486.85205078 682.72900391 C486 681 486 681 486 679 C445.41 679 404.82 679 363 679 C363.08348382 737.53267756 363.1740149 796.06532755 363.28005161 854.59796761 C363.29257666 861.51330964 363.30500513 868.42865185 363.31738281 875.34399414 C363.3192328 876.37619349 363.3192328 876.37619349 363.32112016 877.42924536 C363.36099795 899.70426914 363.39450674 921.97929692 363.42468691 944.25433577 C363.45663598 967.80927123 363.49589703 991.36418218 363.54279006 1014.91909331 C363.57062647 1029.01928766 363.59268048 1043.11946642 363.60726251 1057.21968081 C363.61783069 1066.89777734 363.63568061 1076.57584365 363.65916704 1086.25391737 C363.67249111 1091.83183861 363.68269062 1097.40971764 363.68421364 1102.98765564 C363.68568256 1108.10634712 363.69640862 1113.22493715 363.71413441 1118.34359737 C363.71893754 1120.18375597 363.72050235 1122.0239269 363.71827881 1123.86409042 C363.70241407 1139.58832051 364.36892145 1155.43972746 368.25 1170.75 C368.46543457 1171.62140625 368.68086914 1172.4928125 368.90283203 1173.390625 C377.01079041 1204.91835452 396.18972272 1230.21256844 423.8125 1247 C455.70413919 1265.60922904 493.39890059 1273.93774778 529.56738281 1279.35229492 C530.78393555 1279.54025635 532.00048828 1279.72821777 533.25390625 1279.921875 C534.34002197 1280.08268555 535.4261377 1280.24349609 536.54516602 1280.40917969 C537.35526123 1280.60415039 538.16535645 1280.79912109 539 1281 C539.33 1281.66 539.66 1282.32 540 1283 C361.8 1283 183.6 1283 0 1283 C0.33 1282.34 0.66 1281.68 1 1281 C3.81860352 1280.34912109 3.81860352 1280.34912109 7.62890625 1279.7734375 C9.05510561 1279.54892722 10.48120813 1279.32380115 11.90722656 1279.09814453 C13.04424011 1278.92245941 13.04424011 1278.92245941 14.20422363 1278.7432251 C40.45899643 1274.64376228 66.18578705 1268.65885494 91 1259 C92.11133301 1258.56953369 92.11133301 1258.56953369 93.24511719 1258.13037109 C108.00517565 1252.30581972 122.05438286 1244.50141472 134 1234 C134.83917969 1233.29230469 135.67835938 1232.58460937 136.54296875 1231.85546875 C162.40017263 1209.51891291 173.11206218 1176.62694608 175.78914616 1143.55499279 C176.19509277 1136.71073866 176.13802249 1129.86234961 176.12863445 1123.0087738 C176.12998293 1121.3005282 176.13176786 1119.5922829 176.13394669 1117.88403815 C176.13866027 1113.19683371 176.13718035 1108.50964878 176.13466892 1103.8224434 C176.13303235 1098.72028259 176.13717958 1093.6181259 176.14057809 1088.51596642 C176.14572788 1079.57578078 176.14715002 1070.63560056 176.14612198 1061.69541359 C176.14459693 1048.40063413 176.14875909 1035.10586065 176.1539966 1021.81108236 C176.16366887 996.6840375 176.16648143 971.55699497 176.16705366 946.42994875 C176.16711841 943.65949881 176.16718635 940.88904887 176.16725707 938.11859894 C176.16728258 937.08731744 176.16728258 937.08731744 176.1673086 936.03520196 C176.16771731 920.7899855 176.16990805 905.54476946 176.17241292 890.29955322 C176.1734413 884.0191983 176.17443134 877.73884338 176.17542917 871.45848846 C176.17553975 870.76452988 176.17565034 870.07057129 176.17576428 869.35558366 C176.18208732 829.59462015 176.18621352 789.83365691 176.18575573 750.07269287 C176.18573995 748.58510184 176.18572422 747.09751081 176.18570852 745.60991979 C176.18563514 738.89379599 176.18554697 732.17767218 176.18545464 725.46154838 C176.18541351 722.4667527 176.18537337 719.47195702 176.18533332 716.47716133 C176.18531293 714.97821297 176.18529191 713.4792646 176.18527026 711.98031624 C176.18459016 664.59152925 176.19190537 617.20274974 176.20581055 569.81396484 C176.2093117 557.87559511 176.21278122 545.93722538 176.21607494 533.99885559 C176.21637925 532.89614752 176.21637925 532.89614752 176.21668971 531.77116252 C176.22290712 509.10445571 176.22667074 486.4377495 176.22793293 463.77104187 C176.22799286 462.7031773 176.22799286 462.7031773 176.22805399 461.6137397 C176.22890737 445.98365226 176.22916843 430.35356486 176.22888362 414.72347741 C176.22878714 409.13036134 176.22873509 403.53724526 176.22870489 397.94412919 C176.22869697 396.55275699 176.22868677 395.16138479 176.22867426 393.7700126 C176.22849813 371.62352332 176.23418836 349.47704045 176.24282808 327.33055301 C176.25173003 304.3952288 176.25329188 281.45991315 176.24651595 258.52458733 C176.24282206 245.30910038 176.2446479 232.09364148 176.25445829 218.8781575 C176.26046165 210.04398276 176.25915885 201.20982833 176.25198779 192.37565451 C176.24810932 187.34657655 176.24732192 182.31755285 176.25544515 177.28847873 C176.73717003 144.48782481 176.73717003 144.48782481 171.75 112.1875 C171.53456543 111.32060547 171.31913086 110.45371094 171.09716797 109.56054688 C166.53899037 91.92733948 158.48278942 76.14913205 147 62 C146.30132812 61.13503906 145.60265625 60.27007812 144.8828125 59.37890625 C110.99783169 19.59818702 49.09529517 8.82216529 0 2 C0 1.34 0 0.68 0 0 Z M363 18 C363 230.19 363 442.38 363 661 C568.54459106 672.29370976 568.54459106 672.29370976 740 584 C740.91531494 583.12553223 740.91531494 583.12553223 741.84912109 582.23339844 C750.22610786 574.19645274 757.85784013 565.93329619 764.78857422 556.6171875 C765.92239081 555.10360404 767.08711688 553.61331365 768.25390625 552.125 C786.49553159 528.6295255 799.78491449 501.82762257 810 474 C810.32693848 473.11425293 810.65387695 472.22850586 810.99072266 471.31591797 C844.52423896 379.1556588 840.78633232 267.83845398 799.80859375 178.86328125 C787.9972624 153.89925576 772.76525082 130.577635 754.05078125 110.234375 C752.13614309 108.14833114 750.28177042 106.02317954 748.4375 103.875 C742.46584394 97.03649064 735.95621568 90.8251237 729 85 C728.01128906 84.16082031 727.02257812 83.32164062 726.00390625 82.45703125 C622.50408118 -3.79282297 492.45738415 18 363 18 Z " fill="#2B5340" transform="translate(203,132)"/>
<path d="M0 0 C0.33 0 0.66 0 1 0 C1.08636719 1.12792969 1.17273438 2.25585938 1.26171875 3.41796875 C4.21242546 37.89230599 16.44052889 70.32786955 42.99609375 93.62890625 C77.24885755 121.58050518 123.81949616 131.95278814 166.56738281 138.35229492 C168.39221191 138.63423706 168.39221191 138.63423706 170.25390625 138.921875 C171.34002197 139.08268555 172.4261377 139.24349609 173.54516602 139.40917969 C174.35526123 139.60415039 175.16535645 139.79912109 176 140 C176.33 140.66 176.66 141.32 177 142 C-1.2 142 -179.4 142 -363 142 C-362.505 141.01 -362.505 141.01 -362 140 C-359.18139648 139.34912109 -359.18139648 139.34912109 -355.37109375 138.7734375 C-353.94489439 138.54892722 -352.51879187 138.32380115 -351.09277344 138.09814453 C-350.3347644 137.98102112 -349.57675537 137.86389771 -348.79577637 137.7432251 C-322.54100357 133.64376228 -296.81421295 127.65885494 -272 118 C-271.25911133 117.71302246 -270.51822266 117.42604492 -269.75488281 117.13037109 C-254.99482435 111.30581972 -240.94561714 103.50141472 -229 93 C-228.16082031 92.29230469 -227.32164062 91.58460937 -226.45703125 90.85546875 C-201.06096603 68.91726415 -189.91580328 36.36923761 -187.37011719 3.76757812 C-187.18690918 2.89262695 -187.18690918 2.89262695 -187 2 C-186.34 1.67 -185.68 1.34 -185 1 C-185 7.6 -185 14.2 -185 21 C-123.95 21 -62.9 21 0 21 C0 14.07 0 7.14 0 0 Z " fill="#2B523F" transform="translate(566,1273)"/>
<path d="M0 0 C61.05 0 122.1 0 185 0 C185 36.3 185 72.6 185 110 C123.95 110 62.9 110 0 110 C-0.33 103.73 -0.66 97.46 -1 91 C-1.33 90.01 -1.66 89.02 -2 88 C-2.06600796 85.98435864 -2.06872033 83.96643289 -2.03759766 81.94995117 C-2.02072906 80.69981735 -2.00386047 79.44968353 -1.98648071 78.16166687 C-1.96254445 76.78876394 -1.93839921 75.41586464 -1.9140625 74.04296875 C-1.89224765 72.62022949 -1.87080021 71.19748455 -1.84970093 69.7747345 C-1.80412355 66.77773862 -1.75495666 63.78082965 -1.703125 60.78393555 C-1.63803555 57.01184667 -1.58021633 53.23969448 -1.52509499 49.46744823 C-1.48133954 46.51642068 -1.43415123 43.56545501 -1.38599777 40.61449623 C-1.36363741 39.22877653 -1.34208818 37.84304341 -1.32149124 36.45729637 C-1.13647079 24.28425303 -0.5532907 12.17239538 0 0 Z " fill="#2C533F" transform="translate(381,1184)"/>
<path d="M0 0 C61.05 0 122.1 0 185 0 C185 11.55 185 23.1 185 35 C123.95 35 62.9 35 0 35 C0 23.45 0 11.9 0 0 Z " fill="#FADB58" transform="translate(381,1184)"/>
<path d="M0 0 C61.05 0 122.1 0 185 0 C185 11.22 185 22.44 185 34 C123.95 34 62.9 34 0 34 C0 22.78 0 11.56 0 0 Z " fill="#F47E37" transform="translate(381,1260)"/>
<path d="M0 0 C0 5.28 0 10.56 0 16 C-38.75112352 16.91065156 -77.47532025 17.13238591 -116.23449445 17.07202661 C-123.76390133 17.06052018 -131.29330956 17.05527043 -138.82272315 17.05032361 C-154.21515932 17.04008193 -169.60757652 17.02246853 -185 17 C-185 11.72 -185 6.44 -185 1 C-169.73829264 0.86655258 -154.47656266 0.73601623 -139.21480179 0.60884857 C-132.12056513 0.54967114 -125.02633811 0.48963516 -117.93212891 0.42724609 C-78.62030128 0.08214263 -39.3134142 -0.06999581 0 0 Z " fill="#F7D958" transform="translate(566,342)"/>
<path d="M0 0 C0.66 0 1.32 0 2 0 C2.433125 1.3921875 2.433125 1.3921875 2.875 2.8125 C3.8875 6.09791667 3.8875 6.09791667 6 9 C8.76508105 9.46766805 8.76508105 9.46766805 12.05444336 9.40405273 C13.96168434 9.42307899 13.96168434 9.42307899 15.90745544 9.44248962 C17.30158652 9.44043817 18.69571649 9.43745014 20.08984375 9.43359375 C21.51469676 9.4381528 22.93954756 9.44345754 24.36439514 9.44947815 C27.35296553 9.45842203 30.34126889 9.45597223 33.32983398 9.44604492 C37.16141664 9.4345582 40.9920773 9.45475425 44.82353878 9.48396206 C47.76695114 9.50230243 50.71014173 9.50203596 53.65359688 9.49632454 C55.0662115 9.49617103 56.47884088 9.5022399 57.89140129 9.51461601 C59.86627032 9.52947888 61.84129063 9.51624335 63.81616211 9.50170898 C65.50255043 9.50145973 65.50255043 9.50145973 67.2230072 9.50120544 C70.0983453 9.25647717 70.0983453 9.25647717 71.84352112 7.14051819 C73.13079959 4.75790402 73.62884053 2.67234821 74 0 C74.66 0 75.32 0 76 0 C76.07495152 5.1920263 76.12897508 10.38372787 76.16479492 15.57617188 C76.17974968 17.33729549 76.20012096 19.09838274 76.22631836 20.859375 C76.60306926 46.86257432 76.60306926 46.86257432 69 57 C63.83550112 61.19615534 59.39611296 61.6252182 52.80859375 61.38671875 C47.76011449 60.69158739 45.20054035 58.26914266 41.8125 54.6875 C38.78630918 50.20038948 37 46.44605175 37 41 C29.88611371 46.51406179 22.8171843 52.06979566 15.9375 57.875 C15.41454346 58.31432861 14.89158691 58.75365723 14.3527832 59.20629883 C9.06349916 63.70180618 4.83545074 67.58292727 2 74 C1.34 74 0.68 74 0 74 C-2.5001459 58.52524074 -2.5001459 58.52524074 1.39453125 53.03369141 C5.31119991 49.24821835 9.91289179 46.40725448 14.53076172 43.5546875 C18.67157245 40.9475407 22.57921832 38.04821624 26.5 35.125 C27.60299438 34.35760498 27.60299438 34.35760498 28.72827148 33.57470703 C29.40575439 33.07825684 30.0832373 32.58180664 30.78125 32.0703125 C31.38001953 31.64508301 31.97878906 31.21985352 32.59570312 30.78173828 C34.71730714 28.08989786 34.69828951 25.34001396 35 22 C30.92416823 22.04414945 26.84966377 22.11397426 22.7746582 22.20751953 C21.38871604 22.23572797 20.00261304 22.25694333 18.61645508 22.27099609 C16.62292596 22.29242421 14.62974954 22.34117014 12.63671875 22.390625 C11.43748779 22.41157227 10.23825684 22.43251953 9.00268555 22.45410156 C5.92678267 22.71966884 5.92678267 22.71966884 4.12817383 24.86621094 C2.87073153 27.24449392 2.36882983 29.34442525 2 32 C1.34 32 0.68 32 0 32 C0 21.44 0 10.88 0 0 Z " fill="#F9FAFA" transform="translate(424,723)"/>
<path d="M0 0 C0.66 0 1.32 0 2 0 C2.433125 1.3921875 2.433125 1.3921875 2.875 2.8125 C3.8875 6.09791667 3.8875 6.09791667 6 9 C8.76508105 9.46766805 8.76508105 9.46766805 12.05444336 9.40405273 C13.96168434 9.42307899 13.96168434 9.42307899 15.90745544 9.44248962 C17.30158652 9.44043817 18.69571649 9.43745014 20.08984375 9.43359375 C21.51469676 9.4381528 22.93954756 9.44345754 24.36439514 9.44947815 C27.35296553 9.45842203 30.34126889 9.45597223 33.32983398 9.44604492 C37.16141664 9.4345582 40.9920773 9.45475425 44.82353878 9.48396206 C47.76695114 9.50230243 50.71014173 9.50203596 53.65359688 9.49632454 C55.0662115 9.49617103 56.47884088 9.5022399 57.89140129 9.51461601 C59.86627032 9.52947888 61.84129063 9.51624335 63.81616211 9.50170898 C65.50255043 9.50145973 65.50255043 9.50145973 67.2230072 9.50120544 C70.0983453 9.25647717 70.0983453 9.25647717 71.84352112 7.14051819 C73.13079959 4.75790402 73.62884053 2.67234821 74 0 C74.66 0 75.32 0 76 0 C76.07495152 5.1920263 76.12897508 10.38372787 76.16479492 15.57617188 C76.17974968 17.33729549 76.20012096 19.09838274 76.22631836 20.859375 C76.60306926 46.86257432 76.60306926 46.86257432 69 57 C63.83550112 61.19615534 59.39611296 61.6252182 52.80859375 61.38671875 C47.76011449 60.69158739 45.20054035 58.26914266 41.8125 54.6875 C38.78630918 50.20038948 37 46.44605175 37 41 C29.88611371 46.51406179 22.8171843 52.06979566 15.9375 57.875 C15.41454346 58.31432861 14.89158691 58.75365723 14.3527832 59.20629883 C9.06349916 63.70180618 4.83545074 67.58292727 2 74 C1.34 74 0.68 74 0 74 C-2.5001459 58.52524074 -2.5001459 58.52524074 1.39453125 53.03369141 C5.31119991 49.24821835 9.91289179 46.40725448 14.53076172 43.5546875 C18.67157245 40.9475407 22.57921832 38.04821624 26.5 35.125 C27.60299438 34.35760498 27.60299438 34.35760498 28.72827148 33.57470703 C29.40575439 33.07825684 30.0832373 32.58180664 30.78125 32.0703125 C31.38001953 31.64508301 31.97878906 31.21985352 32.59570312 30.78173828 C34.71730714 28.08989786 34.69828951 25.34001396 35 22 C30.92416823 22.04414945 26.84966377 22.11397426 22.7746582 22.20751953 C21.38871604 22.23572797 20.00261304 22.25694333 18.61645508 22.27099609 C16.62292596 22.29242421 14.62974954 22.34117014 12.63671875 22.390625 C11.43748779 22.41157227 10.23825684 22.43251953 9.00268555 22.45410156 C5.92678267 22.71966884 5.92678267 22.71966884 4.12817383 24.86621094 C2.87073153 27.24449392 2.36882983 29.34442525 2 32 C1.34 32 0.68 32 0 32 C0 21.44 0 10.88 0 0 Z " fill="#F9FAFA" transform="translate(424,595)"/>
<path d="M0 0 C60.72 0 121.44 0 184 0 C184 4.95 184 9.9 184 15 C123.28 15 62.56 15 0 15 C0 10.05 0 5.1 0 0 Z " fill="#F47E37" transform="translate(381,270)"/>
<path d="M0 0 C7.6218345 3.90208752 12.28074018 8.84222055 15 17 C15.23828125 19.015625 15.23828125 19.015625 15.3125 21.25 C15.36857422 22.34054687 15.36857422 22.34054687 15.42578125 23.453125 C15 26 15 26 11 33 C21.395 32.505 21.395 32.505 32 32 C32.33 30.02 32.66 28.04 33 26 C33.99 26 34.98 26 36 26 C36.67364661 28.08108685 37.33866798 30.1649671 38 32.25 C38.37125 33.41015625 38.7425 34.5703125 39.125 35.765625 C40 39 40 39 40 43 C5.35 43.495 5.35 43.495 -30 44 C-30.33 46.31 -30.66 48.62 -31 51 C-31.66 51 -32.32 51 -33 51 C-34.00399524 48.37646482 -35.00334445 45.75132205 -36 43.125 C-36.28617187 42.37863281 -36.57234375 41.63226562 -36.8671875 40.86328125 C-39 35.2265625 -39 35.2265625 -39 33 C-36.03 32.505 -36.03 32.505 -33 32 C-33.61875 31.2575 -34.2375 30.515 -34.875 29.75 C-39.14877045 24.21923824 -39.80006007 19.89921933 -39 13 C-37.34132683 6.67700428 -33.73904382 3.6027438 -28.31640625 0.2265625 C-19.07538736 -4.6666583 -9.52624303 -4.07827852 0 0 Z " fill="#F8FAF9" transform="translate(462,908)"/>
<path d="M0 0 C9.59159632 4.52737662 13.69725837 14.62059875 17.3359375 23.96875 C18 26 18 26 18 28 C26.7533535 27.97730623 26.7533535 27.97730623 34 24 C34.59182248 20.52036905 34.60816859 17.21633719 33 14 C30.47855264 13.6836894 27.98448848 13.6204938 25.4453125 13.5390625 C23 13 23 13 21.16015625 11.1640625 C19.55022819 8.16103171 20.19390682 6.22437272 21 3 C23.84376759 2.09831759 25.99457901 1.57620965 28.81640625 2.765625 C33.57602526 5.8496114 36.47465893 9.52140811 38 15 C38.86692602 21.64047457 38.4859049 27.36775309 35.4609375 33.37890625 C32.38774982 36.78899418 28.50016411 38.14519934 24.01416016 38.43237305 C22.52278951 38.47335691 21.03094295 38.4991171 19.5390625 38.51171875 C18.74849457 38.52966995 17.95792664 38.54762115 17.1434021 38.56611633 C14.63732109 38.61996706 12.13142773 38.65403281 9.625 38.6875 C7.91794278 38.72069548 6.21091024 38.75518719 4.50390625 38.79101562 C0.33607347 38.87567852 -3.8317061 38.94260907 -8 39 C-9.2077558 42.62326739 -8.54311128 43.64146369 -7 47 C-9.25 46.875 -9.25 46.875 -12 46 C-14.57851642 43.00334578 -15.84701151 40.83293736 -16.5625 36.9375 C-15.80660868 32.99006755 -14.0383386 31.53194883 -11 29 C-10.34 28.67 -9.68 28.34 -9 28 C-9.78375 26.948125 -10.5675 25.89625 -11.375 24.8125 C-14.74643082 20.03710224 -16.57535987 16.09646518 -16.4609375 10.06640625 C-15.59891919 6.20193435 -12.88597483 3.57943346 -10 1 C-6.71206359 -0.64396821 -3.54023375 -0.6295134 0 0 Z " fill="#F6F7F6" transform="translate(439,855)"/>
<path d="M0 0 C6.02424191 3.77904474 10.1244897 8.41229147 12.1171875 15.328125 C13.01207455 22.15163878 12.19518156 27.69421935 8.1171875 33.328125 C5.01003572 36.67363363 1.54671982 39.11000361 -2.8828125 40.328125 C-4.8628125 40.328125 -6.8428125 40.328125 -8.8828125 40.328125 C-8.8828125 28.778125 -8.8828125 17.228125 -8.8828125 5.328125 C-19.39782241 7.08062665 -23.94226594 8.12866043 -31.3828125 14.453125 C-33.73909947 18.96934169 -33.63639869 23.3456765 -32.8828125 28.328125 C-31.80212989 30.73664185 -30.58774948 32.26153472 -28.8828125 34.328125 C-28.5528125 35.318125 -28.2228125 36.308125 -27.8828125 37.328125 C-25.96614583 38.49479167 -25.96614583 38.49479167 -23.8828125 39.328125 C-23.2228125 39.658125 -22.5628125 39.988125 -21.8828125 40.328125 C-21.8828125 40.988125 -21.8828125 41.648125 -21.8828125 42.328125 C-29.23378318 41.64232016 -33.08243663 37.64634964 -37.8828125 32.328125 C-41.85424743 26.50267835 -42.99193909 20.27171956 -41.8828125 13.328125 C-39.12073267 6.53801208 -33.91973181 1.03955135 -27.109375 -1.84765625 C-18.47383431 -4.05358735 -8.10914438 -3.87709933 0 0 Z " fill="#F7F9F8" transform="translate(464.8828125,804.671875)"/>
<path d="M0 0 C6.02424191 3.77904474 10.1244897 8.41229147 12.1171875 15.328125 C13.01207455 22.15163878 12.19518156 27.69421935 8.1171875 33.328125 C5.01003572 36.67363363 1.54671982 39.11000361 -2.8828125 40.328125 C-4.8628125 40.328125 -6.8428125 40.328125 -8.8828125 40.328125 C-8.8828125 28.778125 -8.8828125 17.228125 -8.8828125 5.328125 C-19.39782241 7.08062665 -23.94226594 8.12866043 -31.3828125 14.453125 C-33.73909947 18.96934169 -33.63639869 23.3456765 -32.8828125 28.328125 C-31.80212989 30.73664185 -30.58774948 32.26153472 -28.8828125 34.328125 C-28.5528125 35.318125 -28.2228125 36.308125 -27.8828125 37.328125 C-25.96614583 38.49479167 -25.96614583 38.49479167 -23.8828125 39.328125 C-23.2228125 39.658125 -22.5628125 39.988125 -21.8828125 40.328125 C-21.8828125 40.988125 -21.8828125 41.648125 -21.8828125 42.328125 C-29.23378318 41.64232016 -33.08243663 37.64634964 -37.8828125 32.328125 C-41.85424743 26.50267835 -42.99193909 20.27171956 -41.8828125 13.328125 C-39.12073267 6.53801208 -33.91973181 1.03955135 -27.109375 -1.84765625 C-18.47383431 -4.05358735 -8.10914438 -3.87709933 0 0 Z " fill="#F7F9F8" transform="translate(464.8828125,676.671875)"/>
<path d="M0 0 C2.54653747 2.24337824 3.7520602 3.56778301 4.33203125 6.91796875 C4.55755572 11.36998893 3.97813645 14.52550748 1 18 C-5.23939522 21.74034218 -10.88952379 21.52469375 -17.99536133 21.50097656 C-20.06146113 21.50000049 -22.12388498 21.54175422 -24.18945312 21.5859375 C-25.49978516 21.58851563 -26.81011719 21.59109375 -28.16015625 21.59375 C-29.94885132 21.60438477 -29.94885132 21.60438477 -31.77368164 21.61523438 C-35.9163434 20.82526028 -37.39347118 19.24348632 -40 16 C-41.06349791 11.70221728 -41.00077947 7.10757371 -39.078125 3.05859375 C-30.21655587 -8.42116626 -10.89182765 -7.70086251 0 0 Z " fill="#2D5542" transform="translate(469,920)"/>
<path d="M0 0 C4.23582327 -0.04938628 8.47149465 -0.08571263 12.70751953 -0.10986328 C14.14895547 -0.11992963 15.59037095 -0.1335838 17.03173828 -0.15087891 C19.10193934 -0.17510012 21.17187076 -0.18647641 23.2421875 -0.1953125 C25.11173096 -0.21102295 25.11173096 -0.21102295 27.01904297 -0.22705078 C30 0 30 0 32 2 C32.84452533 8.5149097 32.49003286 15.299613 29 21 C25.27137734 25.08518494 21.78636218 26.85113649 16.25 27.3125 C11.48202498 27.24225359 8.84740114 25.7912518 5 23 C0.74606356 17.71925132 -0.12141567 11.31033622 -0.05078125 4.73046875 C-0.04344971 3.84125732 -0.03611816 2.9520459 -0.02856445 2.03588867 C-0.01913818 1.36404541 -0.00971191 0.69220215 0 0 Z " fill="#2D5542" transform="translate(464,745)"/>
<path d="M0 0 C4.23582327 -0.04938628 8.47149465 -0.08571263 12.70751953 -0.10986328 C14.14895547 -0.11992963 15.59037095 -0.1335838 17.03173828 -0.15087891 C19.10193934 -0.17510012 21.17187076 -0.18647641 23.2421875 -0.1953125 C25.11173096 -0.21102295 25.11173096 -0.21102295 27.01904297 -0.22705078 C30 0 30 0 32 2 C32.84452533 8.5149097 32.49003286 15.299613 29 21 C25.27137734 25.08518494 21.78636218 26.85113649 16.25 27.3125 C11.48202498 27.24225359 8.84740114 25.7912518 5 23 C0.74606356 17.71925132 -0.12141567 11.31033622 -0.05078125 4.73046875 C-0.04344971 3.84125732 -0.03611816 2.9520459 -0.02856445 2.03588867 C-0.01913818 1.36404541 -0.00971191 0.69220215 0 0 Z " fill="#2D5542" transform="translate(464,617)"/>
<path d="M0 0 C5.24333778 2.44689096 6.8516859 7.38366925 9.08203125 12.44140625 C10 15 10 15 10 18 C3.4 18 -3.2 18 -10 18 C-14.8358209 9.53731343 -14.8358209 9.53731343 -14 4 C-10.95976989 -1.38949883 -5.50071931 -0.83317084 0 0 Z " fill="#325947" transform="translate(444,866)"/>
<path d="M0 0 C9 2 9 2 11.5 4.5 C13.9896069 8.64934483 14.41671839 11.08272304 14 16 C11.32364228 20.71038958 8.03497726 22.26064422 3 24 C2.01 24 1.02 24 0 24 C0 16.08 0 8.16 0 0 Z " fill="#395E4D" transform="translate(459,810)"/>
<path d="M0 0 C9 2 9 2 11.5 4.5 C13.9896069 8.64934483 14.41671839 11.08272304 14 16 C11.32364228 20.71038958 8.03497726 22.26064422 3 24 C2.01 24 1.02 24 0 24 C0 16.08 0 8.16 0 0 Z " fill="#395E4D" transform="translate(459,682)"/>
<path d="M0 0 C4.78930357 2.85077593 7.44984947 6.71424083 9 12 C9.31083192 16.02601338 9.24169007 19.97183219 9 24 C8.67 24 8.34 24 8 24 C7.67 22.02 7.34 20.04 7 18 C6.67 18 6.34 18 6 18 C5.34 15.69 4.68 13.38 4 11 C3.31292969 10.97421875 2.62585938 10.9484375 1.91796875 10.921875 C1.01691406 10.86515625 0.11585938 10.8084375 -0.8125 10.75 C-2.15248047 10.68039062 -2.15248047 10.68039062 -3.51953125 10.609375 C-6 10 -6 10 -7.8359375 8.15234375 C-9.47813902 5.11592416 -8.93751141 3.2452318 -8 0 C-5.0233079 -1.48834605 -3.18307201 -0.8113713 0 0 Z " fill="#E9EDEB" transform="translate(468,858)"/>
</svg>
