<svg xmlns="http://www.w3.org/2000/svg" xmlns:xlink="http://www.w3.org/1999/xlink" width="2000" zoomAndPan="magnify" viewBox="0 0 1500 1499.999933" height="2000" preserveAspectRatio="xMidYMid meet" version="1.0"><defs><g/><clipPath id="67d83033de"><path d="M 100.511719 100.511719 L 1399.488281 100.511719 L 1399.488281 1399.488281 L 100.511719 1399.488281 Z M 100.511719 100.511719 " clip-rule="nonzero"/></clipPath><clipPath id="6d2d74fd0f"><path d="M 171.011719 100.511719 L 1328.988281 100.511719 C 1347.683594 100.511719 1365.617188 107.941406 1378.835938 121.160156 C 1392.058594 134.382812 1399.488281 152.316406 1399.488281 171.011719 L 1399.488281 1328.988281 C 1399.488281 1347.683594 1392.058594 1365.617188 1378.835938 1378.835938 C 1365.617188 1392.058594 1347.683594 1399.488281 1328.988281 1399.488281 L 171.011719 1399.488281 C 152.316406 1399.488281 134.382812 1392.058594 121.164062 1378.835938 C 107.941406 1365.617188 100.511719 1347.683594 100.511719 1328.988281 L 100.511719 171.011719 C 100.511719 152.316406 107.941406 134.382812 121.164062 121.160156 C 134.382812 107.941406 152.316406 100.511719 171.011719 100.511719 Z M 171.011719 100.511719 " clip-rule="nonzero"/></clipPath><clipPath id="76c480bdae"><path d="M 0.511719 0.511719 L 1299.488281 0.511719 L 1299.488281 1299.488281 L 0.511719 1299.488281 Z M 0.511719 0.511719 " clip-rule="nonzero"/></clipPath><clipPath id="6a10230e11"><path d="M 71.011719 0.511719 L 1228.988281 0.511719 C 1247.683594 0.511719 1265.617188 7.941406 1278.835938 21.160156 C 1292.058594 34.382812 1299.488281 52.316406 1299.488281 71.011719 L 1299.488281 1228.988281 C 1299.488281 1247.683594 1292.058594 1265.617188 1278.835938 1278.835938 C 1265.617188 1292.058594 1247.683594 1299.488281 1228.988281 1299.488281 L 71.011719 1299.488281 C 52.316406 1299.488281 34.382812 1292.058594 21.164062 1278.835938 C 7.941406 1265.617188 0.511719 1247.683594 0.511719 1228.988281 L 0.511719 71.011719 C 0.511719 52.316406 7.941406 34.382812 21.164062 21.160156 C 34.382812 7.941406 52.316406 0.511719 71.011719 0.511719 Z M 71.011719 0.511719 " clip-rule="nonzero"/></clipPath><clipPath id="cbfec27356"><rect x="0" width="1300" y="0" height="1300"/></clipPath><clipPath id="7bce78a471"><path d="M 100.511719 100.511719 L 1399.511719 100.511719 L 1399.511719 1399.511719 L 100.511719 1399.511719 Z M 100.511719 100.511719 " clip-rule="nonzero"/></clipPath><clipPath id="aa67a86424"><path d="M 171.011719 100.511719 L 1328.980469 100.511719 C 1347.675781 100.511719 1365.609375 107.941406 1378.828125 121.160156 C 1392.050781 134.382812 1399.476562 152.316406 1399.476562 171.011719 L 1399.476562 1328.976562 C 1399.476562 1347.675781 1392.050781 1365.609375 1378.828125 1378.828125 C 1365.609375 1392.050781 1347.675781 1399.476562 1328.980469 1399.476562 L 171.011719 1399.476562 C 152.316406 1399.476562 134.382812 1392.050781 121.160156 1378.828125 C 107.941406 1365.609375 100.511719 1347.675781 100.511719 1328.976562 L 100.511719 171.011719 C 100.511719 152.316406 107.941406 134.382812 121.160156 121.160156 C 134.382812 107.941406 152.316406 100.511719 171.011719 100.511719 Z M 171.011719 100.511719 " clip-rule="nonzero"/></clipPath><clipPath id="ef13f4acff"><path d="M 416 394.082031 L 1078 394.082031 L 1078 1084.082031 L 416 1084.082031 Z M 416 394.082031 " clip-rule="nonzero"/></clipPath></defs><rect x="-150" width="1800" fill="#ffffff" y="-149.999993" height="1799.99992" fill-opacity="1"/><rect x="-150" width="1800" fill="#ffffff" y="-149.999993" height="1799.99992" fill-opacity="1"/><g clip-path="url(#67d83033de)"><g clip-path="url(#6d2d74fd0f)"><g transform="matrix(1, 0, 0, 1, 100, 100)"><g clip-path="url(#cbfec27356)"><g clip-path="url(#76c480bdae)"><g clip-path="url(#6a10230e11)"><path fill="#fff6ea" d="M 0.511719 0.511719 L 1299.488281 0.511719 L 1299.488281 1299.488281 L 0.511719 1299.488281 Z M 0.511719 0.511719 " fill-opacity="1" fill-rule="nonzero"/></g></g></g></g></g></g><g clip-path="url(#7bce78a471)"><g clip-path="url(#aa67a86424)"><path stroke-linecap="butt" transform="matrix(0.75, 0, 0, 0.75, 100.513222, 100.513097)" fill="none" stroke-linejoin="miter" d="M 93.997997 -0.00183759 L 1637.956365 -0.00183759 C 1662.883449 -0.00183759 1686.794908 9.904413 1704.419908 27.529413 C 1722.050117 45.159622 1731.951159 69.071081 1731.951159 93.998164 L 1731.951159 1637.951324 C 1731.951159 1662.883616 1722.050117 1686.795075 1704.419908 1704.420075 C 1686.794908 1722.050284 1662.883449 1731.951326 1637.956365 1731.951326 L 93.997997 1731.951326 C 69.070913 1731.951326 45.159455 1722.050284 27.529246 1704.420075 C 9.904245 1686.795075 -0.00200472 1662.883616 -0.00200472 1637.951324 L -0.00200472 93.998164 C -0.00200472 69.071081 9.904245 45.159622 27.529246 27.529413 C 45.159455 9.904413 69.070913 -0.00183759 93.997997 -0.00183759 Z M 93.997997 -0.00183759 " stroke="#6d5353" stroke-width="40" stroke-opacity="1" stroke-miterlimit="4"/></g></g><g clip-path="url(#ef13f4acff)"><path fill="#6d5353" d="M 1074.875 858.945312 C 1070.109375 844.875 1058.734375 834.65625 1042.84375 830.175781 C 1025.816406 825.375 1003.695312 826.898438 977.09375 834.703125 L 856.695312 870.023438 C 856.230469 869.09375 855.734375 868.171875 855.210938 867.261719 C 848.410156 855.480469 837.472656 847.070312 824.410156 843.570312 L 738.703125 820.601562 C 675.945312 776.648438 642.3125 789.285156 592.929688 813.433594 L 524.027344 846.40625 L 519.574219 835.707031 C 513.316406 820.671875 495.988281 813.527344 480.953125 819.769531 L 434.617188 839.011719 C 427.214844 842.085938 421.6875 847.625 418.628906 855.035156 C 415.574219 862.445312 415.585938 870.273438 418.667969 877.671875 L 497.128906 1066.078125 C 501.851562 1077.417969 512.871094 1084.269531 524.457031 1084.269531 C 528.226562 1084.269531 532.058594 1083.542969 535.75 1082.011719 L 582.085938 1062.773438 C 589.488281 1059.699219 595.015625 1054.15625 598.070312 1046.75 C 601.128906 1039.339844 601.117188 1031.511719 598.035156 1024.113281 L 593.148438 1012.371094 L 622.917969 997.285156 C 633.472656 991.933594 644.417969 991.023438 656.367188 994.492188 L 752.746094 1022.476562 C 759.882812 1024.550781 767.257812 1025.4375 774.738281 1025.4375 C 800.429688 1025.4375 827.324219 1014.96875 849.9375 1006.167969 C 851.929688 1005.394531 1036.675781 934.191406 1036.675781 934.191406 C 1066.160156 922.832031 1084.367188 886.96875 1074.875 858.945312 Z M 579.988281 1039.289062 C 578.898438 1041.9375 577.230469 1043.609375 574.582031 1044.707031 L 528.246094 1063.949219 C 523.164062 1066.058594 517.304688 1063.640625 515.183594 1058.558594 L 436.722656 870.148438 C 435.621094 867.503906 435.617188 865.144531 436.707031 862.496094 C 437.800781 859.847656 439.472656 858.175781 442.117188 857.074219 L 488.453125 837.835938 C 489.703125 837.316406 490.996094 837.070312 492.273438 837.070312 C 496.1875 837.070312 499.917969 839.390625 501.515625 843.222656 L 579.976562 1031.632812 C 581.078125 1034.277344 581.082031 1036.636719 579.988281 1039.289062 Z M 1029.644531 915.941406 C 1029.644531 915.941406 844.855469 987.160156 842.84375 987.941406 C 816.402344 998.230469 783.496094 1011.039062 758.199219 1003.691406 L 661.820312 975.710938 C 645.113281 970.859375 629.050781 972.25 614.074219 979.835938 L 585.605469 994.265625 L 531.558594 864.488281 L 601.445312 831.046875 C 647.40625 808.570312 673.941406 798.652344 728.835938 837.578125 C 729.78125 838.25 730.839844 838.75 731.960938 839.050781 L 819.347656 862.464844 C 827.363281 864.613281 834.082031 869.789062 838.269531 877.042969 C 842.457031 884.292969 843.578125 892.703125 841.433594 900.71875 C 839.285156 908.730469 834.109375 915.449219 826.855469 919.636719 C 819.605469 923.824219 811.199219 924.949219 803.179688 922.800781 L 687.046875 891.683594 C 681.832031 890.289062 676.464844 893.382812 675.066406 898.597656 C 673.671875 903.816406 676.765625 909.179688 681.984375 910.578125 L 798.121094 941.695312 C 811.179688 945.195312 824.859375 943.375 836.636719 936.578125 C 848.414062 929.777344 856.824219 918.839844 860.324219 905.78125 C 861.824219 900.191406 862.347656 894.492188 861.925781 888.875 L 982.601562 853.472656 C 1022.339844 841.816406 1049.910156 846.207031 1056.347656 865.21875 C 1062.460938 883.269531 1049.234375 908.390625 1029.644531 915.941406 Z M 753.578125 702.671875 C 827.46875 702.671875 887.582031 642.558594 887.582031 568.667969 C 887.582031 494.777344 827.46875 434.660156 753.578125 434.660156 C 679.6875 434.660156 619.570312 494.777344 619.570312 568.667969 C 619.570312 642.558594 679.6875 702.671875 753.578125 702.671875 Z M 753.578125 454.222656 C 816.683594 454.222656 868.019531 505.558594 868.019531 568.667969 C 868.019531 631.773438 816.683594 683.113281 753.578125 683.113281 C 690.472656 683.113281 639.132812 631.769531 639.132812 568.667969 C 639.132812 505.5625 690.472656 454.222656 753.578125 454.222656 Z M 710.398438 539.390625 C 710.398438 520.691406 724.597656 504.980469 743.628906 500.847656 L 743.402344 491.414062 C 743.273438 486.015625 747.546875 481.535156 752.945312 481.402344 C 758.386719 481.292969 762.828125 485.546875 762.957031 490.949219 L 763.199219 501.09375 C 773.570312 503.597656 785.859375 509.578125 791.378906 517.976562 C 794.34375 522.492188 793.089844 528.554688 788.574219 531.519531 C 784.058594 534.488281 777.996094 533.230469 775.03125 528.71875 C 772.382812 524.6875 760.152344 519.347656 753.578125 519.347656 C 740.554688 519.347656 729.960938 528.335938 729.957031 539.390625 C 729.957031 550.441406 740.554688 559.433594 753.578125 559.433594 C 777.386719 559.433594 796.753906 577.199219 796.753906 599.039062 C 796.753906 617.726562 782.566406 633.4375 763.546875 637.574219 L 763.75 645.914062 C 763.878906 651.3125 759.609375 655.796875 754.207031 655.925781 C 754.128906 655.929688 754.046875 655.929688 753.96875 655.929688 C 748.675781 655.929688 744.324219 651.707031 744.195312 646.386719 L 743.988281 637.746094 C 732.9375 635.554688 725.773438 629.617188 718.925781 623.15625 C 714.992188 619.449219 714.816406 613.261719 718.523438 609.332031 C 722.226562 605.402344 728.417969 605.222656 732.347656 608.929688 C 740.289062 616.421875 744.691406 619.082031 753.578125 619.082031 C 766.601562 619.082031 777.195312 610.089844 777.195312 599.035156 C 777.195312 587.984375 766.601562 578.992188 753.578125 578.992188 C 729.765625 578.996094 710.398438 561.230469 710.398438 539.390625 Z M 753.578125 743.25 C 849.84375 743.25 928.160156 664.933594 928.160156 568.667969 C 928.160156 472.398438 849.84375 394.082031 753.578125 394.082031 C 657.3125 394.082031 578.992188 472.402344 578.992188 568.667969 C 578.992188 664.933594 657.308594 743.25 753.578125 743.25 Z M 753.578125 413.640625 C 839.058594 413.640625 908.601562 483.183594 908.601562 568.667969 C 908.601562 654.148438 839.058594 723.691406 753.578125 723.691406 C 668.097656 723.691406 598.554688 654.148438 598.554688 568.667969 C 598.554688 483.183594 668.097656 413.640625 753.578125 413.640625 Z M 753.578125 413.640625 " fill-opacity="1" fill-rule="nonzero"/></g><g fill="#6d5353" fill-opacity="1"><g transform="translate(440.245221, 290.999955)"><g><path d="M 15.53125 -7.625 C 15.726562 -8.300781 15.921875 -10.59375 16.109375 -14.5 C 16.304688 -18.40625 16.40625 -23.289062 16.40625 -29.15625 L 16.40625 -56.6875 C 16.40625 -63.132812 16.304688 -68.285156 16.109375 -72.140625 C 15.921875 -76.003906 15.726562 -78.226562 15.53125 -78.8125 L 6.59375 -80.28125 L 6.890625 -85.984375 L 41.75 -85.984375 C 51.21875 -85.984375 58.441406 -84.222656 63.421875 -80.703125 C 68.410156 -77.191406 70.90625 -72.066406 70.90625 -65.328125 C 70.90625 -59.960938 68.78125 -55.421875 64.53125 -51.703125 C 60.28125 -47.992188 54.832031 -45.894531 48.1875 -45.40625 L 46.4375 -46.4375 C 55.8125 -46.144531 62.960938 -44.117188 67.890625 -40.359375 C 72.828125 -36.597656 75.296875 -31.394531 75.296875 -24.75 C 75.296875 -17.238281 72.023438 -11.234375 65.484375 -6.734375 C 58.941406 -2.242188 50.050781 0 38.8125 0 L 6.890625 0 L 6.59375 -5.5625 Z M 28.71875 -25.921875 C 28.71875 -21.628906 28.765625 -17.75 28.859375 -14.28125 C 28.953125 -10.8125 29.050781 -8.640625 29.15625 -7.765625 C 30.425781 -7.566406 32.132812 -7.34375 34.28125 -7.09375 C 36.425781 -6.851562 38.132812 -6.734375 39.40625 -6.734375 C 46.925781 -6.734375 52.566406 -8.097656 56.328125 -10.828125 C 60.085938 -13.566406 61.96875 -17.722656 61.96875 -23.296875 C 61.96875 -29.054688 59.988281 -33.375 56.03125 -36.25 C 52.070312 -39.132812 46.140625 -40.578125 38.234375 -40.578125 C 34.523438 -40.578125 31.960938 -40.578125 30.546875 -40.578125 C 29.128906 -40.578125 27.882812 -40.476562 26.8125 -40.28125 L 26.8125 -47.90625 C 28.664062 -47.800781 30.421875 -47.722656 32.078125 -47.671875 C 33.742188 -47.628906 35.550781 -47.609375 37.5 -47.609375 C 43.945312 -47.609375 48.898438 -49.023438 52.359375 -51.859375 C 55.828125 -54.691406 57.5625 -58.695312 57.5625 -63.875 C 57.5625 -68.945312 55.953125 -72.828125 52.734375 -75.515625 C 49.515625 -78.203125 44.875 -79.546875 38.8125 -79.546875 L 29 -79.546875 C 28.90625 -78.859375 28.832031 -76.660156 28.78125 -72.953125 C 28.738281 -69.242188 28.71875 -65.09375 28.71875 -60.5 Z M 28.71875 -25.921875 "/></g></g><g transform="translate(522.276464, 290.999955)"><g><path d="M 66.65625 -10.25 L 75.875 -7.90625 L 75.875 -3.078125 L 56.84375 1.609375 L 54.640625 -0.296875 L 54.78125 -9.515625 L 54.34375 -9.671875 C 51.507812 -5.660156 48.601562 -2.847656 45.625 -1.234375 C 42.644531 0.367188 39.445312 1.171875 36.03125 1.171875 C 29.488281 1.171875 24.019531 -0.851562 19.625 -4.90625 C 15.226562 -8.957031 13.03125 -15.035156 13.03125 -23.140625 L 13.03125 -35.75 C 13.03125 -38.382812 12.957031 -41.019531 12.8125 -43.65625 C 12.664062 -46.289062 12.5 -48.925781 12.3125 -51.5625 L 2.34375 -53.609375 L 2.34375 -58.453125 L 22.265625 -63.875 L 24.90625 -61.53125 C 24.707031 -58.5 24.554688 -55.273438 24.453125 -51.859375 C 24.359375 -48.441406 24.3125 -44.875 24.3125 -41.15625 L 24.171875 -25.046875 C 24.171875 -18.992188 25.585938 -14.671875 28.421875 -12.078125 C 31.253906 -9.492188 34.867188 -8.203125 39.265625 -8.203125 C 41.898438 -8.203125 44.582031 -8.882812 47.3125 -10.25 C 50.050781 -11.625 52.445312 -13.96875 54.5 -17.28125 L 54.5 -34.28125 C 54.5 -36.425781 54.472656 -38.546875 54.421875 -40.640625 C 54.367188 -42.742188 54.289062 -44.75 54.1875 -46.65625 C 54.09375 -48.5625 53.953125 -50.195312 53.765625 -51.5625 L 43.0625 -53.609375 L 43.0625 -58.453125 L 63.71875 -63.875 L 65.921875 -61.8125 C 65.816406 -59.082031 65.738281 -56.664062 65.6875 -54.5625 C 65.644531 -52.46875 65.625 -50.367188 65.625 -48.265625 C 65.625 -46.171875 65.625 -43.753906 65.625 -41.015625 L 65.625 -30.609375 C 65.625 -25.242188 65.742188 -20.925781 65.984375 -17.65625 C 66.234375 -14.382812 66.457031 -11.914062 66.65625 -10.25 Z M 66.65625 -10.25 "/></g></g><g transform="translate(601.817473, 290.999955)"><g><path d="M 32.078125 0.59375 L 6.296875 -55.515625 L -0.59375 -57.71875 L -0.140625 -62.984375 L 28.265625 -62.984375 L 28.5625 -57.71875 L 19.484375 -55.515625 L 39.40625 -10.984375 Z M 69.578125 -62.984375 L 70.015625 -57.71875 L 63.140625 -55.515625 L 38.234375 -3.21875 L 26.515625 21.09375 C 24.367188 25.582031 22.097656 28.753906 19.703125 30.609375 C 17.304688 32.472656 14.546875 33.40625 11.421875 33.40625 C 9.078125 33.40625 7.125 32.816406 5.5625 31.640625 C 4 30.472656 3.21875 28.957031 3.21875 27.09375 C 3.21875 25.632812 3.800781 24.269531 4.96875 23 C 6.144531 21.726562 7.957031 20.703125 10.40625 19.921875 L 24.03125 15.828125 L 17.28125 23.140625 L 33.546875 -8.203125 L 35.15625 -10.84375 L 54.203125 -55.515625 L 45.125 -57.71875 L 45.40625 -62.984375 Z M 69.578125 -62.984375 "/></g></g><g transform="translate(670.958092, 290.999955)"><g/></g><g transform="translate(699.083089, 290.999955)"><g><path d="M 15.53125 -7.625 C 15.726562 -8.300781 15.921875 -10.59375 16.109375 -14.5 C 16.304688 -18.40625 16.40625 -23.289062 16.40625 -29.15625 L 16.40625 -56.6875 C 16.40625 -63.132812 16.304688 -68.285156 16.109375 -72.140625 C 15.921875 -76.003906 15.726562 -78.226562 15.53125 -78.8125 L 6.59375 -80.28125 L 6.890625 -85.984375 L 41.75 -85.984375 C 51.21875 -85.984375 58.441406 -84.222656 63.421875 -80.703125 C 68.410156 -77.191406 70.90625 -72.066406 70.90625 -65.328125 C 70.90625 -59.960938 68.78125 -55.421875 64.53125 -51.703125 C 60.28125 -47.992188 54.832031 -45.894531 48.1875 -45.40625 L 46.4375 -46.4375 C 55.8125 -46.144531 62.960938 -44.117188 67.890625 -40.359375 C 72.828125 -36.597656 75.296875 -31.394531 75.296875 -24.75 C 75.296875 -17.238281 72.023438 -11.234375 65.484375 -6.734375 C 58.941406 -2.242188 50.050781 0 38.8125 0 L 6.890625 0 L 6.59375 -5.5625 Z M 28.71875 -25.921875 C 28.71875 -21.628906 28.765625 -17.75 28.859375 -14.28125 C 28.953125 -10.8125 29.050781 -8.640625 29.15625 -7.765625 C 30.425781 -7.566406 32.132812 -7.34375 34.28125 -7.09375 C 36.425781 -6.851562 38.132812 -6.734375 39.40625 -6.734375 C 46.925781 -6.734375 52.566406 -8.097656 56.328125 -10.828125 C 60.085938 -13.566406 61.96875 -17.722656 61.96875 -23.296875 C 61.96875 -29.054688 59.988281 -33.375 56.03125 -36.25 C 52.070312 -39.132812 46.140625 -40.578125 38.234375 -40.578125 C 34.523438 -40.578125 31.960938 -40.578125 30.546875 -40.578125 C 29.128906 -40.578125 27.882812 -40.476562 26.8125 -40.28125 L 26.8125 -47.90625 C 28.664062 -47.800781 30.421875 -47.722656 32.078125 -47.671875 C 33.742188 -47.628906 35.550781 -47.609375 37.5 -47.609375 C 43.945312 -47.609375 48.898438 -49.023438 52.359375 -51.859375 C 55.828125 -54.691406 57.5625 -58.695312 57.5625 -63.875 C 57.5625 -68.945312 55.953125 -72.828125 52.734375 -75.515625 C 49.515625 -78.203125 44.875 -79.546875 38.8125 -79.546875 L 29 -79.546875 C 28.90625 -78.859375 28.832031 -76.660156 28.78125 -72.953125 C 28.738281 -69.242188 28.71875 -65.09375 28.71875 -60.5 Z M 28.71875 -25.921875 "/></g></g><g transform="translate(781.114332, 290.999955)"><g><path d="M 37.640625 1.171875 C 31.296875 1.171875 25.753906 -0.191406 21.015625 -2.921875 C 16.285156 -5.660156 12.597656 -9.492188 9.953125 -14.421875 C 7.316406 -19.359375 6 -25 6 -31.34375 C 6 -37.988281 7.441406 -43.75 10.328125 -48.625 C 13.210938 -53.507812 17.117188 -57.316406 22.046875 -60.046875 C 26.972656 -62.785156 32.367188 -64.15625 38.234375 -64.15625 C 44.285156 -64.15625 49.554688 -62.8125 54.046875 -60.125 C 58.546875 -57.445312 62.0625 -53.691406 64.59375 -48.859375 C 67.132812 -44.023438 68.40625 -38.382812 68.40625 -31.9375 C 68.40625 -25.78125 67.035156 -20.1875 64.296875 -15.15625 C 61.566406 -10.132812 57.882812 -6.15625 53.25 -3.21875 C 48.613281 -0.289062 43.410156 1.171875 37.640625 1.171875 Z M 39.109375 -5.71875 C 42.429688 -5.71875 45.3125 -6.71875 47.75 -8.71875 C 50.195312 -10.71875 52.101562 -13.5 53.46875 -17.0625 C 54.832031 -20.625 55.515625 -24.703125 55.515625 -29.296875 C 55.515625 -37.691406 53.78125 -44.5 50.3125 -49.71875 C 46.851562 -54.945312 42.289062 -57.5625 36.625 -57.5625 C 31.351562 -57.5625 27.128906 -55.390625 23.953125 -51.046875 C 20.773438 -46.703125 19.1875 -40.867188 19.1875 -33.546875 C 19.1875 -28.078125 20.039062 -23.242188 21.75 -19.046875 C 23.457031 -14.847656 25.828125 -11.578125 28.859375 -9.234375 C 31.890625 -6.890625 35.304688 -5.71875 39.109375 -5.71875 Z M 39.109375 -5.71875 "/></g></g><g transform="translate(855.528388, 290.999955)"><g><path d="M 37.640625 1.171875 C 31.296875 1.171875 25.753906 -0.191406 21.015625 -2.921875 C 16.285156 -5.660156 12.597656 -9.492188 9.953125 -14.421875 C 7.316406 -19.359375 6 -25 6 -31.34375 C 6 -37.988281 7.441406 -43.75 10.328125 -48.625 C 13.210938 -53.507812 17.117188 -57.316406 22.046875 -60.046875 C 26.972656 -62.785156 32.367188 -64.15625 38.234375 -64.15625 C 44.285156 -64.15625 49.554688 -62.8125 54.046875 -60.125 C 58.546875 -57.445312 62.0625 -53.691406 64.59375 -48.859375 C 67.132812 -44.023438 68.40625 -38.382812 68.40625 -31.9375 C 68.40625 -25.78125 67.035156 -20.1875 64.296875 -15.15625 C 61.566406 -10.132812 57.882812 -6.15625 53.25 -3.21875 C 48.613281 -0.289062 43.410156 1.171875 37.640625 1.171875 Z M 39.109375 -5.71875 C 42.429688 -5.71875 45.3125 -6.71875 47.75 -8.71875 C 50.195312 -10.71875 52.101562 -13.5 53.46875 -17.0625 C 54.832031 -20.625 55.515625 -24.703125 55.515625 -29.296875 C 55.515625 -37.691406 53.78125 -44.5 50.3125 -49.71875 C 46.851562 -54.945312 42.289062 -57.5625 36.625 -57.5625 C 31.351562 -57.5625 27.128906 -55.390625 23.953125 -51.046875 C 20.773438 -46.703125 19.1875 -40.867188 19.1875 -33.546875 C 19.1875 -28.078125 20.039062 -23.242188 21.75 -19.046875 C 23.457031 -14.847656 25.828125 -11.578125 28.859375 -9.234375 C 31.890625 -6.890625 35.304688 -5.71875 39.109375 -5.71875 Z M 39.109375 -5.71875 "/></g></g><g transform="translate(929.942444, 290.999955)"><g><path d="M 5.28125 0 L 4.984375 -5.28125 L 13.328125 -7.46875 C 13.429688 -8.351562 13.53125 -9.914062 13.625 -12.15625 C 13.71875 -14.40625 13.8125 -17.210938 13.90625 -20.578125 C 14.007812 -23.953125 14.0625 -27.738281 14.0625 -31.9375 L 14.0625 -53.171875 C 14.0625 -56.785156 14.035156 -60.546875 13.984375 -64.453125 C 13.941406 -68.359375 13.894531 -72.066406 13.84375 -75.578125 C 13.789062 -79.097656 13.71875 -82.101562 13.625 -84.59375 C 13.53125 -87.082031 13.484375 -88.71875 13.484375 -89.5 L 2.640625 -90.96875 L 2.34375 -95.65625 L 23 -101.65625 L 25.921875 -99.609375 C 25.734375 -96.390625 25.613281 -93.164062 25.5625 -89.9375 C 25.507812 -86.71875 25.4375 -83.421875 25.34375 -80.046875 C 25.25 -76.679688 25.203125 -73.117188 25.203125 -69.359375 C 25.203125 -65.597656 25.203125 -61.519531 25.203125 -57.125 L 25.046875 -21.234375 C 25.046875 -18.703125 25.09375 -16.484375 25.1875 -14.578125 C 25.289062 -12.671875 25.390625 -11.128906 25.484375 -9.953125 C 25.585938 -8.785156 25.640625 -7.957031 25.640625 -7.46875 L 34.71875 -5.28125 L 34.421875 0 Z M 70.90625 0 L 54.203125 0 C 52.441406 -2.34375 51.046875 -4.097656 50.015625 -5.265625 C 48.992188 -6.441406 47.992188 -7.566406 47.015625 -8.640625 L 26.953125 -30.46875 L 22.859375 -30.46875 L 23 -33.984375 L 28.5625 -35.59375 L 48.921875 -55.8125 L 39.265625 -57.5625 L 39.546875 -62.984375 L 69 -62.984375 L 69.28125 -57.5625 L 59.625 -55.8125 L 33.40625 -32.234375 L 35.59375 -37.5 L 56.25 -15.234375 C 57.425781 -13.867188 58.84375 -12.378906 60.5 -10.765625 C 62.15625 -9.148438 63.570312 -7.804688 64.75 -6.734375 L 71.34375 -5.421875 Z M 70.90625 0 "/></g></g></g><g fill="#6d5353" fill-opacity="1"><g transform="translate(1000.840877, 290.999955)"><g><path d="M 28.71875 1.171875 C 25.101562 1.171875 21.488281 0.757812 17.875 -0.0625 C 14.257812 -0.894531 11.179688 -2 8.640625 -3.375 L 7.90625 -19.046875 L 15.09375 -19.046875 L 18.015625 -8.5 C 21.242188 -6.15625 25.148438 -4.984375 29.734375 -4.984375 C 32.960938 -4.984375 35.625 -5.785156 37.71875 -7.390625 C 39.820312 -9.003906 40.875 -11.179688 40.875 -13.921875 C 40.875 -16.554688 39.941406 -18.800781 38.078125 -20.65625 C 36.222656 -22.507812 32.613281 -24.5625 27.25 -26.8125 C 20.3125 -29.832031 15.425781 -32.757812 12.59375 -35.59375 C 9.757812 -38.425781 8.34375 -41.992188 8.34375 -46.296875 C 8.34375 -49.804688 9.394531 -52.90625 11.5 -55.59375 C 13.601562 -58.28125 16.507812 -60.378906 20.21875 -61.890625 C 23.925781 -63.398438 28.222656 -64.15625 33.109375 -64.15625 C 35.835938 -64.15625 38.617188 -63.9375 41.453125 -63.5 C 44.285156 -63.0625 46.628906 -62.40625 48.484375 -61.53125 L 50.09375 -46.296875 L 43.21875 -46.296875 L 39.703125 -56.25 C 38.722656 -56.832031 37.546875 -57.296875 36.171875 -57.640625 C 34.804688 -57.984375 33.34375 -58.15625 31.78125 -58.15625 C 28.363281 -58.15625 25.628906 -57.347656 23.578125 -55.734375 C 21.535156 -54.128906 20.515625 -52.054688 20.515625 -49.515625 C 20.515625 -46.585938 21.632812 -44.21875 23.875 -42.40625 C 26.125 -40.601562 30.082031 -38.382812 35.75 -35.75 C 42.1875 -32.8125 46.675781 -29.925781 49.21875 -27.09375 C 51.757812 -24.269531 53.03125 -20.851562 53.03125 -16.84375 C 53.03125 -11.570312 50.734375 -7.25 46.140625 -3.875 C 41.554688 -0.507812 35.75 1.171875 28.71875 1.171875 Z M 28.71875 1.171875 "/></g></g></g><g fill="#6d5353" fill-opacity="1"><g transform="translate(172.149159, 1251.352384)"><g><path d="M 39.53125 0.96875 C 33.300781 0.96875 27.625 -0.226562 22.5 -2.625 C 17.382812 -5.03125 13.285156 -8.613281 10.203125 -13.375 C 7.128906 -18.132812 5.59375 -24.023438 5.59375 -31.046875 C 5.59375 -35.554688 6.378906 -39.796875 7.953125 -43.765625 C 9.523438 -47.742188 11.832031 -51.253906 14.875 -54.296875 C 17.914062 -57.347656 21.617188 -59.734375 25.984375 -61.453125 C 30.359375 -63.171875 35.335938 -64.03125 40.921875 -64.03125 C 43.859375 -64.03125 46.972656 -63.742188 50.265625 -63.171875 C 53.566406 -62.597656 56.503906 -61.769531 59.078125 -60.6875 L 59.828125 -45.984375 L 55 -45.546875 L 51.78125 -55.75 C 50.414062 -56.6875 48.625 -57.382812 46.40625 -57.84375 C 44.1875 -58.3125 42.039062 -58.546875 39.96875 -58.546875 C 34.59375 -58.546875 30.203125 -57.378906 26.796875 -55.046875 C 23.398438 -52.722656 20.894531 -49.628906 19.28125 -45.765625 C 17.664062 -41.898438 16.859375 -37.640625 16.859375 -32.984375 C 16.859375 -26.890625 17.914062 -21.726562 20.03125 -17.5 C 22.144531 -13.28125 25.007812 -10.097656 28.625 -7.953125 C 32.238281 -5.804688 36.234375 -4.734375 40.609375 -4.734375 C 42.828125 -4.734375 44.882812 -4.984375 46.78125 -5.484375 C 48.675781 -5.984375 50.484375 -6.734375 52.203125 -7.734375 L 56.9375 -17.828125 L 61.875 -17.296875 L 58.875 -3.765625 C 56.363281 -2.546875 53.441406 -1.453125 50.109375 -0.484375 C 46.785156 0.484375 43.257812 0.96875 39.53125 0.96875 Z M 39.53125 0.96875 "/></g></g></g><g fill="#6d5353" fill-opacity="1"><g transform="translate(237.027357, 1251.352384)"><g><path d="M 3.328125 0 L 3.109375 -3.875 L 9.78125 -5.484375 C 9.914062 -6.265625 10 -7.460938 10.03125 -9.078125 C 10.070312 -10.691406 10.128906 -12.859375 10.203125 -15.578125 C 10.273438 -18.296875 10.3125 -21.625 10.3125 -25.5625 L 10.3125 -39 C 10.3125 -41.425781 10.289062 -44.035156 10.25 -46.828125 C 10.21875 -49.628906 10.179688 -52.335938 10.140625 -54.953125 C 10.109375 -57.566406 10.054688 -59.859375 9.984375 -61.828125 C 9.921875 -63.796875 9.890625 -65.066406 9.890625 -65.640625 L 1.9375 -66.703125 L 1.71875 -70.140625 L 16.859375 -74.546875 L 18.90625 -73.046875 C 18.832031 -70.828125 18.757812 -68.609375 18.6875 -66.390625 C 18.613281 -64.171875 18.5625 -61.769531 18.53125 -59.1875 C 18.5 -56.613281 18.460938 -53.734375 18.421875 -50.546875 C 18.390625 -47.359375 18.375 -43.648438 18.375 -39.421875 L 18.6875 -39.3125 C 21.125 -42.039062 23.5625 -44.007812 26 -45.21875 C 28.4375 -46.4375 31.085938 -47.046875 33.953125 -47.046875 C 36.597656 -47.046875 39.082031 -46.363281 41.40625 -45 C 43.738281 -43.644531 45.640625 -41.585938 47.109375 -38.828125 C 48.578125 -36.078125 49.3125 -32.550781 49.3125 -28.25 L 49.3125 -16.65625 C 49.3125 -14.070312 49.378906 -11.757812 49.515625 -9.71875 C 49.660156 -7.675781 49.804688 -6.265625 49.953125 -5.484375 L 56.609375 -3.875 L 56.390625 0 L 34.8125 0 L 34.484375 -3.875 L 40.71875 -5.484375 C 40.789062 -6.054688 40.859375 -6.769531 40.921875 -7.625 C 40.992188 -8.488281 41.046875 -9.597656 41.078125 -10.953125 C 41.117188 -12.316406 41.140625 -13.96875 41.140625 -15.90625 L 41.140625 -27.5 C 41.140625 -30.582031 40.617188 -33.070312 39.578125 -34.96875 C 38.546875 -36.863281 37.207031 -38.257812 35.5625 -39.15625 C 33.914062 -40.050781 32.160156 -40.5 30.296875 -40.5 C 27.929688 -40.5 25.742188 -39.925781 23.734375 -38.78125 C 21.734375 -37.632812 19.984375 -35.988281 18.484375 -33.84375 L 18.484375 -17.71875 C 18.484375 -14.425781 18.535156 -11.707031 18.640625 -9.5625 C 18.742188 -7.414062 18.867188 -6.054688 19.015625 -5.484375 L 25.5625 -3.875 L 25.359375 0 Z M 3.328125 0 "/></g></g></g><g fill="#6d5353" fill-opacity="1"><g transform="translate(296.105187, 1251.352384)"><g><path d="M 27.609375 0.859375 C 22.953125 0.859375 18.882812 -0.140625 15.40625 -2.140625 C 11.9375 -4.148438 9.234375 -6.960938 7.296875 -10.578125 C 5.367188 -14.191406 4.40625 -18.328125 4.40625 -22.984375 C 4.40625 -27.859375 5.460938 -32.082031 7.578125 -35.65625 C 9.691406 -39.238281 12.554688 -42.03125 16.171875 -44.03125 C 19.785156 -46.039062 23.738281 -47.046875 28.03125 -47.046875 C 32.476562 -47.046875 36.347656 -46.0625 39.640625 -44.09375 C 42.929688 -42.125 45.507812 -39.367188 47.375 -35.828125 C 49.238281 -32.285156 50.171875 -28.148438 50.171875 -23.421875 C 50.171875 -18.910156 49.164062 -14.8125 47.15625 -11.125 C 45.15625 -7.4375 42.453125 -4.515625 39.046875 -2.359375 C 35.648438 -0.210938 31.835938 0.859375 27.609375 0.859375 Z M 28.6875 -4.1875 C 31.113281 -4.1875 33.222656 -4.921875 35.015625 -6.390625 C 36.804688 -7.859375 38.203125 -9.898438 39.203125 -12.515625 C 40.210938 -15.128906 40.71875 -18.117188 40.71875 -21.484375 C 40.71875 -27.640625 39.445312 -32.632812 36.90625 -36.46875 C 34.363281 -40.300781 31.015625 -42.21875 26.859375 -42.21875 C 22.992188 -42.21875 19.894531 -40.625 17.5625 -37.4375 C 15.238281 -34.25 14.078125 -29.96875 14.078125 -24.59375 C 14.078125 -20.582031 14.703125 -17.035156 15.953125 -13.953125 C 17.203125 -10.878906 18.9375 -8.484375 21.15625 -6.765625 C 23.382812 -5.046875 25.894531 -4.1875 28.6875 -4.1875 Z M 28.6875 -4.1875 "/></g></g></g><g fill="#6d5353" fill-opacity="1"><g transform="translate(350.671619, 1251.352384)"><g><path d="M 27.609375 0.859375 C 22.953125 0.859375 18.882812 -0.140625 15.40625 -2.140625 C 11.9375 -4.148438 9.234375 -6.960938 7.296875 -10.578125 C 5.367188 -14.191406 4.40625 -18.328125 4.40625 -22.984375 C 4.40625 -27.859375 5.460938 -32.082031 7.578125 -35.65625 C 9.691406 -39.238281 12.554688 -42.03125 16.171875 -44.03125 C 19.785156 -46.039062 23.738281 -47.046875 28.03125 -47.046875 C 32.476562 -47.046875 36.347656 -46.0625 39.640625 -44.09375 C 42.929688 -42.125 45.507812 -39.367188 47.375 -35.828125 C 49.238281 -32.285156 50.171875 -28.148438 50.171875 -23.421875 C 50.171875 -18.910156 49.164062 -14.8125 47.15625 -11.125 C 45.15625 -7.4375 42.453125 -4.515625 39.046875 -2.359375 C 35.648438 -0.210938 31.835938 0.859375 27.609375 0.859375 Z M 28.6875 -4.1875 C 31.113281 -4.1875 33.222656 -4.921875 35.015625 -6.390625 C 36.804688 -7.859375 38.203125 -9.898438 39.203125 -12.515625 C 40.210938 -15.128906 40.71875 -18.117188 40.71875 -21.484375 C 40.71875 -27.640625 39.445312 -32.632812 36.90625 -36.46875 C 34.363281 -40.300781 31.015625 -42.21875 26.859375 -42.21875 C 22.992188 -42.21875 19.894531 -40.625 17.5625 -37.4375 C 15.238281 -34.25 14.078125 -29.96875 14.078125 -24.59375 C 14.078125 -20.582031 14.703125 -17.035156 15.953125 -13.953125 C 17.203125 -10.878906 18.9375 -8.484375 21.15625 -6.765625 C 23.382812 -5.046875 25.894531 -4.1875 28.6875 -4.1875 Z M 28.6875 -4.1875 "/></g></g></g><g fill="#6d5353" fill-opacity="1"><g transform="translate(405.238051, 1251.352384)"><g><path d="M 21.0625 0.859375 C 18.40625 0.859375 15.75 0.554688 13.09375 -0.046875 C 10.445312 -0.660156 8.195312 -1.46875 6.34375 -2.46875 L 5.796875 -13.96875 L 11.0625 -13.96875 L 13.21875 -6.234375 C 15.582031 -4.515625 18.445312 -3.65625 21.8125 -3.65625 C 24.175781 -3.65625 26.125 -4.242188 27.65625 -5.421875 C 29.195312 -6.609375 29.96875 -8.203125 29.96875 -10.203125 C 29.96875 -12.140625 29.285156 -13.785156 27.921875 -15.140625 C 26.566406 -16.503906 23.921875 -18.007812 19.984375 -19.65625 C 14.898438 -21.875 11.316406 -24.019531 9.234375 -26.09375 C 7.160156 -28.175781 6.125 -30.796875 6.125 -33.953125 C 6.125 -36.523438 6.894531 -38.796875 8.4375 -40.765625 C 9.976562 -42.734375 12.109375 -44.269531 14.828125 -45.375 C 17.546875 -46.488281 20.695312 -47.046875 24.28125 -47.046875 C 26.28125 -47.046875 28.316406 -46.882812 30.390625 -46.5625 C 32.472656 -46.238281 34.195312 -45.757812 35.5625 -45.125 L 36.734375 -33.953125 L 31.6875 -33.953125 L 29.109375 -41.25 C 28.390625 -41.675781 27.53125 -42.015625 26.53125 -42.265625 C 25.53125 -42.515625 24.457031 -42.640625 23.3125 -42.640625 C 20.800781 -42.640625 18.796875 -42.050781 17.296875 -40.875 C 15.796875 -39.695312 15.046875 -38.175781 15.046875 -36.3125 C 15.046875 -34.164062 15.867188 -32.425781 17.515625 -31.09375 C 19.160156 -29.769531 22.0625 -28.144531 26.21875 -26.21875 C 30.9375 -24.0625 34.226562 -21.945312 36.09375 -19.875 C 37.957031 -17.800781 38.890625 -15.296875 38.890625 -12.359375 C 38.890625 -8.484375 37.207031 -5.3125 33.84375 -2.84375 C 30.476562 -0.375 26.21875 0.859375 21.0625 0.859375 Z M 21.0625 0.859375 "/></g></g></g><g fill="#6d5353" fill-opacity="1"><g transform="translate(448.418575, 1251.352384)"><g><path d="M 26.640625 0.859375 C 22.484375 0.859375 18.722656 -0.0703125 15.359375 -1.9375 C 11.992188 -3.800781 9.34375 -6.46875 7.40625 -9.9375 C 5.476562 -13.40625 4.515625 -17.503906 4.515625 -22.234375 C 4.515625 -27.316406 5.550781 -31.71875 7.625 -35.4375 C 9.707031 -39.164062 12.429688 -42.050781 15.796875 -44.09375 C 19.160156 -46.132812 22.773438 -47.117188 26.640625 -47.046875 C 32.222656 -46.972656 36.585938 -45.128906 39.734375 -41.515625 C 42.890625 -37.898438 44.46875 -32.726562 44.46875 -26 L 44.46875 -24.0625 L 11.5 -24.0625 L 11.5 -28.796875 L 37.390625 -28.796875 L 36.203125 -27.390625 L 36.203125 -29.65625 C 36.203125 -33.726562 35.285156 -36.894531 33.453125 -39.15625 C 31.628906 -41.414062 29.070312 -42.546875 25.78125 -42.546875 C 23.78125 -42.546875 21.847656 -41.953125 19.984375 -40.765625 C 18.117188 -39.585938 16.613281 -37.796875 15.46875 -35.390625 C 14.320312 -32.992188 13.75 -29.96875 13.75 -26.3125 L 13.75 -25.03125 C 13.75 -19.15625 15.195312 -14.570312 18.09375 -11.28125 C 21 -7.988281 24.742188 -6.34375 29.328125 -6.34375 C 31.898438 -6.34375 34.171875 -6.820312 36.140625 -7.78125 C 38.117188 -8.75 40.035156 -10.378906 41.890625 -12.671875 L 44.578125 -10.203125 C 42.578125 -6.484375 40.035156 -3.707031 36.953125 -1.875 C 33.867188 -0.0507812 30.429688 0.859375 26.640625 0.859375 Z M 26.640625 0.859375 "/></g></g></g><g fill="#6d5353" fill-opacity="1"><g transform="translate(496.754981, 1251.352384)"><g/></g></g><g fill="#6d5353" fill-opacity="1"><g transform="translate(517.378514, 1251.352384)"><g><path d="M 37.0625 -6.65625 C 35.695312 -4.289062 33.832031 -2.445312 31.46875 -1.125 C 29.113281 0.195312 26.644531 0.859375 24.0625 0.859375 C 19.769531 0.859375 16.207031 -0.460938 13.375 -3.109375 C 10.539062 -5.765625 9.125 -9.742188 9.125 -15.046875 L 9.453125 -40.71875 L 1.9375 -40.71875 L 1.9375 -42.96875 L 15.796875 -55.53125 L 17.828125 -55.53125 L 17.625 -43.1875 L 17.515625 -16.765625 C 17.515625 -13.035156 18.316406 -10.273438 19.921875 -8.484375 C 21.535156 -6.691406 23.8125 -5.796875 26.75 -5.796875 C 28.394531 -5.796875 29.914062 -6.132812 31.3125 -6.8125 C 32.707031 -7.5 33.976562 -8.34375 35.125 -9.34375 Z M 13.75 -40.71875 L 13.75 -46.078125 L 33.84375 -46.078125 L 33.84375 -40.71875 Z M 13.75 -40.71875 "/></g></g></g><g fill="#6d5353" fill-opacity="1"><g transform="translate(553.79194, 1251.352384)"><g><path d="M 3.328125 0 L 3.109375 -3.875 L 9.78125 -5.484375 C 9.914062 -6.265625 10 -7.460938 10.03125 -9.078125 C 10.070312 -10.691406 10.128906 -12.859375 10.203125 -15.578125 C 10.273438 -18.296875 10.3125 -21.625 10.3125 -25.5625 L 10.3125 -39 C 10.3125 -41.425781 10.289062 -44.035156 10.25 -46.828125 C 10.21875 -49.628906 10.179688 -52.335938 10.140625 -54.953125 C 10.109375 -57.566406 10.054688 -59.859375 9.984375 -61.828125 C 9.921875 -63.796875 9.890625 -65.066406 9.890625 -65.640625 L 1.9375 -66.703125 L 1.71875 -70.140625 L 16.859375 -74.546875 L 18.90625 -73.046875 C 18.832031 -70.828125 18.757812 -68.609375 18.6875 -66.390625 C 18.613281 -64.171875 18.5625 -61.769531 18.53125 -59.1875 C 18.5 -56.613281 18.460938 -53.734375 18.421875 -50.546875 C 18.390625 -47.359375 18.375 -43.648438 18.375 -39.421875 L 18.6875 -39.3125 C 21.125 -42.039062 23.5625 -44.007812 26 -45.21875 C 28.4375 -46.4375 31.085938 -47.046875 33.953125 -47.046875 C 36.597656 -47.046875 39.082031 -46.363281 41.40625 -45 C 43.738281 -43.644531 45.640625 -41.585938 47.109375 -38.828125 C 48.578125 -36.078125 49.3125 -32.550781 49.3125 -28.25 L 49.3125 -16.65625 C 49.3125 -14.070312 49.378906 -11.757812 49.515625 -9.71875 C 49.660156 -7.675781 49.804688 -6.265625 49.953125 -5.484375 L 56.609375 -3.875 L 56.390625 0 L 34.8125 0 L 34.484375 -3.875 L 40.71875 -5.484375 C 40.789062 -6.054688 40.859375 -6.769531 40.921875 -7.625 C 40.992188 -8.488281 41.046875 -9.597656 41.078125 -10.953125 C 41.117188 -12.316406 41.140625 -13.96875 41.140625 -15.90625 L 41.140625 -27.5 C 41.140625 -30.582031 40.617188 -33.070312 39.578125 -34.96875 C 38.546875 -36.863281 37.207031 -38.257812 35.5625 -39.15625 C 33.914062 -40.050781 32.160156 -40.5 30.296875 -40.5 C 27.929688 -40.5 25.742188 -39.925781 23.734375 -38.78125 C 21.734375 -37.632812 19.984375 -35.988281 18.484375 -33.84375 L 18.484375 -17.71875 C 18.484375 -14.425781 18.535156 -11.707031 18.640625 -9.5625 C 18.742188 -7.414062 18.867188 -6.054688 19.015625 -5.484375 L 25.5625 -3.875 L 25.359375 0 Z M 3.328125 0 "/></g></g></g><g fill="#6d5353" fill-opacity="1"><g transform="translate(612.869793, 1251.352384)"><g><path d="M 26.640625 0.859375 C 22.484375 0.859375 18.722656 -0.0703125 15.359375 -1.9375 C 11.992188 -3.800781 9.34375 -6.46875 7.40625 -9.9375 C 5.476562 -13.40625 4.515625 -17.503906 4.515625 -22.234375 C 4.515625 -27.316406 5.550781 -31.71875 7.625 -35.4375 C 9.707031 -39.164062 12.429688 -42.050781 15.796875 -44.09375 C 19.160156 -46.132812 22.773438 -47.117188 26.640625 -47.046875 C 32.222656 -46.972656 36.585938 -45.128906 39.734375 -41.515625 C 42.890625 -37.898438 44.46875 -32.726562 44.46875 -26 L 44.46875 -24.0625 L 11.5 -24.0625 L 11.5 -28.796875 L 37.390625 -28.796875 L 36.203125 -27.390625 L 36.203125 -29.65625 C 36.203125 -33.726562 35.285156 -36.894531 33.453125 -39.15625 C 31.628906 -41.414062 29.070312 -42.546875 25.78125 -42.546875 C 23.78125 -42.546875 21.847656 -41.953125 19.984375 -40.765625 C 18.117188 -39.585938 16.613281 -37.796875 15.46875 -35.390625 C 14.320312 -32.992188 13.75 -29.96875 13.75 -26.3125 L 13.75 -25.03125 C 13.75 -19.15625 15.195312 -14.570312 18.09375 -11.28125 C 21 -7.988281 24.742188 -6.34375 29.328125 -6.34375 C 31.898438 -6.34375 34.171875 -6.820312 36.140625 -7.78125 C 38.117188 -8.75 40.035156 -10.378906 41.890625 -12.671875 L 44.578125 -10.203125 C 42.578125 -6.484375 40.035156 -3.707031 36.953125 -1.875 C 33.867188 -0.0507812 30.429688 0.859375 26.640625 0.859375 Z M 26.640625 0.859375 "/></g></g></g><g fill="#6d5353" fill-opacity="1"><g transform="translate(661.206153, 1251.352384)"><g/></g></g><g fill="#6d5353" fill-opacity="1"><g transform="translate(681.829687, 1251.352384)"><g><path d="M 8.484375 -2.90625 C 8.628906 -5.332031 8.703125 -7.476562 8.703125 -9.34375 C 8.703125 -11.207031 8.703125 -13.035156 8.703125 -14.828125 C 8.703125 -16.617188 8.703125 -18.515625 8.703125 -20.515625 L 8.703125 -39 C 8.703125 -41.5 8.679688 -44.144531 8.640625 -46.9375 C 8.609375 -49.738281 8.570312 -52.441406 8.53125 -55.046875 C 8.5 -57.660156 8.460938 -59.914062 8.421875 -61.8125 C 8.390625 -63.71875 8.375 -65.03125 8.375 -65.75 L 0.4375 -66.703125 L 0.21875 -70.140625 L 15.359375 -74.546875 L 17.40625 -73.046875 C 17.332031 -70.035156 17.257812 -67.023438 17.1875 -64.015625 C 17.113281 -61.015625 17.039062 -57.546875 16.96875 -53.609375 C 16.894531 -49.671875 16.828125 -44.800781 16.765625 -39 L 17.078125 -38.890625 C 18.796875 -41.328125 20.976562 -43.296875 23.625 -44.796875 C 26.28125 -46.296875 29.179688 -47.046875 32.328125 -47.046875 C 35.910156 -47.046875 39.1875 -46.164062 42.15625 -44.40625 C 45.132812 -42.65625 47.550781 -40.148438 49.40625 -36.890625 C 51.269531 -33.640625 52.203125 -29.6875 52.203125 -25.03125 C 52.203125 -19.945312 51.003906 -15.453125 48.609375 -11.546875 C 46.210938 -7.640625 43.007812 -4.59375 39 -2.40625 C 34.988281 -0.226562 30.546875 0.859375 25.671875 0.859375 C 22.597656 0.859375 19.535156 0.5 16.484375 -0.21875 C 13.441406 -0.9375 10.773438 -1.832031 8.484375 -2.90625 Z M 28.03125 -4.625 C 32.257812 -4.625 35.75 -6.21875 38.5 -9.40625 C 41.257812 -12.59375 42.675781 -17.15625 42.75 -23.09375 C 42.894531 -28.820312 41.550781 -33.066406 38.71875 -35.828125 C 35.894531 -38.585938 32.476562 -39.96875 28.46875 -39.96875 C 26.320312 -39.96875 24.226562 -39.484375 22.1875 -38.515625 C 20.144531 -37.546875 18.367188 -36.054688 16.859375 -34.046875 L 16.859375 -7.953125 C 18.367188 -6.953125 20.019531 -6.144531 21.8125 -5.53125 C 23.601562 -4.925781 25.675781 -4.625 28.03125 -4.625 Z M 28.03125 -4.625 "/></g></g></g><g fill="#6d5353" fill-opacity="1"><g transform="translate(738.329621, 1251.352384)"><g><path d="M 27.609375 0.859375 C 22.953125 0.859375 18.882812 -0.140625 15.40625 -2.140625 C 11.9375 -4.148438 9.234375 -6.960938 7.296875 -10.578125 C 5.367188 -14.191406 4.40625 -18.328125 4.40625 -22.984375 C 4.40625 -27.859375 5.460938 -32.082031 7.578125 -35.65625 C 9.691406 -39.238281 12.554688 -42.03125 16.171875 -44.03125 C 19.785156 -46.039062 23.738281 -47.046875 28.03125 -47.046875 C 32.476562 -47.046875 36.347656 -46.0625 39.640625 -44.09375 C 42.929688 -42.125 45.507812 -39.367188 47.375 -35.828125 C 49.238281 -32.285156 50.171875 -28.148438 50.171875 -23.421875 C 50.171875 -18.910156 49.164062 -14.8125 47.15625 -11.125 C 45.15625 -7.4375 42.453125 -4.515625 39.046875 -2.359375 C 35.648438 -0.210938 31.835938 0.859375 27.609375 0.859375 Z M 28.6875 -4.1875 C 31.113281 -4.1875 33.222656 -4.921875 35.015625 -6.390625 C 36.804688 -7.859375 38.203125 -9.898438 39.203125 -12.515625 C 40.210938 -15.128906 40.71875 -18.117188 40.71875 -21.484375 C 40.71875 -27.640625 39.445312 -32.632812 36.90625 -36.46875 C 34.363281 -40.300781 31.015625 -42.21875 26.859375 -42.21875 C 22.992188 -42.21875 19.894531 -40.625 17.5625 -37.4375 C 15.238281 -34.25 14.078125 -29.96875 14.078125 -24.59375 C 14.078125 -20.582031 14.703125 -17.035156 15.953125 -13.953125 C 17.203125 -10.878906 18.9375 -8.484375 21.15625 -6.765625 C 23.382812 -5.046875 25.894531 -4.1875 28.6875 -4.1875 Z M 28.6875 -4.1875 "/></g></g></g><g fill="#6d5353" fill-opacity="1"><g transform="translate(792.896053, 1251.352384)"><g><path d="M 27.609375 0.859375 C 22.953125 0.859375 18.882812 -0.140625 15.40625 -2.140625 C 11.9375 -4.148438 9.234375 -6.960938 7.296875 -10.578125 C 5.367188 -14.191406 4.40625 -18.328125 4.40625 -22.984375 C 4.40625 -27.859375 5.460938 -32.082031 7.578125 -35.65625 C 9.691406 -39.238281 12.554688 -42.03125 16.171875 -44.03125 C 19.785156 -46.039062 23.738281 -47.046875 28.03125 -47.046875 C 32.476562 -47.046875 36.347656 -46.0625 39.640625 -44.09375 C 42.929688 -42.125 45.507812 -39.367188 47.375 -35.828125 C 49.238281 -32.285156 50.171875 -28.148438 50.171875 -23.421875 C 50.171875 -18.910156 49.164062 -14.8125 47.15625 -11.125 C 45.15625 -7.4375 42.453125 -4.515625 39.046875 -2.359375 C 35.648438 -0.210938 31.835938 0.859375 27.609375 0.859375 Z M 28.6875 -4.1875 C 31.113281 -4.1875 33.222656 -4.921875 35.015625 -6.390625 C 36.804688 -7.859375 38.203125 -9.898438 39.203125 -12.515625 C 40.210938 -15.128906 40.71875 -18.117188 40.71875 -21.484375 C 40.71875 -27.640625 39.445312 -32.632812 36.90625 -36.46875 C 34.363281 -40.300781 31.015625 -42.21875 26.859375 -42.21875 C 22.992188 -42.21875 19.894531 -40.625 17.5625 -37.4375 C 15.238281 -34.25 14.078125 -29.96875 14.078125 -24.59375 C 14.078125 -20.582031 14.703125 -17.035156 15.953125 -13.953125 C 17.203125 -10.878906 18.9375 -8.484375 21.15625 -6.765625 C 23.382812 -5.046875 25.894531 -4.1875 28.6875 -4.1875 Z M 28.6875 -4.1875 "/></g></g></g><g fill="#6d5353" fill-opacity="1"><g transform="translate(847.462485, 1251.352384)"><g><path d="M 3.875 0 L 3.65625 -3.875 L 9.78125 -5.484375 C 9.851562 -6.128906 9.921875 -7.273438 9.984375 -8.921875 C 10.054688 -10.566406 10.128906 -12.625 10.203125 -15.09375 C 10.273438 -17.5625 10.3125 -20.335938 10.3125 -23.421875 L 10.3125 -39 C 10.3125 -41.644531 10.289062 -44.398438 10.25 -47.265625 C 10.21875 -50.128906 10.179688 -52.847656 10.140625 -55.421875 C 10.109375 -58.003906 10.054688 -60.207031 9.984375 -62.03125 C 9.921875 -63.863281 9.890625 -65.066406 9.890625 -65.640625 L 1.9375 -66.703125 L 1.71875 -70.140625 L 16.859375 -74.546875 L 19.015625 -73.046875 C 18.867188 -70.679688 18.773438 -68.316406 18.734375 -65.953125 C 18.703125 -63.585938 18.648438 -61.171875 18.578125 -58.703125 C 18.515625 -56.234375 18.484375 -53.617188 18.484375 -50.859375 C 18.484375 -48.109375 18.484375 -45.117188 18.484375 -41.890625 L 18.375 -15.578125 C 18.375 -13.710938 18.40625 -12.082031 18.46875 -10.6875 C 18.539062 -9.289062 18.613281 -8.160156 18.6875 -7.296875 C 18.757812 -6.441406 18.796875 -5.835938 18.796875 -5.484375 L 25.453125 -3.875 L 25.25 0 Z M 52 0 L 39.75 0 C 38.457031 -1.71875 37.4375 -3.003906 36.6875 -3.859375 C 35.9375 -4.722656 35.203125 -5.550781 34.484375 -6.34375 L 19.765625 -22.34375 L 16.765625 -22.34375 L 16.859375 -24.921875 L 20.953125 -26.109375 L 35.875 -40.921875 L 28.796875 -42.21875 L 29 -46.1875 L 50.59375 -46.1875 L 50.8125 -42.21875 L 43.71875 -40.921875 L 24.5 -23.640625 L 26.109375 -27.5 L 41.25 -11.171875 C 42.113281 -10.171875 43.148438 -9.078125 44.359375 -7.890625 C 45.578125 -6.710938 46.617188 -5.726562 47.484375 -4.9375 L 52.3125 -3.96875 Z M 52 0 "/></g></g></g><g fill="#6d5353" fill-opacity="1"><g transform="translate(899.450929, 1251.352384)"><g><path d="M 21.0625 0.859375 C 18.40625 0.859375 15.75 0.554688 13.09375 -0.046875 C 10.445312 -0.660156 8.195312 -1.46875 6.34375 -2.46875 L 5.796875 -13.96875 L 11.0625 -13.96875 L 13.21875 -6.234375 C 15.582031 -4.515625 18.445312 -3.65625 21.8125 -3.65625 C 24.175781 -3.65625 26.125 -4.242188 27.65625 -5.421875 C 29.195312 -6.609375 29.96875 -8.203125 29.96875 -10.203125 C 29.96875 -12.140625 29.285156 -13.785156 27.921875 -15.140625 C 26.566406 -16.503906 23.921875 -18.007812 19.984375 -19.65625 C 14.898438 -21.875 11.316406 -24.019531 9.234375 -26.09375 C 7.160156 -28.175781 6.125 -30.796875 6.125 -33.953125 C 6.125 -36.523438 6.894531 -38.796875 8.4375 -40.765625 C 9.976562 -42.734375 12.109375 -44.269531 14.828125 -45.375 C 17.546875 -46.488281 20.695312 -47.046875 24.28125 -47.046875 C 26.28125 -47.046875 28.316406 -46.882812 30.390625 -46.5625 C 32.472656 -46.238281 34.195312 -45.757812 35.5625 -45.125 L 36.734375 -33.953125 L 31.6875 -33.953125 L 29.109375 -41.25 C 28.390625 -41.675781 27.53125 -42.015625 26.53125 -42.265625 C 25.53125 -42.515625 24.457031 -42.640625 23.3125 -42.640625 C 20.800781 -42.640625 18.796875 -42.050781 17.296875 -40.875 C 15.796875 -39.695312 15.046875 -38.175781 15.046875 -36.3125 C 15.046875 -34.164062 15.867188 -32.425781 17.515625 -31.09375 C 19.160156 -29.769531 22.0625 -28.144531 26.21875 -26.21875 C 30.9375 -24.0625 34.226562 -21.945312 36.09375 -19.875 C 37.957031 -17.800781 38.890625 -15.296875 38.890625 -12.359375 C 38.890625 -8.484375 37.207031 -5.3125 33.84375 -2.84375 C 30.476562 -0.375 26.21875 0.859375 21.0625 0.859375 Z M 21.0625 0.859375 "/></g></g></g><g fill="#6d5353" fill-opacity="1"><g transform="translate(942.631453, 1251.352384)"><g/></g></g><g fill="#6d5353" fill-opacity="1"><g transform="translate(963.254986, 1251.352384)"><g><path d="M 23.53125 0.4375 L 4.625 -40.71875 L -0.4375 -42.328125 L -0.109375 -46.1875 L 20.734375 -46.1875 L 20.953125 -42.328125 L 14.28125 -40.71875 L 28.890625 -8.0625 Z M 51.03125 -46.1875 L 51.34375 -42.328125 L 46.296875 -40.71875 L 28.03125 -2.359375 L 19.4375 15.46875 C 17.863281 18.757812 16.195312 21.085938 14.4375 22.453125 C 12.6875 23.816406 10.664062 24.5 8.375 24.5 C 6.65625 24.5 5.222656 24.066406 4.078125 23.203125 C 2.929688 22.347656 2.359375 21.238281 2.359375 19.875 C 2.359375 18.800781 2.785156 17.796875 3.640625 16.859375 C 4.503906 15.929688 5.832031 15.179688 7.625 14.609375 L 17.625 11.609375 L 12.671875 16.96875 L 24.59375 -6.015625 L 25.78125 -7.953125 L 39.75 -40.71875 L 33.09375 -42.328125 L 33.296875 -46.1875 Z M 51.03125 -46.1875 "/></g></g></g><g fill="#6d5353" fill-opacity="1"><g transform="translate(1012.987801, 1251.352384)"><g><path d="M 27.609375 0.859375 C 22.953125 0.859375 18.882812 -0.140625 15.40625 -2.140625 C 11.9375 -4.148438 9.234375 -6.960938 7.296875 -10.578125 C 5.367188 -14.191406 4.40625 -18.328125 4.40625 -22.984375 C 4.40625 -27.859375 5.460938 -32.082031 7.578125 -35.65625 C 9.691406 -39.238281 12.554688 -42.03125 16.171875 -44.03125 C 19.785156 -46.039062 23.738281 -47.046875 28.03125 -47.046875 C 32.476562 -47.046875 36.347656 -46.0625 39.640625 -44.09375 C 42.929688 -42.125 45.507812 -39.367188 47.375 -35.828125 C 49.238281 -32.285156 50.171875 -28.148438 50.171875 -23.421875 C 50.171875 -18.910156 49.164062 -14.8125 47.15625 -11.125 C 45.15625 -7.4375 42.453125 -4.515625 39.046875 -2.359375 C 35.648438 -0.210938 31.835938 0.859375 27.609375 0.859375 Z M 28.6875 -4.1875 C 31.113281 -4.1875 33.222656 -4.921875 35.015625 -6.390625 C 36.804688 -7.859375 38.203125 -9.898438 39.203125 -12.515625 C 40.210938 -15.128906 40.71875 -18.117188 40.71875 -21.484375 C 40.71875 -27.640625 39.445312 -32.632812 36.90625 -36.46875 C 34.363281 -40.300781 31.015625 -42.21875 26.859375 -42.21875 C 22.992188 -42.21875 19.894531 -40.625 17.5625 -37.4375 C 15.238281 -34.25 14.078125 -29.96875 14.078125 -24.59375 C 14.078125 -20.582031 14.703125 -17.035156 15.953125 -13.953125 C 17.203125 -10.878906 18.9375 -8.484375 21.15625 -6.765625 C 23.382812 -5.046875 25.894531 -4.1875 28.6875 -4.1875 Z M 28.6875 -4.1875 "/></g></g></g><g fill="#6d5353" fill-opacity="1"><g transform="translate(1067.554233, 1251.352384)"><g><path d="M 48.875 -7.515625 L 55.640625 -5.796875 L 55.640625 -2.25 L 41.6875 1.1875 L 40.0625 -0.21875 L 40.171875 -6.984375 L 39.859375 -7.09375 C 37.773438 -4.15625 35.640625 -2.09375 33.453125 -0.90625 C 31.273438 0.269531 28.929688 0.859375 26.421875 0.859375 C 21.628906 0.859375 17.617188 -0.625 14.390625 -3.59375 C 11.171875 -6.570312 9.5625 -11.03125 9.5625 -16.96875 L 9.5625 -26.21875 C 9.5625 -28.144531 9.503906 -30.070312 9.390625 -32 C 9.285156 -33.9375 9.164062 -35.875 9.03125 -37.8125 L 1.71875 -39.3125 L 1.71875 -42.859375 L 16.328125 -46.84375 L 18.265625 -45.125 C 18.117188 -42.894531 18.007812 -40.523438 17.9375 -38.015625 C 17.863281 -35.515625 17.828125 -32.90625 17.828125 -30.1875 L 17.71875 -18.375 C 17.71875 -13.925781 18.753906 -10.753906 20.828125 -8.859375 C 22.910156 -6.960938 25.566406 -6.015625 28.796875 -6.015625 C 30.722656 -6.015625 32.6875 -6.515625 34.6875 -7.515625 C 36.695312 -8.523438 38.457031 -10.242188 39.96875 -12.671875 L 39.96875 -25.140625 C 39.96875 -26.710938 39.945312 -28.269531 39.90625 -29.8125 C 39.875 -31.351562 39.820312 -32.820312 39.75 -34.21875 C 39.675781 -35.613281 39.566406 -36.8125 39.421875 -37.8125 L 31.578125 -39.3125 L 31.578125 -42.859375 L 46.734375 -46.84375 L 48.34375 -45.328125 C 48.269531 -43.328125 48.210938 -41.554688 48.171875 -40.015625 C 48.140625 -38.472656 48.125 -36.929688 48.125 -35.390625 C 48.125 -33.859375 48.125 -32.085938 48.125 -30.078125 L 48.125 -22.453125 C 48.125 -18.515625 48.210938 -15.34375 48.390625 -12.9375 C 48.566406 -10.539062 48.726562 -8.734375 48.875 -7.515625 Z M 48.875 -7.515625 "/></g></g></g><g fill="#6d5353" fill-opacity="1"><g transform="translate(1125.880094, 1251.352384)"><g/></g></g><g fill="#6d5353" fill-opacity="1"><g transform="translate(1146.503628, 1251.352384)"><g><path d="M 3.015625 0 L 2.796875 -3.96875 L 9.78125 -5.484375 C 9.914062 -6.265625 10 -7.460938 10.03125 -9.078125 C 10.070312 -10.691406 10.128906 -12.859375 10.203125 -15.578125 C 10.273438 -18.296875 10.3125 -21.625 10.3125 -25.5625 L 10.3125 -39 C 10.3125 -41.644531 10.289062 -44.398438 10.25 -47.265625 C 10.21875 -50.128906 10.179688 -52.847656 10.140625 -55.421875 C 10.109375 -58.003906 10.054688 -60.207031 9.984375 -62.03125 C 9.921875 -63.863281 9.890625 -65.066406 9.890625 -65.640625 L 1.9375 -66.703125 L 1.71875 -70.140625 L 17.078125 -74.546875 L 19.125 -73.046875 C 19.050781 -69.960938 18.976562 -66.9375 18.90625 -63.96875 C 18.832031 -61 18.773438 -57.6875 18.734375 -54.03125 C 18.703125 -50.382812 18.6875 -45.984375 18.6875 -40.828125 L 18.578125 -23.53125 C 18.578125 -19.300781 18.628906 -15.484375 18.734375 -12.078125 C 18.847656 -8.679688 18.976562 -6.484375 19.125 -5.484375 L 26.109375 -3.96875 L 25.890625 0 Z M 3.015625 0 "/></g></g></g><g fill="#6d5353" fill-opacity="1"><g transform="translate(1175.398126, 1251.352384)"><g><path d="M 27.609375 0.859375 C 22.953125 0.859375 18.882812 -0.140625 15.40625 -2.140625 C 11.9375 -4.148438 9.234375 -6.960938 7.296875 -10.578125 C 5.367188 -14.191406 4.40625 -18.328125 4.40625 -22.984375 C 4.40625 -27.859375 5.460938 -32.082031 7.578125 -35.65625 C 9.691406 -39.238281 12.554688 -42.03125 16.171875 -44.03125 C 19.785156 -46.039062 23.738281 -47.046875 28.03125 -47.046875 C 32.476562 -47.046875 36.347656 -46.0625 39.640625 -44.09375 C 42.929688 -42.125 45.507812 -39.367188 47.375 -35.828125 C 49.238281 -32.285156 50.171875 -28.148438 50.171875 -23.421875 C 50.171875 -18.910156 49.164062 -14.8125 47.15625 -11.125 C 45.15625 -7.4375 42.453125 -4.515625 39.046875 -2.359375 C 35.648438 -0.210938 31.835938 0.859375 27.609375 0.859375 Z M 28.6875 -4.1875 C 31.113281 -4.1875 33.222656 -4.921875 35.015625 -6.390625 C 36.804688 -7.859375 38.203125 -9.898438 39.203125 -12.515625 C 40.210938 -15.128906 40.71875 -18.117188 40.71875 -21.484375 C 40.71875 -27.640625 39.445312 -32.632812 36.90625 -36.46875 C 34.363281 -40.300781 31.015625 -42.21875 26.859375 -42.21875 C 22.992188 -42.21875 19.894531 -40.625 17.5625 -37.4375 C 15.238281 -34.25 14.078125 -29.96875 14.078125 -24.59375 C 14.078125 -20.582031 14.703125 -17.035156 15.953125 -13.953125 C 17.203125 -10.878906 18.9375 -8.484375 21.15625 -6.765625 C 23.382812 -5.046875 25.894531 -4.1875 28.6875 -4.1875 Z M 28.6875 -4.1875 "/></g></g></g><g fill="#6d5353" fill-opacity="1"><g transform="translate(1229.749684, 1251.352384)"><g><path d="M 23.640625 0.4375 L 4.625 -40.71875 L -0.4375 -42.328125 L -0.21875 -46.1875 L 20.734375 -46.1875 L 20.953125 -42.328125 L 14.28125 -40.71875 L 29 -8.0625 L 26.21875 -7.953125 L 39.75 -40.71875 L 33.09375 -42.328125 L 33.296875 -46.1875 L 51.140625 -46.1875 L 51.34375 -42.328125 L 46.296875 -40.71875 L 26.859375 0.4375 Z M 23.640625 0.4375 "/></g></g></g><g fill="#6d5353" fill-opacity="1"><g transform="translate(1279.482498, 1251.352384)"><g><path d="M 26.640625 0.859375 C 22.484375 0.859375 18.722656 -0.0703125 15.359375 -1.9375 C 11.992188 -3.800781 9.34375 -6.46875 7.40625 -9.9375 C 5.476562 -13.40625 4.515625 -17.503906 4.515625 -22.234375 C 4.515625 -27.316406 5.550781 -31.71875 7.625 -35.4375 C 9.707031 -39.164062 12.429688 -42.050781 15.796875 -44.09375 C 19.160156 -46.132812 22.773438 -47.117188 26.640625 -47.046875 C 32.222656 -46.972656 36.585938 -45.128906 39.734375 -41.515625 C 42.890625 -37.898438 44.46875 -32.726562 44.46875 -26 L 44.46875 -24.0625 L 11.5 -24.0625 L 11.5 -28.796875 L 37.390625 -28.796875 L 36.203125 -27.390625 L 36.203125 -29.65625 C 36.203125 -33.726562 35.285156 -36.894531 33.453125 -39.15625 C 31.628906 -41.414062 29.070312 -42.546875 25.78125 -42.546875 C 23.78125 -42.546875 21.847656 -41.953125 19.984375 -40.765625 C 18.117188 -39.585938 16.613281 -37.796875 15.46875 -35.390625 C 14.320312 -32.992188 13.75 -29.96875 13.75 -26.3125 L 13.75 -25.03125 C 13.75 -19.15625 15.195312 -14.570312 18.09375 -11.28125 C 21 -7.988281 24.742188 -6.34375 29.328125 -6.34375 C 31.898438 -6.34375 34.171875 -6.820312 36.140625 -7.78125 C 38.117188 -8.75 40.035156 -10.378906 41.890625 -12.671875 L 44.578125 -10.203125 C 42.578125 -6.484375 40.035156 -3.707031 36.953125 -1.875 C 33.867188 -0.0507812 30.429688 0.859375 26.640625 0.859375 Z M 26.640625 0.859375 "/></g></g></g></svg>