<svg xmlns="http://www.w3.org/2000/svg" xmlns:xlink="http://www.w3.org/1999/xlink" width="2000" zoomAndPan="magnify" viewBox="0 0 1500 1499.999933" height="2000" preserveAspectRatio="xMidYMid meet" version="1.0"><defs><g/><clipPath id="5c132dd4d5"><path d="M 100.511719 100.511719 L 1399.488281 100.511719 L 1399.488281 1399.488281 L 100.511719 1399.488281 Z M 100.511719 100.511719 " clip-rule="nonzero"/></clipPath><clipPath id="77716ebf49"><path d="M 171.011719 100.511719 L 1328.988281 100.511719 C 1347.683594 100.511719 1365.617188 107.941406 1378.835938 121.160156 C 1392.058594 134.382812 1399.488281 152.316406 1399.488281 171.011719 L 1399.488281 1328.988281 C 1399.488281 1347.683594 1392.058594 1365.617188 1378.835938 1378.835938 C 1365.617188 1392.058594 1347.683594 1399.488281 1328.988281 1399.488281 L 171.011719 1399.488281 C 152.316406 1399.488281 134.382812 1392.058594 121.164062 1378.835938 C 107.941406 1365.617188 100.511719 1347.683594 100.511719 1328.988281 L 100.511719 171.011719 C 100.511719 152.316406 107.941406 134.382812 121.164062 121.160156 C 134.382812 107.941406 152.316406 100.511719 171.011719 100.511719 Z M 171.011719 100.511719 " clip-rule="nonzero"/></clipPath><clipPath id="0873004006"><path d="M 0.511719 0.511719 L 1299.488281 0.511719 L 1299.488281 1299.488281 L 0.511719 1299.488281 Z M 0.511719 0.511719 " clip-rule="nonzero"/></clipPath><clipPath id="5f26733b2b"><path d="M 71.011719 0.511719 L 1228.988281 0.511719 C 1247.683594 0.511719 1265.617188 7.941406 1278.835938 21.160156 C 1292.058594 34.382812 1299.488281 52.316406 1299.488281 71.011719 L 1299.488281 1228.988281 C 1299.488281 1247.683594 1292.058594 1265.617188 1278.835938 1278.835938 C 1265.617188 1292.058594 1247.683594 1299.488281 1228.988281 1299.488281 L 71.011719 1299.488281 C 52.316406 1299.488281 34.382812 1292.058594 21.164062 1278.835938 C 7.941406 1265.617188 0.511719 1247.683594 0.511719 1228.988281 L 0.511719 71.011719 C 0.511719 52.316406 7.941406 34.382812 21.164062 21.160156 C 34.382812 7.941406 52.316406 0.511719 71.011719 0.511719 Z M 71.011719 0.511719 " clip-rule="nonzero"/></clipPath><clipPath id="2c2da85347"><rect x="0" width="1300" y="0" height="1300"/></clipPath><clipPath id="6d85df0af8"><path d="M 100.511719 100.511719 L 1399.511719 100.511719 L 1399.511719 1399.511719 L 100.511719 1399.511719 Z M 100.511719 100.511719 " clip-rule="nonzero"/></clipPath><clipPath id="4e9657e031"><path d="M 171.011719 100.511719 L 1328.980469 100.511719 C 1347.675781 100.511719 1365.609375 107.941406 1378.828125 121.160156 C 1392.050781 134.382812 1399.476562 152.316406 1399.476562 171.011719 L 1399.476562 1328.976562 C 1399.476562 1347.675781 1392.050781 1365.609375 1378.828125 1378.828125 C 1365.609375 1392.050781 1347.675781 1399.476562 1328.980469 1399.476562 L 171.011719 1399.476562 C 152.316406 1399.476562 134.382812 1392.050781 121.160156 1378.828125 C 107.941406 1365.609375 100.511719 1347.675781 100.511719 1328.976562 L 100.511719 171.011719 C 100.511719 152.316406 107.941406 134.382812 121.160156 121.160156 C 134.382812 107.941406 152.316406 100.511719 171.011719 100.511719 Z M 171.011719 100.511719 " clip-rule="nonzero"/></clipPath><clipPath id="ee0a808f1d"><path d="M 741 454.136719 L 939 454.136719 L 939 608 L 741 608 Z M 741 454.136719 " clip-rule="nonzero"/></clipPath><clipPath id="4fbaf7378c"><path d="M 916 669 L 1042.082031 669 L 1042.082031 746 L 916 746 Z M 916 669 " clip-rule="nonzero"/></clipPath><clipPath id="2781a8a8a2"><path d="M 741 726 L 1042.082031 726 L 1042.082031 1045.886719 L 741 1045.886719 Z M 741 726 " clip-rule="nonzero"/></clipPath><clipPath id="0fcda78c47"><path d="M 561 454.136719 L 759 454.136719 L 759 608 L 561 608 Z M 561 454.136719 " clip-rule="nonzero"/></clipPath><clipPath id="c3dae48319"><path d="M 457.832031 669 L 584 669 L 584 746 L 457.832031 746 Z M 457.832031 669 " clip-rule="nonzero"/></clipPath><clipPath id="d0e9134a18"><path d="M 457.832031 726 L 759 726 L 759 1045.886719 L 457.832031 1045.886719 Z M 457.832031 726 " clip-rule="nonzero"/></clipPath><clipPath id="0ca7d28d4a"><path d="M 807 764 L 966 764 L 966 1045.886719 L 807 1045.886719 Z M 807 764 " clip-rule="nonzero"/></clipPath></defs><rect x="-150" width="1800" fill="#ffffff" y="-149.999993" height="1799.99992" fill-opacity="1"/><rect x="-150" width="1800" fill="#ffffff" y="-149.999993" height="1799.99992" fill-opacity="1"/><g clip-path="url(#5c132dd4d5)"><g clip-path="url(#77716ebf49)"><g transform="matrix(1, 0, 0, 1, 100, 100)"><g clip-path="url(#2c2da85347)"><g clip-path="url(#0873004006)"><g clip-path="url(#5f26733b2b)"><path fill="#ffffff" d="M 0.511719 0.511719 L 1299.488281 0.511719 L 1299.488281 1299.488281 L 0.511719 1299.488281 Z M 0.511719 0.511719 " fill-opacity="1" fill-rule="nonzero"/></g></g></g></g></g></g><g clip-path="url(#6d85df0af8)"><g clip-path="url(#4e9657e031)"><path stroke-linecap="butt" transform="matrix(0.75, 0, 0, 0.75, 100.513222, 100.513097)" fill="none" stroke-linejoin="miter" d="M 93.997997 -0.00183759 L 1637.956365 -0.00183759 C 1662.883449 -0.00183759 1686.794908 9.904413 1704.419908 27.529413 C 1722.050117 45.159622 1731.951159 69.071081 1731.951159 93.998164 L 1731.951159 1637.951324 C 1731.951159 1662.883616 1722.050117 1686.795075 1704.419908 1704.420075 C 1686.794908 1722.050284 1662.883449 1731.951326 1637.956365 1731.951326 L 93.997997 1731.951326 C 69.070913 1731.951326 45.159455 1722.050284 27.529246 1704.420075 C 9.904245 1686.795075 -0.00200472 1662.883616 -0.00200472 1637.951324 L -0.00200472 93.998164 C -0.00200472 69.071081 9.904245 45.159622 27.529246 27.529413 C 45.159455 9.904413 69.070913 -0.00183759 93.997997 -0.00183759 Z M 93.997997 -0.00183759 " stroke="#000000" stroke-width="40" stroke-opacity="1" stroke-miterlimit="4"/></g></g><g clip-path="url(#ee0a808f1d)"><path fill="#000000" d="M 929.710938 607.523438 L 750.03125 607.523438 C 745.324219 607.523438 741.472656 603.671875 741.472656 598.964844 C 741.472656 594.257812 745.324219 590.40625 750.03125 590.40625 L 921.15625 590.40625 L 921.15625 471.3125 L 750.03125 471.3125 C 745.324219 471.3125 741.472656 467.460938 741.472656 462.753906 C 741.472656 458.046875 745.324219 454.195312 750.03125 454.195312 L 929.710938 454.195312 C 934.417969 454.195312 938.269531 458.046875 938.269531 462.753906 L 938.269531 598.964844 C 938.269531 603.671875 934.417969 607.523438 929.710938 607.523438 Z M 929.710938 607.523438 " fill-opacity="1" fill-rule="nonzero"/></g><path fill="#000000" d="M 1003.582031 607.523438 L 929.710938 607.523438 C 925.003906 607.523438 921.15625 603.671875 921.15625 598.964844 L 921.15625 543.625 C 921.15625 538.917969 925.003906 535.066406 929.710938 535.066406 L 991.175781 535.066406 C 1002.726562 535.066406 1011.992188 544.480469 1011.992188 555.890625 L 1011.992188 598.964844 C 1012.136719 603.671875 1008.285156 607.523438 1003.582031 607.523438 Z M 938.269531 590.40625 L 995.023438 590.40625 L 995.023438 555.890625 C 995.023438 553.894531 993.3125 552.183594 991.316406 552.183594 L 938.269531 552.183594 Z M 938.269531 590.40625 " fill-opacity="1" fill-rule="nonzero"/><path fill="#000000" d="M 1033.527344 686.683594 L 750.03125 686.683594 C 745.324219 686.683594 741.472656 682.832031 741.472656 678.125 C 741.472656 673.417969 745.324219 669.566406 750.03125 669.566406 L 803.078125 669.566406 L 794.238281 599.964844 C 793.667969 595.257812 796.945312 590.976562 801.652344 590.40625 C 806.359375 589.835938 810.636719 593.117188 811.207031 597.824219 L 820.191406 669.566406 L 1020.976562 669.566406 L 995.308594 601.960938 C 993.597656 597.539062 995.878906 592.546875 1000.300781 590.976562 C 1004.722656 589.265625 1009.710938 591.546875 1011.28125 595.96875 L 1041.226562 675.273438 C 1042.226562 677.839844 1041.796875 680.835938 1040.230469 683.117188 C 1038.945312 685.398438 1036.378906 686.683594 1033.527344 686.683594 Z M 1033.527344 686.683594 " fill-opacity="1" fill-rule="nonzero"/><path fill="#000000" d="M 750.03125 743.734375 C 745.324219 743.734375 741.472656 739.882812 741.472656 735.175781 C 741.472656 730.46875 745.324219 726.617188 750.03125 726.617188 C 768.996094 726.617188 784.824219 720.34375 794.808594 709.074219 C 799.800781 703.511719 802.9375 696.953125 804.078125 690.105469 C 803.792969 685.96875 803.792969 681.691406 804.21875 677.410156 C 804.648438 673.132812 808.355469 669.851562 812.632812 669.851562 C 816.910156 669.851562 820.617188 672.988281 821.191406 677.269531 C 821.761719 681.691406 821.761719 686.113281 821.191406 690.535156 C 822.902344 703.65625 830.316406 711.644531 837.019531 716.492188 C 851.5625 726.902344 873.523438 728.472656 890.210938 720.484375 C 905.609375 713.070312 914.878906 698.519531 916.449219 679.265625 L 893.773438 601.53125 C 892.492188 596.96875 895.058594 592.261719 899.621094 590.976562 C 904.183594 589.695312 908.890625 592.261719 910.175781 596.824219 L 933.277344 676.128906 C 933.5625 677.125 933.703125 677.980469 933.5625 678.980469 C 931.992188 705.367188 919.300781 725.621094 897.625 736.03125 C 875.238281 746.730469 847 744.589844 827.179688 730.613281 C 820.90625 726.191406 815.914062 720.914062 812.0625 714.921875 C 810.78125 716.921875 809.210938 718.773438 807.640625 720.628906 C 794.378906 735.320312 773.988281 743.734375 750.03125 743.734375 Z M 750.03125 743.734375 " fill-opacity="1" fill-rule="nonzero"/><g clip-path="url(#4fbaf7378c)"><path fill="#000000" d="M 978.625 745.019531 C 948.820312 745.019531 916.589844 724.050781 916.589844 678.125 C 916.589844 673.417969 920.441406 669.566406 925.148438 669.566406 C 929.855469 669.566406 933.703125 673.417969 933.703125 678.125 C 933.703125 693.957031 938.554688 706.9375 947.679688 715.777344 C 955.664062 723.480469 966.644531 727.761719 978.480469 727.761719 C 1000.871094 727.761719 1024.972656 712.214844 1024.972656 677.980469 C 1024.972656 673.273438 1028.820312 669.425781 1033.527344 669.425781 C 1038.234375 669.425781 1042.082031 673.273438 1042.082031 677.980469 C 1042.082031 698.234375 1035.238281 715.492188 1022.117188 727.761719 C 1010.566406 739.027344 995.023438 745.019531 978.625 745.019531 Z M 978.625 745.019531 " fill-opacity="1" fill-rule="nonzero"/></g><g clip-path="url(#2781a8a8a2)"><path fill="#000000" d="M 1033.527344 1045.824219 L 750.03125 1045.824219 C 745.324219 1045.824219 741.472656 1041.972656 741.472656 1037.265625 C 741.472656 1032.558594 745.324219 1028.710938 750.03125 1028.710938 L 999.015625 1028.710938 L 999.015625 735.175781 C 999.015625 730.46875 1002.867188 726.617188 1007.574219 726.617188 C 1012.277344 726.617188 1016.128906 730.46875 1016.128906 735.175781 L 1016.128906 1028.710938 L 1033.527344 1028.710938 C 1038.234375 1028.710938 1042.082031 1032.558594 1042.082031 1037.265625 C 1042.082031 1041.972656 1038.234375 1045.824219 1033.527344 1045.824219 Z M 1033.527344 1045.824219 " fill-opacity="1" fill-rule="nonzero"/></g><g clip-path="url(#0fcda78c47)"><path fill="#000000" d="M 750.03125 607.523438 L 570.347656 607.523438 C 565.640625 607.523438 561.792969 603.671875 561.792969 598.964844 L 561.792969 462.753906 C 561.792969 458.046875 565.640625 454.195312 570.347656 454.195312 L 750.03125 454.195312 C 754.734375 454.195312 758.585938 458.046875 758.585938 462.753906 C 758.585938 467.460938 754.734375 471.3125 750.03125 471.3125 L 578.90625 471.3125 L 578.90625 590.40625 L 750.03125 590.40625 C 754.734375 590.40625 758.585938 594.257812 758.585938 598.964844 C 758.585938 603.671875 754.734375 607.523438 750.03125 607.523438 Z M 750.03125 607.523438 " fill-opacity="1" fill-rule="nonzero"/></g><path fill="#000000" d="M 570.347656 607.523438 L 496.480469 607.523438 C 491.773438 607.523438 487.921875 603.671875 487.921875 598.964844 L 487.921875 555.890625 C 487.921875 544.335938 497.335938 535.066406 508.742188 535.066406 L 570.347656 535.066406 C 575.054688 535.066406 578.90625 538.917969 578.90625 543.625 L 578.90625 598.964844 C 578.90625 603.671875 575.054688 607.523438 570.347656 607.523438 Z M 505.035156 590.40625 L 561.792969 590.40625 L 561.792969 552.183594 L 508.742188 552.183594 C 506.746094 552.183594 505.035156 553.894531 505.035156 555.890625 Z M 505.035156 590.40625 " fill-opacity="1" fill-rule="nonzero"/><path fill="#000000" d="M 750.03125 686.683594 L 466.53125 686.683594 C 463.679688 686.683594 461.113281 685.257812 459.542969 682.972656 C 457.976562 680.691406 457.546875 677.695312 458.546875 675.128906 L 488.492188 595.828125 C 490.203125 591.40625 495.054688 589.125 499.472656 590.835938 C 503.894531 592.546875 506.175781 597.394531 504.464844 601.816406 L 478.796875 669.425781 L 679.582031 669.425781 L 688.566406 597.679688 C 689.136719 592.972656 693.417969 589.695312 698.121094 590.265625 C 702.828125 590.835938 706.109375 595.113281 705.539062 599.820312 L 696.695312 669.425781 L 750.03125 669.425781 C 754.734375 669.425781 758.585938 673.273438 758.585938 677.980469 C 758.585938 682.972656 754.734375 686.683594 750.03125 686.683594 Z M 750.03125 686.683594 " fill-opacity="1" fill-rule="nonzero"/><path fill="#000000" d="M 750.03125 743.734375 C 726.074219 743.734375 705.679688 735.460938 692.417969 720.34375 C 690.847656 718.488281 689.28125 716.636719 687.996094 714.636719 C 684.148438 720.628906 679.15625 725.90625 672.882812 730.328125 C 653.058594 744.304688 624.824219 746.585938 602.433594 735.746094 C 580.757812 725.335938 568.066406 705.082031 566.5 678.695312 C 566.5 677.695312 566.5 676.699219 566.785156 675.84375 L 589.886719 596.539062 C 591.167969 591.976562 596.015625 589.410156 600.4375 590.691406 C 605 591.976562 607.566406 596.824219 606.285156 601.246094 L 583.609375 678.980469 C 585.179688 698.09375 594.449219 712.785156 609.851562 720.199219 C 626.535156 728.1875 648.351562 726.617188 663.042969 716.207031 C 669.742188 711.5 677.160156 703.371094 678.871094 690.25 C 678.300781 685.828125 678.300781 681.40625 678.871094 676.984375 C 679.441406 672.703125 683.007812 669.566406 687.425781 669.566406 C 691.703125 669.566406 695.414062 672.847656 695.839844 677.125 C 696.269531 681.546875 696.410156 685.828125 695.984375 689.820312 C 697.125 696.667969 700.261719 703.226562 705.253906 708.789062 C 715.234375 720.199219 731.207031 726.332031 750.03125 726.332031 C 754.734375 726.332031 758.585938 730.183594 758.585938 734.890625 C 758.585938 739.597656 754.734375 743.734375 750.03125 743.734375 Z M 750.03125 743.734375 " fill-opacity="1" fill-rule="nonzero"/><g clip-path="url(#c3dae48319)"><path fill="#000000" d="M 521.433594 745.019531 C 504.894531 745.019531 489.492188 739.027344 477.796875 727.902344 C 464.820312 715.636719 457.832031 698.378906 457.832031 678.125 C 457.832031 673.417969 461.683594 669.566406 466.390625 669.566406 C 471.097656 669.566406 474.945312 673.417969 474.945312 678.125 C 474.945312 693.527344 479.9375 706.507812 489.492188 715.492188 C 497.761719 723.339844 509.457031 727.902344 521.433594 727.902344 C 543.824219 727.902344 566.355469 712.5 566.355469 678.125 C 566.355469 673.417969 570.207031 669.566406 574.910156 669.566406 C 579.617188 669.566406 583.46875 673.417969 583.46875 678.125 C 583.46875 724.195312 551.382812 745.019531 521.433594 745.019531 Z M 521.433594 745.019531 " fill-opacity="1" fill-rule="nonzero"/></g><g clip-path="url(#d0e9134a18)"><path fill="#000000" d="M 750.03125 1045.824219 L 466.53125 1045.824219 C 461.828125 1045.824219 457.976562 1041.972656 457.976562 1037.265625 C 457.976562 1032.558594 461.828125 1028.710938 466.53125 1028.710938 L 483.929688 1028.710938 L 483.929688 735.175781 C 483.929688 730.46875 487.78125 726.617188 492.488281 726.617188 C 497.191406 726.617188 501.042969 730.46875 501.042969 735.175781 L 501.042969 1028.710938 L 750.03125 1028.710938 C 754.734375 1028.710938 758.585938 1032.558594 758.585938 1037.265625 C 758.585938 1041.972656 754.734375 1045.824219 750.03125 1045.824219 Z M 750.03125 1045.824219 " fill-opacity="1" fill-rule="nonzero"/></g><path fill="#000000" d="M 770.707031 988.488281 L 533.414062 988.488281 C 528.707031 988.488281 524.859375 984.636719 524.859375 979.929688 L 524.859375 773.402344 C 524.859375 768.695312 528.707031 764.84375 533.414062 764.84375 L 770.707031 764.84375 C 775.414062 764.84375 779.265625 768.695312 779.265625 773.402344 L 779.265625 979.929688 C 779.265625 984.636719 775.414062 988.488281 770.707031 988.488281 Z M 541.96875 971.371094 L 762.152344 971.371094 L 762.152344 781.960938 L 541.96875 781.960938 Z M 541.96875 971.371094 " fill-opacity="1" fill-rule="nonzero"/><path fill="#000000" d="M 652.0625 949.265625 C 647.355469 949.265625 643.503906 945.414062 643.503906 940.707031 L 643.503906 848.140625 C 643.503906 835.875 650.347656 824.605469 661.1875 818.902344 C 669.03125 814.765625 677.445312 811.339844 686 809.058594 C 695.699219 806.347656 705.679688 804.921875 715.804688 804.78125 C 718.085938 804.78125 720.367188 805.636719 721.9375 807.203125 C 723.648438 808.773438 724.503906 811.054688 724.503906 813.339844 L 724.503906 912.039062 C 724.503906 914.605469 723.363281 917.171875 721.222656 918.742188 C 719.085938 920.308594 716.519531 920.882812 713.949219 920.308594 C 707.535156 918.742188 697.550781 917.457031 686.144531 920.308594 C 674.59375 923.164062 666.179688 929.011719 660.757812 934.003906 L 660.757812 940.847656 C 660.617188 945.414062 656.765625 949.265625 652.0625 949.265625 Z M 707.390625 822.324219 C 701.6875 822.894531 695.984375 824.035156 690.5625 825.460938 C 683.148438 827.457031 676.019531 830.3125 669.316406 833.875 C 664.039062 836.730469 660.757812 842.148438 660.757812 847.996094 L 660.757812 912.464844 C 666.605469 908.898438 673.738281 905.621094 682.148438 903.480469 C 690.421875 901.484375 699.121094 900.769531 707.535156 901.625 L 707.535156 822.324219 Z M 707.390625 822.324219 " fill-opacity="1" fill-rule="nonzero"/><path fill="#000000" d="M 740.761719 943.988281 L 658.761719 943.988281 C 654.058594 943.988281 650.207031 940.136719 650.207031 935.429688 C 650.207031 930.722656 654.058594 926.871094 658.761719 926.871094 L 732.0625 926.871094 L 732.0625 837.300781 L 715.804688 837.300781 C 711.097656 837.300781 707.25 833.449219 707.25 828.742188 C 707.25 824.035156 711.097656 820.183594 715.804688 820.183594 L 740.617188 820.183594 C 745.324219 820.183594 749.175781 824.035156 749.175781 828.742188 L 749.175781 935.429688 C 749.316406 940.277344 745.464844 943.988281 740.761719 943.988281 Z M 740.761719 943.988281 " fill-opacity="1" fill-rule="nonzero"/><path fill="#000000" d="M 652.0625 949.265625 C 647.355469 949.265625 643.503906 945.414062 643.503906 940.707031 L 643.503906 933.859375 C 637.941406 928.726562 629.527344 923.019531 618.121094 920.167969 C 606.710938 917.316406 596.730469 918.597656 590.3125 920.167969 C 587.746094 920.738281 585.035156 920.167969 583.039062 918.597656 C 581.042969 917.03125 579.761719 914.460938 579.761719 911.894531 L 579.761719 813.195312 C 579.761719 810.914062 580.757812 808.632812 582.328125 807.0625 C 584.039062 805.492188 586.175781 804.636719 588.460938 804.636719 C 598.585938 804.921875 608.566406 806.347656 618.261719 808.917969 C 626.820312 811.339844 635.089844 814.621094 643.078125 818.757812 C 654.058594 824.605469 660.757812 835.730469 660.757812 847.996094 L 660.757812 940.5625 C 660.617188 945.414062 656.765625 949.265625 652.0625 949.265625 Z M 604.144531 901.339844 C 610.277344 901.339844 616.265625 902.054688 622.113281 903.480469 C 630.527344 905.621094 637.515625 908.757812 643.363281 912.464844 L 643.363281 847.996094 C 643.363281 842.148438 640.082031 836.730469 634.804688 833.875 C 627.960938 830.3125 620.832031 827.457031 613.558594 825.460938 C 607.996094 823.890625 602.433594 822.894531 596.730469 822.324219 L 596.730469 901.769531 C 599.296875 901.484375 601.722656 901.339844 604.144531 901.339844 Z M 604.144531 901.339844 " fill-opacity="1" fill-rule="nonzero"/><path fill="#000000" d="M 645.359375 943.988281 L 563.503906 943.988281 C 558.796875 943.988281 554.945312 940.136719 554.945312 935.429688 L 554.945312 828.742188 C 554.945312 824.035156 558.796875 820.183594 563.503906 820.183594 L 588.316406 820.183594 C 593.023438 820.183594 596.871094 824.035156 596.871094 828.742188 C 596.871094 833.449219 593.023438 837.300781 588.316406 837.300781 L 572.058594 837.300781 L 572.058594 926.871094 L 645.359375 926.871094 C 650.0625 926.871094 653.914062 930.722656 653.914062 935.429688 C 653.914062 940.136719 650.0625 943.988281 645.359375 943.988281 Z M 645.359375 943.988281 " fill-opacity="1" fill-rule="nonzero"/><g clip-path="url(#0ca7d28d4a)"><path fill="#000000" d="M 956.804688 1045.824219 L 816.054688 1045.824219 C 811.351562 1045.824219 807.5 1041.972656 807.5 1037.265625 L 807.5 773.402344 C 807.5 768.695312 811.351562 764.84375 816.054688 764.84375 L 956.804688 764.84375 C 961.511719 764.84375 965.363281 768.695312 965.363281 773.402344 L 965.363281 1037.265625 C 965.363281 1041.972656 961.511719 1045.824219 956.804688 1045.824219 Z M 824.613281 1028.710938 L 948.25 1028.710938 L 948.25 781.960938 L 824.613281 781.960938 Z M 824.613281 1028.710938 " fill-opacity="1" fill-rule="nonzero"/></g><path fill="#000000" d="M 923.4375 926.730469 C 918.730469 926.730469 914.878906 922.878906 914.878906 918.171875 L 914.878906 899.628906 C 914.878906 894.921875 918.730469 891.070312 923.4375 891.070312 C 928.144531 891.070312 931.992188 894.921875 931.992188 899.628906 L 931.992188 918.171875 C 931.992188 922.878906 928.144531 926.730469 923.4375 926.730469 Z M 923.4375 926.730469 " fill-opacity="1" fill-rule="nonzero"/><path fill="#000000" d="M 627.246094 566.875 C 626.960938 566.875 626.675781 566.875 626.390625 566.875 C 621.6875 566.445312 618.261719 562.308594 618.691406 557.601562 C 619.546875 548.902344 620.402344 539.058594 624.109375 529.933594 C 628.671875 518.664062 636.945312 510.25 646.785156 506.96875 C 660.757812 502.40625 676.730469 507.824219 691.988281 522.371094 C 694.128906 524.511719 696.269531 526.652344 698.265625 528.648438 C 705.394531 535.921875 712.238281 542.910156 720.511719 545.765625 C 732.0625 549.613281 746.320312 543.765625 751.742188 532.925781 C 752.453125 531.644531 753.023438 530.074219 753.738281 528.503906 C 756.875 521.230469 761.152344 511.390625 772.132812 509.25 C 783.96875 506.96875 791.957031 515.8125 797.800781 522.230469 C 798.371094 522.941406 799.085938 523.65625 799.65625 524.226562 C 808.496094 533.640625 821.902344 538.773438 834.59375 537.777344 C 847.429688 536.777344 859.835938 529.503906 866.964844 518.808594 C 869.53125 514.8125 874.953125 513.816406 878.800781 516.523438 C 882.792969 519.09375 883.792969 524.511719 881.082031 528.363281 C 870.957031 543.480469 853.988281 553.324219 835.878906 554.890625 C 817.765625 556.320312 799.511719 549.328125 786.964844 535.921875 C 786.25 535.210938 785.539062 534.496094 784.96875 533.640625 C 781.832031 530.21875 777.550781 525.511719 775.269531 525.9375 C 773.132812 526.367188 770.992188 531.359375 769.28125 535.351562 C 768.570312 537.0625 767.710938 538.917969 766.855469 540.628906 C 757.589844 559.027344 734.199219 568.585938 714.804688 561.882812 C 702.683594 557.746094 694.128906 549.042969 685.859375 540.628906 C 683.863281 538.488281 681.863281 536.636719 680.011719 534.78125 C 675.164062 530.21875 662.757812 519.804688 652.0625 523.371094 C 647.070312 524.941406 642.507812 529.933594 639.9375 536.492188 C 637.230469 543.339844 636.375 551.46875 635.660156 559.3125 C 635.375 563.449219 631.527344 566.875 627.246094 566.875 Z M 627.246094 566.875 " fill-opacity="1" fill-rule="nonzero"/><g fill="#000000" fill-opacity="1"><g transform="translate(448.155376, 327.885302)"><g><path d="M 32.953125 1.3125 C 28.660156 1.3125 24.265625 0.773438 19.765625 -0.296875 C 15.273438 -1.367188 11.566406 -2.734375 8.640625 -4.390625 L 7.90625 -23.296875 L 14.203125 -23.875 L 18.3125 -10.84375 C 20.65625 -9.28125 23.265625 -8.082031 26.140625 -7.25 C 29.023438 -6.414062 32.03125 -6 35.15625 -6 C 39.9375 -6 43.789062 -7.171875 46.71875 -9.515625 C 49.65625 -11.859375 51.125 -15.035156 51.125 -19.046875 C 51.125 -22.460938 50.097656 -25.316406 48.046875 -27.609375 C 45.992188 -29.910156 43.332031 -31.914062 40.0625 -33.625 C 36.789062 -35.332031 33.320312 -36.988281 29.65625 -38.59375 C 26 -40.207031 22.554688 -42.0625 19.328125 -44.15625 C 16.109375 -46.257812 13.445312 -48.847656 11.34375 -51.921875 C 9.25 -55.003906 8.203125 -58.835938 8.203125 -63.421875 C 8.203125 -68.109375 9.546875 -72.285156 12.234375 -75.953125 C 14.921875 -79.617188 18.609375 -82.453125 23.296875 -84.453125 C 27.984375 -86.453125 33.351562 -87.453125 39.40625 -87.453125 C 41.945312 -87.453125 44.410156 -87.328125 46.796875 -87.078125 C 49.191406 -86.835938 51.414062 -86.445312 53.46875 -85.90625 C 55.519531 -85.375 57.375 -84.765625 59.03125 -84.078125 L 60.203125 -65.765625 L 53.90625 -65.1875 L 49.8125 -77.484375 C 46.6875 -79.441406 42.679688 -80.421875 37.796875 -80.421875 C 32.816406 -80.421875 28.835938 -79.195312 25.859375 -76.75 C 22.878906 -74.3125 21.390625 -71.140625 21.390625 -67.234375 C 21.390625 -63.722656 22.4375 -60.769531 24.53125 -58.375 C 26.632812 -55.976562 29.320312 -53.898438 32.59375 -52.140625 C 35.863281 -50.390625 39.328125 -48.707031 42.984375 -47.09375 C 46.648438 -45.476562 50.117188 -43.644531 53.390625 -41.59375 C 56.660156 -39.550781 59.34375 -37.039062 61.4375 -34.0625 C 63.539062 -31.082031 64.59375 -27.394531 64.59375 -23 C 64.59375 -18.3125 63.222656 -14.132812 60.484375 -10.46875 C 57.753906 -6.8125 54.019531 -3.929688 49.28125 -1.828125 C 44.550781 0.265625 39.109375 1.3125 32.953125 1.3125 Z M 32.953125 1.3125 "/></g></g><g transform="translate(518.321386, 327.885302)"><g><path d="M 36.328125 1.171875 C 30.660156 1.171875 25.53125 -0.0976562 20.9375 -2.640625 C 16.351562 -5.179688 12.742188 -8.816406 10.109375 -13.546875 C 7.472656 -18.285156 6.15625 -23.878906 6.15625 -30.328125 C 6.15625 -37.253906 7.570312 -43.253906 10.40625 -48.328125 C 13.238281 -53.410156 16.945312 -57.34375 21.53125 -60.125 C 26.125 -62.914062 31.054688 -64.257812 36.328125 -64.15625 C 43.941406 -64.0625 49.894531 -61.546875 54.1875 -56.609375 C 58.488281 -51.679688 60.640625 -44.628906 60.640625 -35.453125 L 60.640625 -32.8125 L 15.671875 -32.8125 L 15.671875 -39.265625 L 50.984375 -39.265625 L 49.359375 -37.359375 L 49.359375 -40.4375 C 49.359375 -46 48.113281 -50.316406 45.625 -53.390625 C 43.132812 -56.472656 39.644531 -58.015625 35.15625 -58.015625 C 32.425781 -58.015625 29.789062 -57.207031 27.25 -55.59375 C 24.707031 -53.976562 22.65625 -51.535156 21.09375 -48.265625 C 19.53125 -44.992188 18.75 -40.867188 18.75 -35.890625 L 18.75 -34.125 C 18.75 -26.125 20.722656 -19.875 24.671875 -15.375 C 28.628906 -10.882812 33.734375 -8.640625 39.984375 -8.640625 C 43.503906 -8.640625 46.609375 -9.296875 49.296875 -10.609375 C 51.984375 -11.929688 54.59375 -14.15625 57.125 -17.28125 L 60.796875 -13.921875 C 58.054688 -8.835938 54.585938 -5.050781 50.390625 -2.5625 C 46.191406 -0.0703125 41.503906 1.171875 36.328125 1.171875 Z M 36.328125 1.171875 "/></g></g><g transform="translate(584.23935, 327.885302)"><g><path d="M 4.109375 0 L 3.8125 -5.421875 L 13.328125 -7.46875 C 13.523438 -8.539062 13.644531 -10.175781 13.6875 -12.375 C 13.738281 -14.570312 13.8125 -17.523438 13.90625 -21.234375 C 14.007812 -24.953125 14.0625 -29.492188 14.0625 -34.859375 L 14.0625 -53.171875 C 14.0625 -56.785156 14.035156 -60.546875 13.984375 -64.453125 C 13.941406 -68.359375 13.894531 -72.066406 13.84375 -75.578125 C 13.789062 -79.097656 13.71875 -82.101562 13.625 -84.59375 C 13.53125 -87.082031 13.484375 -88.71875 13.484375 -89.5 L 2.640625 -90.96875 L 2.34375 -95.65625 L 23.296875 -101.65625 L 26.078125 -99.609375 C 25.972656 -95.410156 25.875 -91.285156 25.78125 -87.234375 C 25.6875 -83.179688 25.613281 -78.664062 25.5625 -73.6875 C 25.507812 -68.707031 25.484375 -62.703125 25.484375 -55.671875 L 25.34375 -32.078125 C 25.34375 -26.316406 25.414062 -21.113281 25.5625 -16.46875 C 25.707031 -11.832031 25.878906 -8.832031 26.078125 -7.46875 L 35.59375 -5.421875 L 35.296875 0 Z M 4.109375 0 "/></g></g><g transform="translate(623.643643, 327.885302)"><g><path d="M 4.109375 0 L 3.8125 -5.421875 L 13.328125 -7.46875 C 13.523438 -8.539062 13.644531 -10.175781 13.6875 -12.375 C 13.738281 -14.570312 13.8125 -17.523438 13.90625 -21.234375 C 14.007812 -24.953125 14.0625 -29.492188 14.0625 -34.859375 L 14.0625 -53.171875 C 14.0625 -56.785156 14.035156 -60.546875 13.984375 -64.453125 C 13.941406 -68.359375 13.894531 -72.066406 13.84375 -75.578125 C 13.789062 -79.097656 13.71875 -82.101562 13.625 -84.59375 C 13.53125 -87.082031 13.484375 -88.71875 13.484375 -89.5 L 2.640625 -90.96875 L 2.34375 -95.65625 L 23.296875 -101.65625 L 26.078125 -99.609375 C 25.972656 -95.410156 25.875 -91.285156 25.78125 -87.234375 C 25.6875 -83.179688 25.613281 -78.664062 25.5625 -73.6875 C 25.507812 -68.707031 25.484375 -62.703125 25.484375 -55.671875 L 25.34375 -32.078125 C 25.34375 -26.316406 25.414062 -21.113281 25.5625 -16.46875 C 25.707031 -11.832031 25.878906 -8.832031 26.078125 -7.46875 L 35.59375 -5.421875 L 35.296875 0 Z M 4.109375 0 "/></g></g><g transform="translate(663.047936, 327.885302)"><g/></g><g transform="translate(691.172934, 327.885302)"><g><path d="M 15.53125 -7.625 C 15.726562 -8.300781 15.921875 -10.59375 16.109375 -14.5 C 16.304688 -18.40625 16.40625 -23.289062 16.40625 -29.15625 L 16.40625 -56.6875 C 16.40625 -63.132812 16.304688 -68.285156 16.109375 -72.140625 C 15.921875 -76.003906 15.726562 -78.226562 15.53125 -78.8125 L 6.59375 -80.28125 L 6.890625 -85.984375 L 41.75 -85.984375 C 51.21875 -85.984375 58.441406 -84.222656 63.421875 -80.703125 C 68.410156 -77.191406 70.90625 -72.066406 70.90625 -65.328125 C 70.90625 -59.960938 68.78125 -55.421875 64.53125 -51.703125 C 60.28125 -47.992188 54.832031 -45.894531 48.1875 -45.40625 L 46.4375 -46.4375 C 55.8125 -46.144531 62.960938 -44.117188 67.890625 -40.359375 C 72.828125 -36.597656 75.296875 -31.394531 75.296875 -24.75 C 75.296875 -17.238281 72.023438 -11.234375 65.484375 -6.734375 C 58.941406 -2.242188 50.050781 0 38.8125 0 L 6.890625 0 L 6.59375 -5.5625 Z M 28.71875 -25.921875 C 28.71875 -21.628906 28.765625 -17.75 28.859375 -14.28125 C 28.953125 -10.8125 29.050781 -8.640625 29.15625 -7.765625 C 30.425781 -7.566406 32.132812 -7.34375 34.28125 -7.09375 C 36.425781 -6.851562 38.132812 -6.734375 39.40625 -6.734375 C 46.925781 -6.734375 52.566406 -8.097656 56.328125 -10.828125 C 60.085938 -13.566406 61.96875 -17.722656 61.96875 -23.296875 C 61.96875 -29.054688 59.988281 -33.375 56.03125 -36.25 C 52.070312 -39.132812 46.140625 -40.578125 38.234375 -40.578125 C 34.523438 -40.578125 31.960938 -40.578125 30.546875 -40.578125 C 29.128906 -40.578125 27.882812 -40.476562 26.8125 -40.28125 L 26.8125 -47.90625 C 28.664062 -47.800781 30.421875 -47.722656 32.078125 -47.671875 C 33.742188 -47.628906 35.550781 -47.609375 37.5 -47.609375 C 43.945312 -47.609375 48.898438 -49.023438 52.359375 -51.859375 C 55.828125 -54.691406 57.5625 -58.695312 57.5625 -63.875 C 57.5625 -68.945312 55.953125 -72.828125 52.734375 -75.515625 C 49.515625 -78.203125 44.875 -79.546875 38.8125 -79.546875 L 29 -79.546875 C 28.90625 -78.859375 28.832031 -76.660156 28.78125 -72.953125 C 28.738281 -69.242188 28.71875 -65.09375 28.71875 -60.5 Z M 28.71875 -25.921875 "/></g></g><g transform="translate(773.204177, 327.885302)"><g><path d="M 37.640625 1.171875 C 31.296875 1.171875 25.753906 -0.191406 21.015625 -2.921875 C 16.285156 -5.660156 12.597656 -9.492188 9.953125 -14.421875 C 7.316406 -19.359375 6 -25 6 -31.34375 C 6 -37.988281 7.441406 -43.75 10.328125 -48.625 C 13.210938 -53.507812 17.117188 -57.316406 22.046875 -60.046875 C 26.972656 -62.785156 32.367188 -64.15625 38.234375 -64.15625 C 44.285156 -64.15625 49.554688 -62.8125 54.046875 -60.125 C 58.546875 -57.445312 62.0625 -53.691406 64.59375 -48.859375 C 67.132812 -44.023438 68.40625 -38.382812 68.40625 -31.9375 C 68.40625 -25.78125 67.035156 -20.1875 64.296875 -15.15625 C 61.566406 -10.132812 57.882812 -6.15625 53.25 -3.21875 C 48.613281 -0.289062 43.410156 1.171875 37.640625 1.171875 Z M 39.109375 -5.71875 C 42.429688 -5.71875 45.3125 -6.71875 47.75 -8.71875 C 50.195312 -10.71875 52.101562 -13.5 53.46875 -17.0625 C 54.832031 -20.625 55.515625 -24.703125 55.515625 -29.296875 C 55.515625 -37.691406 53.78125 -44.5 50.3125 -49.71875 C 46.851562 -54.945312 42.289062 -57.5625 36.625 -57.5625 C 31.351562 -57.5625 27.128906 -55.390625 23.953125 -51.046875 C 20.773438 -46.703125 19.1875 -40.867188 19.1875 -33.546875 C 19.1875 -28.078125 20.039062 -23.242188 21.75 -19.046875 C 23.457031 -14.847656 25.828125 -11.578125 28.859375 -9.234375 C 31.890625 -6.890625 35.304688 -5.71875 39.109375 -5.71875 Z M 39.109375 -5.71875 "/></g></g><g transform="translate(847.618233, 327.885302)"><g><path d="M 37.640625 1.171875 C 31.296875 1.171875 25.753906 -0.191406 21.015625 -2.921875 C 16.285156 -5.660156 12.597656 -9.492188 9.953125 -14.421875 C 7.316406 -19.359375 6 -25 6 -31.34375 C 6 -37.988281 7.441406 -43.75 10.328125 -48.625 C 13.210938 -53.507812 17.117188 -57.316406 22.046875 -60.046875 C 26.972656 -62.785156 32.367188 -64.15625 38.234375 -64.15625 C 44.285156 -64.15625 49.554688 -62.8125 54.046875 -60.125 C 58.546875 -57.445312 62.0625 -53.691406 64.59375 -48.859375 C 67.132812 -44.023438 68.40625 -38.382812 68.40625 -31.9375 C 68.40625 -25.78125 67.035156 -20.1875 64.296875 -15.15625 C 61.566406 -10.132812 57.882812 -6.15625 53.25 -3.21875 C 48.613281 -0.289062 43.410156 1.171875 37.640625 1.171875 Z M 39.109375 -5.71875 C 42.429688 -5.71875 45.3125 -6.71875 47.75 -8.71875 C 50.195312 -10.71875 52.101562 -13.5 53.46875 -17.0625 C 54.832031 -20.625 55.515625 -24.703125 55.515625 -29.296875 C 55.515625 -37.691406 53.78125 -44.5 50.3125 -49.71875 C 46.851562 -54.945312 42.289062 -57.5625 36.625 -57.5625 C 31.351562 -57.5625 27.128906 -55.390625 23.953125 -51.046875 C 20.773438 -46.703125 19.1875 -40.867188 19.1875 -33.546875 C 19.1875 -28.078125 20.039062 -23.242188 21.75 -19.046875 C 23.457031 -14.847656 25.828125 -11.578125 28.859375 -9.234375 C 31.890625 -6.890625 35.304688 -5.71875 39.109375 -5.71875 Z M 39.109375 -5.71875 "/></g></g><g transform="translate(922.032289, 327.885302)"><g><path d="M 5.28125 0 L 4.984375 -5.28125 L 13.328125 -7.46875 C 13.429688 -8.351562 13.53125 -9.914062 13.625 -12.15625 C 13.71875 -14.40625 13.8125 -17.210938 13.90625 -20.578125 C 14.007812 -23.953125 14.0625 -27.738281 14.0625 -31.9375 L 14.0625 -53.171875 C 14.0625 -56.785156 14.035156 -60.546875 13.984375 -64.453125 C 13.941406 -68.359375 13.894531 -72.066406 13.84375 -75.578125 C 13.789062 -79.097656 13.71875 -82.101562 13.625 -84.59375 C 13.53125 -87.082031 13.484375 -88.71875 13.484375 -89.5 L 2.640625 -90.96875 L 2.34375 -95.65625 L 23 -101.65625 L 25.921875 -99.609375 C 25.734375 -96.390625 25.613281 -93.164062 25.5625 -89.9375 C 25.507812 -86.71875 25.4375 -83.421875 25.34375 -80.046875 C 25.25 -76.679688 25.203125 -73.117188 25.203125 -69.359375 C 25.203125 -65.597656 25.203125 -61.519531 25.203125 -57.125 L 25.046875 -21.234375 C 25.046875 -18.703125 25.09375 -16.484375 25.1875 -14.578125 C 25.289062 -12.671875 25.390625 -11.128906 25.484375 -9.953125 C 25.585938 -8.785156 25.640625 -7.957031 25.640625 -7.46875 L 34.71875 -5.28125 L 34.421875 0 Z M 70.90625 0 L 54.203125 0 C 52.441406 -2.34375 51.046875 -4.097656 50.015625 -5.265625 C 48.992188 -6.441406 47.992188 -7.566406 47.015625 -8.640625 L 26.953125 -30.46875 L 22.859375 -30.46875 L 23 -33.984375 L 28.5625 -35.59375 L 48.921875 -55.8125 L 39.265625 -57.5625 L 39.546875 -62.984375 L 69 -62.984375 L 69.28125 -57.5625 L 59.625 -55.8125 L 33.40625 -32.234375 L 35.59375 -37.5 L 56.25 -15.234375 C 57.425781 -13.867188 58.84375 -12.378906 60.5 -10.765625 C 62.15625 -9.148438 63.570312 -7.804688 64.75 -6.734375 L 71.34375 -5.421875 Z M 70.90625 0 "/></g></g></g><g fill="#000000" fill-opacity="1"><g transform="translate(992.930722, 327.885302)"><g><path d="M 28.71875 1.171875 C 25.101562 1.171875 21.488281 0.757812 17.875 -0.0625 C 14.257812 -0.894531 11.179688 -2 8.640625 -3.375 L 7.90625 -19.046875 L 15.09375 -19.046875 L 18.015625 -8.5 C 21.242188 -6.15625 25.148438 -4.984375 29.734375 -4.984375 C 32.960938 -4.984375 35.625 -5.785156 37.71875 -7.390625 C 39.820312 -9.003906 40.875 -11.179688 40.875 -13.921875 C 40.875 -16.554688 39.941406 -18.800781 38.078125 -20.65625 C 36.222656 -22.507812 32.613281 -24.5625 27.25 -26.8125 C 20.3125 -29.832031 15.425781 -32.757812 12.59375 -35.59375 C 9.757812 -38.425781 8.34375 -41.992188 8.34375 -46.296875 C 8.34375 -49.804688 9.394531 -52.90625 11.5 -55.59375 C 13.601562 -58.28125 16.507812 -60.378906 20.21875 -61.890625 C 23.925781 -63.398438 28.222656 -64.15625 33.109375 -64.15625 C 35.835938 -64.15625 38.617188 -63.9375 41.453125 -63.5 C 44.285156 -63.0625 46.628906 -62.40625 48.484375 -61.53125 L 50.09375 -46.296875 L 43.21875 -46.296875 L 39.703125 -56.25 C 38.722656 -56.832031 37.546875 -57.296875 36.171875 -57.640625 C 34.804688 -57.984375 33.34375 -58.15625 31.78125 -58.15625 C 28.363281 -58.15625 25.628906 -57.347656 23.578125 -55.734375 C 21.535156 -54.128906 20.515625 -52.054688 20.515625 -49.515625 C 20.515625 -46.585938 21.632812 -44.21875 23.875 -42.40625 C 26.125 -40.601562 30.082031 -38.382812 35.75 -35.75 C 42.1875 -32.8125 46.675781 -29.925781 49.21875 -27.09375 C 51.757812 -24.269531 53.03125 -20.851562 53.03125 -16.84375 C 53.03125 -11.570312 50.734375 -7.25 46.140625 -3.875 C 41.554688 -0.507812 35.75 1.171875 28.71875 1.171875 Z M 28.71875 1.171875 "/></g></g></g><g fill="#000000" fill-opacity="1"><g transform="translate(213.623483, 1260.329871)"><g><path d="M 24.171875 0.96875 C 21.015625 0.96875 17.789062 0.578125 14.5 -0.203125 C 11.207031 -0.992188 8.488281 -2 6.34375 -3.21875 L 5.796875 -17.078125 L 10.421875 -17.515625 L 13.421875 -7.953125 C 15.140625 -6.804688 17.054688 -5.925781 19.171875 -5.3125 C 21.285156 -4.707031 23.488281 -4.40625 25.78125 -4.40625 C 29.289062 -4.40625 32.117188 -5.265625 34.265625 -6.984375 C 36.410156 -8.703125 37.484375 -11.03125 37.484375 -13.96875 C 37.484375 -16.46875 36.734375 -18.5625 35.234375 -20.25 C 33.734375 -21.9375 31.78125 -23.40625 29.375 -24.65625 C 26.976562 -25.90625 24.4375 -27.117188 21.75 -28.296875 C 19.0625 -29.484375 16.535156 -30.847656 14.171875 -32.390625 C 11.816406 -33.929688 9.867188 -35.828125 8.328125 -38.078125 C 6.785156 -40.335938 6.015625 -43.148438 6.015625 -46.515625 C 6.015625 -49.953125 7 -53.015625 8.96875 -55.703125 C 10.9375 -58.390625 13.640625 -60.460938 17.078125 -61.921875 C 20.515625 -63.390625 24.453125 -64.125 28.890625 -64.125 C 30.753906 -64.125 32.5625 -64.035156 34.3125 -63.859375 C 36.070312 -63.679688 37.703125 -63.394531 39.203125 -63 C 40.710938 -62.601562 42.078125 -62.15625 43.296875 -61.65625 L 44.15625 -48.234375 L 39.53125 -47.796875 L 36.53125 -56.828125 C 34.238281 -58.253906 31.300781 -58.96875 27.71875 -58.96875 C 24.0625 -58.96875 21.140625 -58.070312 18.953125 -56.28125 C 16.773438 -54.5 15.6875 -52.175781 15.6875 -49.3125 C 15.6875 -46.726562 16.453125 -44.554688 17.984375 -42.796875 C 19.523438 -41.046875 21.492188 -39.523438 23.890625 -38.234375 C 26.296875 -36.953125 28.84375 -35.71875 31.53125 -34.53125 C 34.21875 -33.351562 36.757812 -32.007812 39.15625 -30.5 C 41.550781 -29 43.519531 -27.15625 45.0625 -24.96875 C 46.601562 -22.789062 47.375 -20.085938 47.375 -16.859375 C 47.375 -13.421875 46.367188 -10.359375 44.359375 -7.671875 C 42.359375 -4.992188 39.617188 -2.882812 36.140625 -1.34375 C 32.671875 0.195312 28.679688 0.96875 24.171875 0.96875 Z M 24.171875 0.96875 "/></g></g></g><g fill="#000000" fill-opacity="1"><g transform="translate(265.074902, 1260.329871)"><g><path d="M 26.640625 0.859375 C 22.484375 0.859375 18.722656 -0.0703125 15.359375 -1.9375 C 11.992188 -3.800781 9.34375 -6.46875 7.40625 -9.9375 C 5.476562 -13.40625 4.515625 -17.503906 4.515625 -22.234375 C 4.515625 -27.316406 5.550781 -31.71875 7.625 -35.4375 C 9.707031 -39.164062 12.429688 -42.050781 15.796875 -44.09375 C 19.160156 -46.132812 22.773438 -47.117188 26.640625 -47.046875 C 32.222656 -46.972656 36.585938 -45.128906 39.734375 -41.515625 C 42.890625 -37.898438 44.46875 -32.726562 44.46875 -26 L 44.46875 -24.0625 L 11.5 -24.0625 L 11.5 -28.796875 L 37.390625 -28.796875 L 36.203125 -27.390625 L 36.203125 -29.65625 C 36.203125 -33.726562 35.285156 -36.894531 33.453125 -39.15625 C 31.628906 -41.414062 29.070312 -42.546875 25.78125 -42.546875 C 23.78125 -42.546875 21.847656 -41.953125 19.984375 -40.765625 C 18.117188 -39.585938 16.613281 -37.796875 15.46875 -35.390625 C 14.320312 -32.992188 13.75 -29.96875 13.75 -26.3125 L 13.75 -25.03125 C 13.75 -19.15625 15.195312 -14.570312 18.09375 -11.28125 C 21 -7.988281 24.742188 -6.34375 29.328125 -6.34375 C 31.898438 -6.34375 34.171875 -6.820312 36.140625 -7.78125 C 38.117188 -8.75 40.035156 -10.378906 41.890625 -12.671875 L 44.578125 -10.203125 C 42.578125 -6.484375 40.035156 -3.707031 36.953125 -1.875 C 33.867188 -0.0507812 30.429688 0.859375 26.640625 0.859375 Z M 26.640625 0.859375 "/></g></g></g><g fill="#000000" fill-opacity="1"><g transform="translate(313.411308, 1260.329871)"><g><path d="M 3.015625 0 L 2.796875 -3.96875 L 9.78125 -5.484375 C 9.914062 -6.265625 10 -7.460938 10.03125 -9.078125 C 10.070312 -10.691406 10.128906 -12.859375 10.203125 -15.578125 C 10.273438 -18.296875 10.3125 -21.625 10.3125 -25.5625 L 10.3125 -39 C 10.3125 -41.644531 10.289062 -44.398438 10.25 -47.265625 C 10.21875 -50.128906 10.179688 -52.847656 10.140625 -55.421875 C 10.109375 -58.003906 10.054688 -60.207031 9.984375 -62.03125 C 9.921875 -63.863281 9.890625 -65.066406 9.890625 -65.640625 L 1.9375 -66.703125 L 1.71875 -70.140625 L 17.078125 -74.546875 L 19.125 -73.046875 C 19.050781 -69.960938 18.976562 -66.9375 18.90625 -63.96875 C 18.832031 -61 18.773438 -57.6875 18.734375 -54.03125 C 18.703125 -50.382812 18.6875 -45.984375 18.6875 -40.828125 L 18.578125 -23.53125 C 18.578125 -19.300781 18.628906 -15.484375 18.734375 -12.078125 C 18.847656 -8.679688 18.976562 -6.484375 19.125 -5.484375 L 26.109375 -3.96875 L 25.890625 0 Z M 3.015625 0 "/></g></g></g><g fill="#000000" fill-opacity="1"><g transform="translate(342.305737, 1260.329871)"><g><path d="M 3.015625 0 L 2.796875 -3.96875 L 9.78125 -5.484375 C 9.914062 -6.265625 10 -7.460938 10.03125 -9.078125 C 10.070312 -10.691406 10.128906 -12.859375 10.203125 -15.578125 C 10.273438 -18.296875 10.3125 -21.625 10.3125 -25.5625 L 10.3125 -39 C 10.3125 -41.644531 10.289062 -44.398438 10.25 -47.265625 C 10.21875 -50.128906 10.179688 -52.847656 10.140625 -55.421875 C 10.109375 -58.003906 10.054688 -60.207031 9.984375 -62.03125 C 9.921875 -63.863281 9.890625 -65.066406 9.890625 -65.640625 L 1.9375 -66.703125 L 1.71875 -70.140625 L 17.078125 -74.546875 L 19.125 -73.046875 C 19.050781 -69.960938 18.976562 -66.9375 18.90625 -63.96875 C 18.832031 -61 18.773438 -57.6875 18.734375 -54.03125 C 18.703125 -50.382812 18.6875 -45.984375 18.6875 -40.828125 L 18.578125 -23.53125 C 18.578125 -19.300781 18.628906 -15.484375 18.734375 -12.078125 C 18.847656 -8.679688 18.976562 -6.484375 19.125 -5.484375 L 26.109375 -3.96875 L 25.890625 0 Z M 3.015625 0 "/></g></g></g><g fill="#000000" fill-opacity="1"><g transform="translate(371.200167, 1260.329871)"><g/></g></g><g fill="#000000" fill-opacity="1"><g transform="translate(391.8237, 1260.329871)"><g><path d="M 23.53125 0.4375 L 4.625 -40.71875 L -0.4375 -42.328125 L -0.109375 -46.1875 L 20.734375 -46.1875 L 20.953125 -42.328125 L 14.28125 -40.71875 L 28.890625 -8.0625 Z M 51.03125 -46.1875 L 51.34375 -42.328125 L 46.296875 -40.71875 L 28.03125 -2.359375 L 19.4375 15.46875 C 17.863281 18.757812 16.195312 21.085938 14.4375 22.453125 C 12.6875 23.816406 10.664062 24.5 8.375 24.5 C 6.65625 24.5 5.222656 24.066406 4.078125 23.203125 C 2.929688 22.347656 2.359375 21.238281 2.359375 19.875 C 2.359375 18.800781 2.785156 17.796875 3.640625 16.859375 C 4.503906 15.929688 5.832031 15.179688 7.625 14.609375 L 17.625 11.609375 L 12.671875 16.96875 L 24.59375 -6.015625 L 25.78125 -7.953125 L 39.75 -40.71875 L 33.09375 -42.328125 L 33.296875 -46.1875 Z M 51.03125 -46.1875 "/></g></g></g><g fill="#000000" fill-opacity="1"><g transform="translate(441.556469, 1260.329871)"><g><path d="M 27.609375 0.859375 C 22.953125 0.859375 18.882812 -0.140625 15.40625 -2.140625 C 11.9375 -4.148438 9.234375 -6.960938 7.296875 -10.578125 C 5.367188 -14.191406 4.40625 -18.328125 4.40625 -22.984375 C 4.40625 -27.859375 5.460938 -32.082031 7.578125 -35.65625 C 9.691406 -39.238281 12.554688 -42.03125 16.171875 -44.03125 C 19.785156 -46.039062 23.738281 -47.046875 28.03125 -47.046875 C 32.476562 -47.046875 36.347656 -46.0625 39.640625 -44.09375 C 42.929688 -42.125 45.507812 -39.367188 47.375 -35.828125 C 49.238281 -32.285156 50.171875 -28.148438 50.171875 -23.421875 C 50.171875 -18.910156 49.164062 -14.8125 47.15625 -11.125 C 45.15625 -7.4375 42.453125 -4.515625 39.046875 -2.359375 C 35.648438 -0.210938 31.835938 0.859375 27.609375 0.859375 Z M 28.6875 -4.1875 C 31.113281 -4.1875 33.222656 -4.921875 35.015625 -6.390625 C 36.804688 -7.859375 38.203125 -9.898438 39.203125 -12.515625 C 40.210938 -15.128906 40.71875 -18.117188 40.71875 -21.484375 C 40.71875 -27.640625 39.445312 -32.632812 36.90625 -36.46875 C 34.363281 -40.300781 31.015625 -42.21875 26.859375 -42.21875 C 22.992188 -42.21875 19.894531 -40.625 17.5625 -37.4375 C 15.238281 -34.25 14.078125 -29.96875 14.078125 -24.59375 C 14.078125 -20.582031 14.703125 -17.035156 15.953125 -13.953125 C 17.203125 -10.878906 18.9375 -8.484375 21.15625 -6.765625 C 23.382812 -5.046875 25.894531 -4.1875 28.6875 -4.1875 Z M 28.6875 -4.1875 "/></g></g></g><g fill="#000000" fill-opacity="1"><g transform="translate(496.122901, 1260.329871)"><g><path d="M 48.875 -7.515625 L 55.640625 -5.796875 L 55.640625 -2.25 L 41.6875 1.1875 L 40.0625 -0.21875 L 40.171875 -6.984375 L 39.859375 -7.09375 C 37.773438 -4.15625 35.640625 -2.09375 33.453125 -0.90625 C 31.273438 0.269531 28.929688 0.859375 26.421875 0.859375 C 21.628906 0.859375 17.617188 -0.625 14.390625 -3.59375 C 11.171875 -6.570312 9.5625 -11.03125 9.5625 -16.96875 L 9.5625 -26.21875 C 9.5625 -28.144531 9.503906 -30.070312 9.390625 -32 C 9.285156 -33.9375 9.164062 -35.875 9.03125 -37.8125 L 1.71875 -39.3125 L 1.71875 -42.859375 L 16.328125 -46.84375 L 18.265625 -45.125 C 18.117188 -42.894531 18.007812 -40.523438 17.9375 -38.015625 C 17.863281 -35.515625 17.828125 -32.90625 17.828125 -30.1875 L 17.71875 -18.375 C 17.71875 -13.925781 18.753906 -10.753906 20.828125 -8.859375 C 22.910156 -6.960938 25.566406 -6.015625 28.796875 -6.015625 C 30.722656 -6.015625 32.6875 -6.515625 34.6875 -7.515625 C 36.695312 -8.523438 38.457031 -10.242188 39.96875 -12.671875 L 39.96875 -25.140625 C 39.96875 -26.710938 39.945312 -28.269531 39.90625 -29.8125 C 39.875 -31.351562 39.820312 -32.820312 39.75 -34.21875 C 39.675781 -35.613281 39.566406 -36.8125 39.421875 -37.8125 L 31.578125 -39.3125 L 31.578125 -42.859375 L 46.734375 -46.84375 L 48.34375 -45.328125 C 48.269531 -43.328125 48.210938 -41.554688 48.171875 -40.015625 C 48.140625 -38.472656 48.125 -36.929688 48.125 -35.390625 C 48.125 -33.859375 48.125 -32.085938 48.125 -30.078125 L 48.125 -22.453125 C 48.125 -18.515625 48.210938 -15.34375 48.390625 -12.9375 C 48.566406 -10.539062 48.726562 -8.734375 48.875 -7.515625 Z M 48.875 -7.515625 "/></g></g></g><g fill="#000000" fill-opacity="1"><g transform="translate(554.448831, 1260.329871)"><g><path d="M 3.546875 0 L 3.21875 -3.875 L 9.890625 -5.484375 C 9.953125 -5.835938 10.019531 -6.460938 10.09375 -7.359375 C 10.164062 -8.253906 10.21875 -9.503906 10.25 -11.109375 C 10.289062 -12.722656 10.3125 -14.675781 10.3125 -16.96875 L 10.421875 -25.359375 C 10.421875 -27.710938 10.332031 -30.050781 10.15625 -32.375 C 9.976562 -34.707031 9.78125 -36.519531 9.5625 -37.8125 L 2.6875 -39.3125 L 2.6875 -42.859375 L 17.078125 -46.84375 L 18.578125 -45.328125 L 18.15625 -36.3125 L 18.484375 -36.203125 C 20.628906 -40.359375 22.789062 -43.171875 24.96875 -44.640625 C 27.15625 -46.109375 29.253906 -46.84375 31.265625 -46.84375 C 32.910156 -46.84375 34.285156 -46.410156 35.390625 -45.546875 C 36.503906 -44.691406 37.0625 -43.472656 37.0625 -41.890625 C 37.0625 -40.242188 36.46875 -38.953125 35.28125 -38.015625 C 34.101562 -37.085938 32.617188 -36.625 30.828125 -36.625 C 29.535156 -36.625 28.300781 -36.910156 27.125 -37.484375 C 25.945312 -38.054688 24.816406 -38.847656 23.734375 -39.859375 L 25.671875 -39.203125 C 24.378906 -38.347656 23.125 -37.128906 21.90625 -35.546875 C 20.695312 -33.972656 19.554688 -32.078125 18.484375 -29.859375 L 18.578125 -19.875 C 18.648438 -18.082031 18.722656 -16.238281 18.796875 -14.34375 C 18.867188 -12.445312 18.941406 -10.691406 19.015625 -9.078125 C 19.085938 -7.460938 19.160156 -6.265625 19.234375 -5.484375 L 28.578125 -4.078125 L 28.359375 0 Z M 3.546875 0 "/></g></g></g><g fill="#000000" fill-opacity="1"><g transform="translate(593.547613, 1260.329871)"><g/></g></g><g fill="#000000" fill-opacity="1"><g transform="translate(614.171147, 1260.329871)"><g><path d="M 8.484375 -2.90625 C 8.628906 -5.332031 8.703125 -7.476562 8.703125 -9.34375 C 8.703125 -11.207031 8.703125 -13.035156 8.703125 -14.828125 C 8.703125 -16.617188 8.703125 -18.515625 8.703125 -20.515625 L 8.703125 -39 C 8.703125 -41.5 8.679688 -44.144531 8.640625 -46.9375 C 8.609375 -49.738281 8.570312 -52.441406 8.53125 -55.046875 C 8.5 -57.660156 8.460938 -59.914062 8.421875 -61.8125 C 8.390625 -63.71875 8.375 -65.03125 8.375 -65.75 L 0.4375 -66.703125 L 0.21875 -70.140625 L 15.359375 -74.546875 L 17.40625 -73.046875 C 17.332031 -70.035156 17.257812 -67.023438 17.1875 -64.015625 C 17.113281 -61.015625 17.039062 -57.546875 16.96875 -53.609375 C 16.894531 -49.671875 16.828125 -44.800781 16.765625 -39 L 17.078125 -38.890625 C 18.796875 -41.328125 20.976562 -43.296875 23.625 -44.796875 C 26.28125 -46.296875 29.179688 -47.046875 32.328125 -47.046875 C 35.910156 -47.046875 39.1875 -46.164062 42.15625 -44.40625 C 45.132812 -42.65625 47.550781 -40.148438 49.40625 -36.890625 C 51.269531 -33.640625 52.203125 -29.6875 52.203125 -25.03125 C 52.203125 -19.945312 51.003906 -15.453125 48.609375 -11.546875 C 46.210938 -7.640625 43.007812 -4.59375 39 -2.40625 C 34.988281 -0.226562 30.546875 0.859375 25.671875 0.859375 C 22.597656 0.859375 19.535156 0.5 16.484375 -0.21875 C 13.441406 -0.9375 10.773438 -1.832031 8.484375 -2.90625 Z M 28.03125 -4.625 C 32.257812 -4.625 35.75 -6.21875 38.5 -9.40625 C 41.257812 -12.59375 42.675781 -17.15625 42.75 -23.09375 C 42.894531 -28.820312 41.550781 -33.066406 38.71875 -35.828125 C 35.894531 -38.585938 32.476562 -39.96875 28.46875 -39.96875 C 26.320312 -39.96875 24.226562 -39.484375 22.1875 -38.515625 C 20.144531 -37.546875 18.367188 -36.054688 16.859375 -34.046875 L 16.859375 -7.953125 C 18.367188 -6.953125 20.019531 -6.144531 21.8125 -5.53125 C 23.601562 -4.925781 25.675781 -4.625 28.03125 -4.625 Z M 28.03125 -4.625 "/></g></g></g><g fill="#000000" fill-opacity="1"><g transform="translate(670.671035, 1260.329871)"><g><path d="M 27.609375 0.859375 C 22.953125 0.859375 18.882812 -0.140625 15.40625 -2.140625 C 11.9375 -4.148438 9.234375 -6.960938 7.296875 -10.578125 C 5.367188 -14.191406 4.40625 -18.328125 4.40625 -22.984375 C 4.40625 -27.859375 5.460938 -32.082031 7.578125 -35.65625 C 9.691406 -39.238281 12.554688 -42.03125 16.171875 -44.03125 C 19.785156 -46.039062 23.738281 -47.046875 28.03125 -47.046875 C 32.476562 -47.046875 36.347656 -46.0625 39.640625 -44.09375 C 42.929688 -42.125 45.507812 -39.367188 47.375 -35.828125 C 49.238281 -32.285156 50.171875 -28.148438 50.171875 -23.421875 C 50.171875 -18.910156 49.164062 -14.8125 47.15625 -11.125 C 45.15625 -7.4375 42.453125 -4.515625 39.046875 -2.359375 C 35.648438 -0.210938 31.835938 0.859375 27.609375 0.859375 Z M 28.6875 -4.1875 C 31.113281 -4.1875 33.222656 -4.921875 35.015625 -6.390625 C 36.804688 -7.859375 38.203125 -9.898438 39.203125 -12.515625 C 40.210938 -15.128906 40.71875 -18.117188 40.71875 -21.484375 C 40.71875 -27.640625 39.445312 -32.632812 36.90625 -36.46875 C 34.363281 -40.300781 31.015625 -42.21875 26.859375 -42.21875 C 22.992188 -42.21875 19.894531 -40.625 17.5625 -37.4375 C 15.238281 -34.25 14.078125 -29.96875 14.078125 -24.59375 C 14.078125 -20.582031 14.703125 -17.035156 15.953125 -13.953125 C 17.203125 -10.878906 18.9375 -8.484375 21.15625 -6.765625 C 23.382812 -5.046875 25.894531 -4.1875 28.6875 -4.1875 Z M 28.6875 -4.1875 "/></g></g></g><g fill="#000000" fill-opacity="1"><g transform="translate(725.237467, 1260.329871)"><g><path d="M 27.609375 0.859375 C 22.953125 0.859375 18.882812 -0.140625 15.40625 -2.140625 C 11.9375 -4.148438 9.234375 -6.960938 7.296875 -10.578125 C 5.367188 -14.191406 4.40625 -18.328125 4.40625 -22.984375 C 4.40625 -27.859375 5.460938 -32.082031 7.578125 -35.65625 C 9.691406 -39.238281 12.554688 -42.03125 16.171875 -44.03125 C 19.785156 -46.039062 23.738281 -47.046875 28.03125 -47.046875 C 32.476562 -47.046875 36.347656 -46.0625 39.640625 -44.09375 C 42.929688 -42.125 45.507812 -39.367188 47.375 -35.828125 C 49.238281 -32.285156 50.171875 -28.148438 50.171875 -23.421875 C 50.171875 -18.910156 49.164062 -14.8125 47.15625 -11.125 C 45.15625 -7.4375 42.453125 -4.515625 39.046875 -2.359375 C 35.648438 -0.210938 31.835938 0.859375 27.609375 0.859375 Z M 28.6875 -4.1875 C 31.113281 -4.1875 33.222656 -4.921875 35.015625 -6.390625 C 36.804688 -7.859375 38.203125 -9.898438 39.203125 -12.515625 C 40.210938 -15.128906 40.71875 -18.117188 40.71875 -21.484375 C 40.71875 -27.640625 39.445312 -32.632812 36.90625 -36.46875 C 34.363281 -40.300781 31.015625 -42.21875 26.859375 -42.21875 C 22.992188 -42.21875 19.894531 -40.625 17.5625 -37.4375 C 15.238281 -34.25 14.078125 -29.96875 14.078125 -24.59375 C 14.078125 -20.582031 14.703125 -17.035156 15.953125 -13.953125 C 17.203125 -10.878906 18.9375 -8.484375 21.15625 -6.765625 C 23.382812 -5.046875 25.894531 -4.1875 28.6875 -4.1875 Z M 28.6875 -4.1875 "/></g></g></g><g fill="#000000" fill-opacity="1"><g transform="translate(779.803899, 1260.329871)"><g><path d="M 3.875 0 L 3.65625 -3.875 L 9.78125 -5.484375 C 9.851562 -6.128906 9.921875 -7.273438 9.984375 -8.921875 C 10.054688 -10.566406 10.128906 -12.625 10.203125 -15.09375 C 10.273438 -17.5625 10.3125 -20.335938 10.3125 -23.421875 L 10.3125 -39 C 10.3125 -41.644531 10.289062 -44.398438 10.25 -47.265625 C 10.21875 -50.128906 10.179688 -52.847656 10.140625 -55.421875 C 10.109375 -58.003906 10.054688 -60.207031 9.984375 -62.03125 C 9.921875 -63.863281 9.890625 -65.066406 9.890625 -65.640625 L 1.9375 -66.703125 L 1.71875 -70.140625 L 16.859375 -74.546875 L 19.015625 -73.046875 C 18.867188 -70.679688 18.773438 -68.316406 18.734375 -65.953125 C 18.703125 -63.585938 18.648438 -61.171875 18.578125 -58.703125 C 18.515625 -56.234375 18.484375 -53.617188 18.484375 -50.859375 C 18.484375 -48.109375 18.484375 -45.117188 18.484375 -41.890625 L 18.375 -15.578125 C 18.375 -13.710938 18.40625 -12.082031 18.46875 -10.6875 C 18.539062 -9.289062 18.613281 -8.160156 18.6875 -7.296875 C 18.757812 -6.441406 18.796875 -5.835938 18.796875 -5.484375 L 25.453125 -3.875 L 25.25 0 Z M 52 0 L 39.75 0 C 38.457031 -1.71875 37.4375 -3.003906 36.6875 -3.859375 C 35.9375 -4.722656 35.203125 -5.550781 34.484375 -6.34375 L 19.765625 -22.34375 L 16.765625 -22.34375 L 16.859375 -24.921875 L 20.953125 -26.109375 L 35.875 -40.921875 L 28.796875 -42.21875 L 29 -46.1875 L 50.59375 -46.1875 L 50.8125 -42.21875 L 43.71875 -40.921875 L 24.5 -23.640625 L 26.109375 -27.5 L 41.25 -11.171875 C 42.113281 -10.171875 43.148438 -9.078125 44.359375 -7.890625 C 45.578125 -6.710938 46.617188 -5.726562 47.484375 -4.9375 L 52.3125 -3.96875 Z M 52 0 "/></g></g></g><g fill="#000000" fill-opacity="1"><g transform="translate(831.79239, 1260.329871)"><g><path d="M 21.0625 0.859375 C 18.40625 0.859375 15.75 0.554688 13.09375 -0.046875 C 10.445312 -0.660156 8.195312 -1.46875 6.34375 -2.46875 L 5.796875 -13.96875 L 11.0625 -13.96875 L 13.21875 -6.234375 C 15.582031 -4.515625 18.445312 -3.65625 21.8125 -3.65625 C 24.175781 -3.65625 26.125 -4.242188 27.65625 -5.421875 C 29.195312 -6.609375 29.96875 -8.203125 29.96875 -10.203125 C 29.96875 -12.140625 29.285156 -13.785156 27.921875 -15.140625 C 26.566406 -16.503906 23.921875 -18.007812 19.984375 -19.65625 C 14.898438 -21.875 11.316406 -24.019531 9.234375 -26.09375 C 7.160156 -28.175781 6.125 -30.796875 6.125 -33.953125 C 6.125 -36.523438 6.894531 -38.796875 8.4375 -40.765625 C 9.976562 -42.734375 12.109375 -44.269531 14.828125 -45.375 C 17.546875 -46.488281 20.695312 -47.046875 24.28125 -47.046875 C 26.28125 -47.046875 28.316406 -46.882812 30.390625 -46.5625 C 32.472656 -46.238281 34.195312 -45.757812 35.5625 -45.125 L 36.734375 -33.953125 L 31.6875 -33.953125 L 29.109375 -41.25 C 28.390625 -41.675781 27.53125 -42.015625 26.53125 -42.265625 C 25.53125 -42.515625 24.457031 -42.640625 23.3125 -42.640625 C 20.800781 -42.640625 18.796875 -42.050781 17.296875 -40.875 C 15.796875 -39.695312 15.046875 -38.175781 15.046875 -36.3125 C 15.046875 -34.164062 15.867188 -32.425781 17.515625 -31.09375 C 19.160156 -29.769531 22.0625 -28.144531 26.21875 -26.21875 C 30.9375 -24.0625 34.226562 -21.945312 36.09375 -19.875 C 37.957031 -17.800781 38.890625 -15.296875 38.890625 -12.359375 C 38.890625 -8.484375 37.207031 -5.3125 33.84375 -2.84375 C 30.476562 -0.375 26.21875 0.859375 21.0625 0.859375 Z M 21.0625 0.859375 "/></g></g></g><g fill="#000000" fill-opacity="1"><g transform="translate(874.972913, 1260.329871)"><g/></g></g><g fill="#000000" fill-opacity="1"><g transform="translate(895.596446, 1260.329871)"><g><path d="M 37.0625 -6.65625 C 35.695312 -4.289062 33.832031 -2.445312 31.46875 -1.125 C 29.113281 0.195312 26.644531 0.859375 24.0625 0.859375 C 19.769531 0.859375 16.207031 -0.460938 13.375 -3.109375 C 10.539062 -5.765625 9.125 -9.742188 9.125 -15.046875 L 9.453125 -40.71875 L 1.9375 -40.71875 L 1.9375 -42.96875 L 15.796875 -55.53125 L 17.828125 -55.53125 L 17.625 -43.1875 L 17.515625 -16.765625 C 17.515625 -13.035156 18.316406 -10.273438 19.921875 -8.484375 C 21.535156 -6.691406 23.8125 -5.796875 26.75 -5.796875 C 28.394531 -5.796875 29.914062 -6.132812 31.3125 -6.8125 C 32.707031 -7.5 33.976562 -8.34375 35.125 -9.34375 Z M 13.75 -40.71875 L 13.75 -46.078125 L 33.84375 -46.078125 L 33.84375 -40.71875 Z M 13.75 -40.71875 "/></g></g></g><g fill="#000000" fill-opacity="1"><g transform="translate(931.257927, 1260.329871)"><g><path d="M 27.609375 0.859375 C 22.953125 0.859375 18.882812 -0.140625 15.40625 -2.140625 C 11.9375 -4.148438 9.234375 -6.960938 7.296875 -10.578125 C 5.367188 -14.191406 4.40625 -18.328125 4.40625 -22.984375 C 4.40625 -27.859375 5.460938 -32.082031 7.578125 -35.65625 C 9.691406 -39.238281 12.554688 -42.03125 16.171875 -44.03125 C 19.785156 -46.039062 23.738281 -47.046875 28.03125 -47.046875 C 32.476562 -47.046875 36.347656 -46.0625 39.640625 -44.09375 C 42.929688 -42.125 45.507812 -39.367188 47.375 -35.828125 C 49.238281 -32.285156 50.171875 -28.148438 50.171875 -23.421875 C 50.171875 -18.910156 49.164062 -14.8125 47.15625 -11.125 C 45.15625 -7.4375 42.453125 -4.515625 39.046875 -2.359375 C 35.648438 -0.210938 31.835938 0.859375 27.609375 0.859375 Z M 28.6875 -4.1875 C 31.113281 -4.1875 33.222656 -4.921875 35.015625 -6.390625 C 36.804688 -7.859375 38.203125 -9.898438 39.203125 -12.515625 C 40.210938 -15.128906 40.71875 -18.117188 40.71875 -21.484375 C 40.71875 -27.640625 39.445312 -32.632812 36.90625 -36.46875 C 34.363281 -40.300781 31.015625 -42.21875 26.859375 -42.21875 C 22.992188 -42.21875 19.894531 -40.625 17.5625 -37.4375 C 15.238281 -34.25 14.078125 -29.96875 14.078125 -24.59375 C 14.078125 -20.582031 14.703125 -17.035156 15.953125 -13.953125 C 17.203125 -10.878906 18.9375 -8.484375 21.15625 -6.765625 C 23.382812 -5.046875 25.894531 -4.1875 28.6875 -4.1875 Z M 28.6875 -4.1875 "/></g></g></g><g fill="#000000" fill-opacity="1"><g transform="translate(985.824405, 1260.329871)"><g/></g></g><g fill="#000000" fill-opacity="1"><g transform="translate(1006.447938, 1260.329871)"><g><path d="M 27.609375 0.859375 C 22.953125 0.859375 18.882812 -0.140625 15.40625 -2.140625 C 11.9375 -4.148438 9.234375 -6.960938 7.296875 -10.578125 C 5.367188 -14.191406 4.40625 -18.328125 4.40625 -22.984375 C 4.40625 -27.859375 5.460938 -32.082031 7.578125 -35.65625 C 9.691406 -39.238281 12.554688 -42.03125 16.171875 -44.03125 C 19.785156 -46.039062 23.738281 -47.046875 28.03125 -47.046875 C 32.476562 -47.046875 36.347656 -46.0625 39.640625 -44.09375 C 42.929688 -42.125 45.507812 -39.367188 47.375 -35.828125 C 49.238281 -32.285156 50.171875 -28.148438 50.171875 -23.421875 C 50.171875 -18.910156 49.164062 -14.8125 47.15625 -11.125 C 45.15625 -7.4375 42.453125 -4.515625 39.046875 -2.359375 C 35.648438 -0.210938 31.835938 0.859375 27.609375 0.859375 Z M 28.6875 -4.1875 C 31.113281 -4.1875 33.222656 -4.921875 35.015625 -6.390625 C 36.804688 -7.859375 38.203125 -9.898438 39.203125 -12.515625 C 40.210938 -15.128906 40.71875 -18.117188 40.71875 -21.484375 C 40.71875 -27.640625 39.445312 -32.632812 36.90625 -36.46875 C 34.363281 -40.300781 31.015625 -42.21875 26.859375 -42.21875 C 22.992188 -42.21875 19.894531 -40.625 17.5625 -37.4375 C 15.238281 -34.25 14.078125 -29.96875 14.078125 -24.59375 C 14.078125 -20.582031 14.703125 -17.035156 15.953125 -13.953125 C 17.203125 -10.878906 18.9375 -8.484375 21.15625 -6.765625 C 23.382812 -5.046875 25.894531 -4.1875 28.6875 -4.1875 Z M 28.6875 -4.1875 "/></g></g></g><g fill="#000000" fill-opacity="1"><g transform="translate(1061.01437, 1260.329871)"><g><path d="M 37.0625 -6.65625 C 35.695312 -4.289062 33.832031 -2.445312 31.46875 -1.125 C 29.113281 0.195312 26.644531 0.859375 24.0625 0.859375 C 19.769531 0.859375 16.207031 -0.460938 13.375 -3.109375 C 10.539062 -5.765625 9.125 -9.742188 9.125 -15.046875 L 9.453125 -40.71875 L 1.9375 -40.71875 L 1.9375 -42.96875 L 15.796875 -55.53125 L 17.828125 -55.53125 L 17.625 -43.1875 L 17.515625 -16.765625 C 17.515625 -13.035156 18.316406 -10.273438 19.921875 -8.484375 C 21.535156 -6.691406 23.8125 -5.796875 26.75 -5.796875 C 28.394531 -5.796875 29.914062 -6.132812 31.3125 -6.8125 C 32.707031 -7.5 33.976562 -8.34375 35.125 -9.34375 Z M 13.75 -40.71875 L 13.75 -46.078125 L 33.84375 -46.078125 L 33.84375 -40.71875 Z M 13.75 -40.71875 "/></g></g></g><g fill="#000000" fill-opacity="1"><g transform="translate(1097.427728, 1260.329871)"><g><path d="M 3.328125 0 L 3.109375 -3.875 L 9.78125 -5.484375 C 9.914062 -6.265625 10 -7.460938 10.03125 -9.078125 C 10.070312 -10.691406 10.128906 -12.859375 10.203125 -15.578125 C 10.273438 -18.296875 10.3125 -21.625 10.3125 -25.5625 L 10.3125 -39 C 10.3125 -41.425781 10.289062 -44.035156 10.25 -46.828125 C 10.21875 -49.628906 10.179688 -52.335938 10.140625 -54.953125 C 10.109375 -57.566406 10.054688 -59.859375 9.984375 -61.828125 C 9.921875 -63.796875 9.890625 -65.066406 9.890625 -65.640625 L 1.9375 -66.703125 L 1.71875 -70.140625 L 16.859375 -74.546875 L 18.90625 -73.046875 C 18.832031 -70.828125 18.757812 -68.609375 18.6875 -66.390625 C 18.613281 -64.171875 18.5625 -61.769531 18.53125 -59.1875 C 18.5 -56.613281 18.460938 -53.734375 18.421875 -50.546875 C 18.390625 -47.359375 18.375 -43.648438 18.375 -39.421875 L 18.6875 -39.3125 C 21.125 -42.039062 23.5625 -44.007812 26 -45.21875 C 28.4375 -46.4375 31.085938 -47.046875 33.953125 -47.046875 C 36.597656 -47.046875 39.082031 -46.363281 41.40625 -45 C 43.738281 -43.644531 45.640625 -41.585938 47.109375 -38.828125 C 48.578125 -36.078125 49.3125 -32.550781 49.3125 -28.25 L 49.3125 -16.65625 C 49.3125 -14.070312 49.378906 -11.757812 49.515625 -9.71875 C 49.660156 -7.675781 49.804688 -6.265625 49.953125 -5.484375 L 56.609375 -3.875 L 56.390625 0 L 34.8125 0 L 34.484375 -3.875 L 40.71875 -5.484375 C 40.789062 -6.054688 40.859375 -6.769531 40.921875 -7.625 C 40.992188 -8.488281 41.046875 -9.597656 41.078125 -10.953125 C 41.117188 -12.316406 41.140625 -13.96875 41.140625 -15.90625 L 41.140625 -27.5 C 41.140625 -30.582031 40.617188 -33.070312 39.578125 -34.96875 C 38.546875 -36.863281 37.207031 -38.257812 35.5625 -39.15625 C 33.914062 -40.050781 32.160156 -40.5 30.296875 -40.5 C 27.929688 -40.5 25.742188 -39.925781 23.734375 -38.78125 C 21.734375 -37.632812 19.984375 -35.988281 18.484375 -33.84375 L 18.484375 -17.71875 C 18.484375 -14.425781 18.535156 -11.707031 18.640625 -9.5625 C 18.742188 -7.414062 18.867188 -6.054688 19.015625 -5.484375 L 25.5625 -3.875 L 25.359375 0 Z M 3.328125 0 "/></g></g></g><g fill="#000000" fill-opacity="1"><g transform="translate(1156.505603, 1260.329871)"><g><path d="M 26.640625 0.859375 C 22.484375 0.859375 18.722656 -0.0703125 15.359375 -1.9375 C 11.992188 -3.800781 9.34375 -6.46875 7.40625 -9.9375 C 5.476562 -13.40625 4.515625 -17.503906 4.515625 -22.234375 C 4.515625 -27.316406 5.550781 -31.71875 7.625 -35.4375 C 9.707031 -39.164062 12.429688 -42.050781 15.796875 -44.09375 C 19.160156 -46.132812 22.773438 -47.117188 26.640625 -47.046875 C 32.222656 -46.972656 36.585938 -45.128906 39.734375 -41.515625 C 42.890625 -37.898438 44.46875 -32.726562 44.46875 -26 L 44.46875 -24.0625 L 11.5 -24.0625 L 11.5 -28.796875 L 37.390625 -28.796875 L 36.203125 -27.390625 L 36.203125 -29.65625 C 36.203125 -33.726562 35.285156 -36.894531 33.453125 -39.15625 C 31.628906 -41.414062 29.070312 -42.546875 25.78125 -42.546875 C 23.78125 -42.546875 21.847656 -41.953125 19.984375 -40.765625 C 18.117188 -39.585938 16.613281 -37.796875 15.46875 -35.390625 C 14.320312 -32.992188 13.75 -29.96875 13.75 -26.3125 L 13.75 -25.03125 C 13.75 -19.15625 15.195312 -14.570312 18.09375 -11.28125 C 21 -7.988281 24.742188 -6.34375 29.328125 -6.34375 C 31.898438 -6.34375 34.171875 -6.820312 36.140625 -7.78125 C 38.117188 -8.75 40.035156 -10.378906 41.890625 -12.671875 L 44.578125 -10.203125 C 42.578125 -6.484375 40.035156 -3.707031 36.953125 -1.875 C 33.867188 -0.0507812 30.429688 0.859375 26.640625 0.859375 Z M 26.640625 0.859375 "/></g></g></g><g fill="#000000" fill-opacity="1"><g transform="translate(1204.841964, 1260.329871)"><g><path d="M 3.546875 0 L 3.21875 -3.875 L 9.890625 -5.484375 C 9.953125 -5.835938 10.019531 -6.460938 10.09375 -7.359375 C 10.164062 -8.253906 10.21875 -9.503906 10.25 -11.109375 C 10.289062 -12.722656 10.3125 -14.675781 10.3125 -16.96875 L 10.421875 -25.359375 C 10.421875 -27.710938 10.332031 -30.050781 10.15625 -32.375 C 9.976562 -34.707031 9.78125 -36.519531 9.5625 -37.8125 L 2.6875 -39.3125 L 2.6875 -42.859375 L 17.078125 -46.84375 L 18.578125 -45.328125 L 18.15625 -36.3125 L 18.484375 -36.203125 C 20.628906 -40.359375 22.789062 -43.171875 24.96875 -44.640625 C 27.15625 -46.109375 29.253906 -46.84375 31.265625 -46.84375 C 32.910156 -46.84375 34.285156 -46.410156 35.390625 -45.546875 C 36.503906 -44.691406 37.0625 -43.472656 37.0625 -41.890625 C 37.0625 -40.242188 36.46875 -38.953125 35.28125 -38.015625 C 34.101562 -37.085938 32.617188 -36.625 30.828125 -36.625 C 29.535156 -36.625 28.300781 -36.910156 27.125 -37.484375 C 25.945312 -38.054688 24.816406 -38.847656 23.734375 -39.859375 L 25.671875 -39.203125 C 24.378906 -38.347656 23.125 -37.128906 21.90625 -35.546875 C 20.695312 -33.972656 19.554688 -32.078125 18.484375 -29.859375 L 18.578125 -19.875 C 18.648438 -18.082031 18.722656 -16.238281 18.796875 -14.34375 C 18.867188 -12.445312 18.941406 -10.691406 19.015625 -9.078125 C 19.085938 -7.460938 19.160156 -6.265625 19.234375 -5.484375 L 28.578125 -4.078125 L 28.359375 0 Z M 3.546875 0 "/></g></g></g><g fill="#000000" fill-opacity="1"><g transform="translate(1243.188823, 1260.329871)"><g><path d="M 21.0625 0.859375 C 18.40625 0.859375 15.75 0.554688 13.09375 -0.046875 C 10.445312 -0.660156 8.195312 -1.46875 6.34375 -2.46875 L 5.796875 -13.96875 L 11.0625 -13.96875 L 13.21875 -6.234375 C 15.582031 -4.515625 18.445312 -3.65625 21.8125 -3.65625 C 24.175781 -3.65625 26.125 -4.242188 27.65625 -5.421875 C 29.195312 -6.609375 29.96875 -8.203125 29.96875 -10.203125 C 29.96875 -12.140625 29.285156 -13.785156 27.921875 -15.140625 C 26.566406 -16.503906 23.921875 -18.007812 19.984375 -19.65625 C 14.898438 -21.875 11.316406 -24.019531 9.234375 -26.09375 C 7.160156 -28.175781 6.125 -30.796875 6.125 -33.953125 C 6.125 -36.523438 6.894531 -38.796875 8.4375 -40.765625 C 9.976562 -42.734375 12.109375 -44.269531 14.828125 -45.375 C 17.546875 -46.488281 20.695312 -47.046875 24.28125 -47.046875 C 26.28125 -47.046875 28.316406 -46.882812 30.390625 -46.5625 C 32.472656 -46.238281 34.195312 -45.757812 35.5625 -45.125 L 36.734375 -33.953125 L 31.6875 -33.953125 L 29.109375 -41.25 C 28.390625 -41.675781 27.53125 -42.015625 26.53125 -42.265625 C 25.53125 -42.515625 24.457031 -42.640625 23.3125 -42.640625 C 20.800781 -42.640625 18.796875 -42.050781 17.296875 -40.875 C 15.796875 -39.695312 15.046875 -38.175781 15.046875 -36.3125 C 15.046875 -34.164062 15.867188 -32.425781 17.515625 -31.09375 C 19.160156 -29.769531 22.0625 -28.144531 26.21875 -26.21875 C 30.9375 -24.0625 34.226562 -21.945312 36.09375 -19.875 C 37.957031 -17.800781 38.890625 -15.296875 38.890625 -12.359375 C 38.890625 -8.484375 37.207031 -5.3125 33.84375 -2.84375 C 30.476562 -0.375 26.21875 0.859375 21.0625 0.859375 Z M 21.0625 0.859375 "/></g></g></g></svg>